<?xml version="1.0" standalone="no"?>
<!DOCTYPE svg PUBLIC "-//W3C//DTD SVG 1.1//EN" "http://www.w3.org/Graphics/SVG/1.1/DTD/svg11.dtd" >
<svg xmlns="http://www.w3.org/2000/svg" xmlns:xlink="http://www.w3.org/1999/xlink" version="1.1">
<metadata>
Created by FontForge 20190801 at Fri Apr  3 17:32:33 2015
 By Jimmy Wärting
Copyright (c) 2015 by Jakob Runge, under exclusive license to type me! fonts. All rights reserved.
</metadata>
<defs>
<font id="CeraGR-Medium" horiz-adv-x="560" >
  <font-face 
    font-family="CeraGR-Medium"
    font-weight="400"
    font-stretch="normal"
    units-per-em="1000"
    panose-1="0 0 6 0 0 0 0 0 0 0"
    ascent="799"
    descent="-201"
    x-height="491"
    cap-height="660"
    bbox="-157 -243 1337 902"
    underline-thickness="50"
    underline-position="-100"
    unicode-range="U+0020-F8FF"
  />
<missing-glyph horiz-adv-x="710" 
d="M83 660h544v-660h-544v660zM552 64v528h-396z" />
    <glyph glyph-name=".notdef" horiz-adv-x="710" 
d="M83 660h544v-660h-544v660zM552 64v528h-396z" />
    <glyph glyph-name="space" unicode=" " horiz-adv-x="280" 
 />
    <glyph glyph-name="exclam" unicode="!" horiz-adv-x="326" 
d="M225 660l-19 -435h-87l-20 435h126zM163 144c22 0 40.333 -7.33301 55 -22s22 -33.334 22 -56.001c0 -22 -7.33301 -40.333 -22 -55s-33 -22 -55 -22s-40.5 7.33301 -55.5 22s-22.5 33 -22.5 55c0 22.667 7.5 41.334 22.5 56.001s33.5 22 55.5 22z" />
    <glyph glyph-name="quotedbl" unicode="&#x22;" horiz-adv-x="500" 
d="M219 660l-49 -268h-81l9 268h121zM429 660l-49 -268h-81l9 268h121z" />
    <glyph glyph-name="numbersign" unicode="#" horiz-adv-x="614" 
d="M586 391h-98l-17 -122h94v-89h-106l-24 -180h-87l24 180h-171l-24 -180h-87l24 180h-86v89h98l17 122h-93v89h105l23 180h89l-25 -180h170l24 180h88l-24 -180h86v-89zM213 266h171l17 128h-171z" />
    <glyph glyph-name="dollar" unicode="$" horiz-adv-x="537" 
d="M483 193c0 -46 -15.5 -83.834 -46.5 -113.501s-71.167 -48.167 -120.5 -55.5v-119h-97v120c-80 14.667 -141 60 -183 136l73 54c30 -48 66.667 -79 110 -93v185c-96 37.333 -144 92.666 -144 165.999c0 40.667 13.333 74.834 40 102.501s61.334 45.834 104.001 54.501
v119h97v-117c66 -12 116.667 -49 152 -111l-72 -54c-22.667 34.667 -49.334 57 -80.001 67v-163l18 -7c99.333 -38.667 149 -95.667 149 -171zM180 473.999c0 -25.333 13 -45.667 39 -61v118c-26 -12 -39 -31 -39 -57zM316 119.998c41.333 11.333 62 35 62 71
c0 30 -20.667 55 -62 75v-146z" />
    <glyph glyph-name="percent" unicode="%" horiz-adv-x="821" 
d="M213 671c46 0 85.333 -15.5 118 -46.5s49 -69.5 49 -115.5s-16.167 -84.667 -48.5 -116s-71.833 -47 -118.5 -47s-86.167 15.667 -118.5 47s-48.5 70 -48.5 116s16.167 84.5 48.5 115.5s71.833 46.5 118.5 46.5zM644 660l-379 -660h-88l378 660h89zM213 597
c-24 0 -43.833 -8.33301 -59.5 -25s-23.5 -37.667 -23.5 -63s7.66699 -46.333 23 -63s35.333 -25 60 -25c24 0 43.833 8.33301 59.5 25s23.5 37.667 23.5 63s-7.83301 46.333 -23.5 63s-35.5 25 -59.5 25zM607 315c46.667 0 86.334 -15.668 119.001 -47.001s49 -70 49 -116
c0 -45.333 -16.333 -83.666 -49 -114.999s-72.334 -47 -119.001 -47c-46 0 -85.167 15.5 -117.5 46.5s-48.5 69.5 -48.5 115.5s16.167 84.667 48.5 116s71.5 47 117.5 47zM608 239.999c-24.667 0 -44.667 -8.33496 -60 -25.002s-23 -37.667 -23 -63
s7.66699 -46.166 23 -62.499s35.333 -24.5 60 -24.5c23.333 0 42.833 8.33301 58.5 25s23.5 37.334 23.5 62.001c0 25.333 -7.83301 46.333 -23.5 63s-35.167 25 -58.5 25z" />
    <glyph glyph-name="ampersand" unicode="&#x26;" horiz-adv-x="649" 
d="M622 293c-64 -93.333 -101.33 -146.667 -111.997 -160l109 -133h-125l-51 62c-56 -48.667 -118 -73 -186 -73c-60 0 -109.833 16.333 -149.5 49s-59.5 75.334 -59.5 128.001c0 40 11.667 74.833 35 104.5s58.666 62.5 105.999 98.5c-42.667 54.667 -64 105 -64 151
c0 44 14.167 80.167 42.5 108.5s66.166 42.5 113.499 42.5c46 0 83.167 -13.333 111.5 -40s42.5 -60 42.5 -100c0 -58 -37 -116 -111 -174l120 -145c21.333 29.333 52.666 75.666 93.999 138.999zM281.003 578.999c-18.667 0 -33 -5.33301 -43 -16s-15 -25 -15 -43
c0 -26 15.333 -58 46 -96c45.333 34.667 68 67.667 68 99c0 37.333 -18.667 56 -56 56zM262.003 83.999c41.333 0 80.667 17.666 118 52.999l-133 161c-22 -17.333 -38.167 -30.666 -48.5 -39.999s-20 -21.333 -29 -36s-13.5 -30 -13.5 -46c0 -26.667 10 -48.667 30 -66
s45.333 -26 76 -26z" />
    <glyph glyph-name="quotesingle" unicode="'" horiz-adv-x="291" 
d="M219 660l-49 -268h-81l9 268h121z" />
    <glyph glyph-name="parenleft" unicode="(" horiz-adv-x="349" 
d="M279 736l42.999 -66.001c-101.333 -67.333 -152 -190 -152 -368c0 -178.667 50.667 -301 152 -367l-43 -66c-38 18 -71.667 43.333 -101 76s-54.166 79.834 -74.499 141.501s-30.5 133.5 -30.5 215.5c0 120 19.333 215.333 58 286s88 120 148 148z" />
    <glyph glyph-name="parenright" unicode=")" horiz-adv-x="349" 
d="M71 736c59.333 -28 108.166 -77.333 146.499 -148s57.5 -166 57.5 -286c0 -119.333 -19.167 -214.333 -57.5 -285s-87.166 -120 -146.499 -148l-44 66c101.333 66 152 188.333 152 367c0 178 -50.667 300.667 -152 368z" />
    <glyph glyph-name="asterisk" unicode="*" horiz-adv-x="438" 
d="M395 630l-92 -66l92 -66l-31 -53l-103 47l-11 -113h-62l-11 113l-103 -47l-31 53l92 66l-92 66l31 54l103 -47l11 113h62l11 -113l103 47z" />
    <glyph glyph-name="plus" unicode="+" 
d="M509 272h-176v-185h-102v185h-180v91h180v183h102v-183h176v-91z" />
    <glyph glyph-name="comma" unicode="," horiz-adv-x="270" 
d="M205 106l-46 -284h-85l9 284h122z" />
    <glyph glyph-name="hyphen" unicode="-" horiz-adv-x="344" 
d="M295 362v-89h-246v89h246z" />
    <glyph glyph-name="period" unicode="." horiz-adv-x="270" 
d="M136 144c21.333 0 39.5 -7.33203 54.5 -21.999s22.5 -33.334 22.5 -56.001c0 -22 -7.33301 -40.333 -22 -55s-33 -22 -55 -22s-40.667 7.33301 -56 22s-23 33 -23 55s7.66699 40.5 23 55.5s34 22.5 56 22.5z" />
    <glyph glyph-name="slash" unicode="/" horiz-adv-x="650" 
d="M645 780l-523 -901h-117l523 901h117z" />
    <glyph glyph-name="zero" unicode="0" horiz-adv-x="661" 
d="M330 546c78.667 0 145.833 -27 201.5 -81s83.5 -120 83.5 -198s-27.833 -144 -83.5 -198s-123.167 -81 -202.5 -81c-78.667 0 -145.5 27 -200.5 81s-82.5 120 -82.5 198s27.5 144 82.5 198s122.167 81 201.5 81zM329.999 449c-51.333 0 -93.333 -17.167 -126 -51.5
s-49 -77.833 -49 -130.5c0 -52 16.333 -95.333 49 -130s74.667 -52 126 -52c50.667 0 92.667 17.333 126 52s50 78 50 130s-16.667 95.333 -50 130s-75.333 52 -126 52z" />
    <glyph glyph-name="one" unicode="1" horiz-adv-x="504" 
d="M327 535v-444h136v-91h-389v91h147v348h-137v96h243z" />
    <glyph glyph-name="two" unicode="2" horiz-adv-x="567" 
d="M284 91l230 0.00292969v-91h-471v24l201 150c26.667 19.333 45.5 33.5 56.5 42.5s24.333 21.333 40 37s26.5 30.667 32.5 45s9 30.166 9 47.499c0 29.333 -9.33301 54 -28 74s-44 30 -76 30c-32.667 0 -58.667 -10.167 -78 -30.5s-29 -44.833 -29 -73.5
c0 -12.667 1.66699 -28.334 5 -47.001h-104c-4.66699 18 -7 36.667 -7 56c0 51.333 20 96 60 134s92 57 156 57c61.333 0 111.666 -17.833 150.999 -53.5s59 -81.167 59 -136.5c0 -44.667 -13.167 -84.334 -39.5 -119.001s-65.166 -71 -116.499 -109z" />
    <glyph glyph-name="three" unicode="3" horiz-adv-x="527" 
d="M305 294c47.333 -8.66699 88 -30.833 122 -66.5s51 -81.5 51 -137.5c0 -66 -23.5 -119.667 -70.5 -161s-103.833 -62 -170.5 -62c-53.333 0 -99.833 13.167 -139.5 39.5s-70.5 60.5 -92.5 102.5l74 53c42.667 -65.333 94.334 -98 155.001 -98
c39.333 0 71.833 11.5 97.5 34.5s38.5 53.167 38.5 90.5s-13.333 66.333 -40 87s-64.334 31 -113.001 31h-70v29l152 203h-247v96h411v-29z" />
    <glyph glyph-name="four" unicode="4" horiz-adv-x="559" 
d="M545 91v-91h-91v-121h-105v121h-330v29l206 506h110l-183 -444h197v204h105v-204h91z" />
    <glyph glyph-name="five" unicode="5" horiz-adv-x="547" 
d="M274 299c60.667 0 113.166 -18.332 157.499 -54.999s66.5 -87.667 66.5 -153c0 -66.667 -23.5 -120.667 -70.5 -162s-104.167 -62 -171.5 -62c-54.667 0 -102.167 13.167 -142.5 39.5s-71.833 60.5 -94.5 102.5l74 53c42.667 -65.333 96 -98 160 -98
c39.333 0 71.833 11.5 97.5 34.5s38.5 53.5 38.5 91.5c0 37.333 -13.167 66.166 -39.5 86.499s-63.833 30.5 -112.5 30.5h-152v328h362v-96h-259v-149c32.667 6 61.334 9 86.001 9z" />
    <glyph glyph-name="six" unicode="6" horiz-adv-x="556" 
d="M295 438c58.667 0 109.5 -21.165 152.5 -63.498s64.5 -94.833 64.5 -157.5c0 -64.667 -22.833 -118.834 -68.5 -162.501s-100.834 -65.5 -165.501 -65.5s-119.667 21.833 -165 65.5s-68 98.167 -68 163.5c0 25.333 4.5 50.666 13.5 75.999s18.5 46 28.5 62
s26 39.667 48 71l165 233h125l-159 -225c8.66699 2 18.334 3 29.001 3zM278 86.002c36 0 66.5 12.5 91.5 37.5s37.5 56.167 37.5 93.5s-12.5 68.5 -37.5 93.5s-55.5 37.5 -91.5 37.5c-36.667 0 -67.334 -12.5 -92.001 -37.5s-37 -56.167 -37 -93.5s12.333 -68.5 37 -93.5
s55.334 -37.5 92.001 -37.5z" />
    <glyph glyph-name="seven" unicode="7" horiz-adv-x="513" 
d="M36 535h453v-29l-318 -627h-114l288 560h-309v96z" />
    <glyph glyph-name="eight" unicode="8" horiz-adv-x="583" 
d="M388 343c95.333 -36.667 142.999 -93.667 142.999 -171c0 -55.333 -22.167 -99.666 -66.5 -132.999s-101.833 -50 -172.5 -50c-71.333 0 -129.333 16.667 -174 50s-67 77.666 -67 132.999c0 77.333 47.667 134.333 143 171c-74.667 38.667 -112 91.667 -112 159
c0 53.333 19.833 94.833 59.5 124.5s89.834 44.5 150.501 44.5c60 0 109.667 -14.833 149 -44.5s59 -71.167 59 -124.5c0 -68 -37.333 -121 -112 -159zM291.999 584c-32 0 -58.167 -7.66699 -78.5 -23s-30.5 -36.333 -30.5 -63c0 -24 8.66699 -43.667 26 -59
s44.666 -31.333 81.999 -48c36.667 16 63.834 31.833 81.501 47.5s26.5 35.5 26.5 59.5c0 26.667 -10 47.667 -30 63s-45.667 23 -77 23zM291.999 77c42.667 0 75.333 9 98 27s34 42 34 72s-11.167 53.667 -33.5 71s-55.5 34 -99.5 50c-44 -15.333 -77.167 -32 -99.5 -50
s-33.5 -41.667 -33.5 -71c0 -30 11.667 -54 35 -72s56.333 -27 99 -27z" />
    <glyph glyph-name="nine" unicode="9" horiz-adv-x="556" 
d="M279 546c64 0 118.832 -21.832 164.499 -65.499s68.5 -98.167 68.5 -163.5c0 -36 -6.83301 -68 -20.5 -96s-37.167 -65.333 -70.5 -112l-162 -230h-125l157 222c-8.66699 -2 -18.667 -3 -30 -3c-58 0 -108.5 21.167 -151.5 63.5s-64.5 94.5 -64.5 156.5
c0 65.333 22.833 119.666 68.5 162.999s100.834 65 165.501 65zM277.999 187.001c36.667 0 67.334 12.501 92.001 37.501s37 56.167 37 93.5s-12.333 68.666 -37 93.999s-55.334 38 -92.001 38c-36 0 -66.5 -12.5 -91.5 -37.5s-37.5 -56.5 -37.5 -94.5
c0 -37.333 12.5 -68.5 37.5 -93.5s55.5 -37.5 91.5 -37.5z" />
    <glyph glyph-name="colon" unicode=":" horiz-adv-x="270" 
d="M136 498c21.333 0 39.5 -7.33203 54.5 -21.999s22.5 -33.334 22.5 -56.001c0 -22 -7.33301 -40.333 -22 -55s-33 -22 -55 -22s-40.667 7.33301 -56 22s-23 33 -23 55s7.66699 40.5 23 55.5s34 22.5 56 22.5zM136 144.001c21.333 0 39.5 -7.33203 54.5 -21.999
s22.5 -33.334 22.5 -56.001c0 -22 -7.33301 -40.333 -22 -55s-33 -22 -55 -22s-40.667 7.33301 -56 22s-23 33 -23 55s7.66699 40.5 23 55.5s34 22.5 56 22.5z" />
    <glyph glyph-name="semicolon" unicode=";" horiz-adv-x="270" 
d="M136 498c21.333 0 39.5 -7.33203 54.5 -21.999s22.5 -33.334 22.5 -56.001c0 -22 -7.33301 -40.333 -22 -55s-33 -22 -55 -22s-40.667 7.33301 -56 22s-23 33 -23 55s7.66699 40.5 23 55.5s34 22.5 56 22.5zM205 106.001l-46 -284h-85l9 284h122z" />
    <glyph glyph-name="less" unicode="&#x3c;" 
d="M495 529v-95l-275 -116l275 -116v-95l-451 196v30z" />
    <glyph glyph-name="equal" unicode="=" 
d="M500 469v-91h-439v91h439zM500 257v-91h-439v91h439z" />
    <glyph glyph-name="greater" unicode="&#x3e;" 
d="M65 529l451 -196v-30l-451 -196v95l275 116l-275 116v95z" />
    <glyph glyph-name="question" unicode="?" horiz-adv-x="448" 
d="M223 671c52 0 95.999 -15.9961 131.999 -47.9961s54 -72.667 54 -122c0 -30.667 -7.33301 -57.334 -22 -80.001s-37 -47.667 -67 -75c-18.667 -16.667 -31.5 -28.334 -38.5 -35.001s-14.167 -15.5 -21.5 -26.5s-11 -21.833 -11 -32.5c0 -7.33301 1.33301 -16.333 4 -27
h-90c-7.33301 16 -11 31.333 -11 46c0 15.333 4.5 30.666 13.5 45.999s17.833 27.333 26.5 36s21.667 20.667 39 36c18.667 16.667 31.834 29 39.501 37s14.5 17.667 20.5 29s9 23.666 9 36.999c0 24.667 -7.83301 44.5 -23.5 59.5s-34.834 22.5 -57.501 22.5
c-45.333 0 -77.666 -28.667 -96.999 -86l-88 38c14 46.667 37.5 82.5 70.5 107.5s72.5 37.5 118.5 37.5zM211.999 144.004c22 0 40.5 -7.33203 55.5 -21.999s22.5 -33.334 22.5 -56.001c0 -22 -7.5 -40.333 -22.5 -55s-33.5 -22 -55.5 -22s-40.5 7.33301 -55.5 22
s-22.5 33 -22.5 55s7.5 40.5 22.5 55.5s33.5 22.5 55.5 22.5z" />
    <glyph glyph-name="at" unicode="@" horiz-adv-x="937" 
d="M481 661c118 0 216.331 -36.668 294.998 -110.001s118 -162.333 118 -267c0 -80.667 -24.833 -142.667 -74.5 -186s-115.167 -65 -196.5 -65h-37v57c-30.667 -45.333 -78 -68 -142 -68c-58 0 -105.833 20.333 -143.5 61s-56.5 92 -56.5 154s19 113.333 57 154
s86 61 144 61c60 0 105.667 -20.333 137 -61v52h92v-324c41.333 3.33301 73.5 18.833 96.5 46.5s34.5 67.167 34.5 118.5c0 85.333 -29.667 155.5 -89 210.5s-137 82.5 -233 82.5c-101.333 0 -185 -31.167 -251 -93.5s-99 -142.166 -99 -239.499
c0 -98 32.833 -178.167 98.5 -240.5s146.5 -93.5 242.5 -93.5c40.667 0 82.334 6.33301 125.001 19l17 -76c-46 -18 -96.667 -27 -152 -27c-117.333 0 -216.833 39.667 -298.5 119s-122.5 178.333 -122.5 297c0 120.667 42.333 220.667 127 300s188.334 119 311.001 119z
M462.998 112.999c30.667 0 57.168 10.667 79.501 32s33.5 52.333 33.5 93s-10.833 71.5 -32.5 92.5s-48.167 31.5 -79.5 31.5c-33.333 0 -61.333 -11.5 -84 -34.5s-34 -53.167 -34 -90.5c0 -36.667 11.167 -66.5 33.5 -89.5s50.166 -34.5 83.499 -34.5z" />
    <glyph glyph-name="A" unicode="A" horiz-adv-x="662" 
d="M526 0l-47 110h-297l-47 -110h-113l291 671h36l291 -671h-114zM440 201l-109 274l-110 -274h219z" />
    <glyph glyph-name="B" unicode="B" horiz-adv-x="618" 
d="M456 360c39.333 -12.667 69.834 -33.668 91.501 -63.001s32.5 -64.333 32.5 -105c0 -56 -19.667 -102 -59 -138s-91 -54 -155 -54h-283v660h231c59.333 0 107.166 -16.333 143.499 -49s54.5 -75 54.5 -127c0 -51.333 -18.667 -92.666 -56 -123.999zM304.001 566.999
l-117 0.000976562v-178h117c32.667 0 57.834 8.16699 75.501 24.5s26.5 38.166 26.5 65.499s-8.83301 48.833 -26.5 64.5s-42.834 23.5 -75.501 23.5zM357.001 93c36.667 0 65.167 9.16797 85.5 27.501s30.5 43.166 30.5 74.499s-10.167 56.333 -30.5 75
s-48.833 28 -85.5 28h-170v-205h170z" />
    <glyph glyph-name="C" unicode="C" horiz-adv-x="717" 
d="M390 671c60.667 0 115.832 -13.667 165.499 -41s88.834 -64.333 117.501 -111l-80 -59c-49.333 76 -116.666 114 -201.999 114c-68 0 -124.667 -23.167 -170 -69.5s-68 -104.5 -68 -174.5s22.667 -128.167 68 -174.5s102 -69.5 170 -69.5
c85.333 0 152.666 38 201.999 114l80 -59c-28 -46.667 -66.833 -83.667 -116.5 -111s-105.167 -41 -166.5 -41c-97.333 0 -179.5 32.667 -246.5 98s-100.5 146.333 -100.5 243c0 96 33.667 176.833 101 242.5s149.333 98.5 246 98.5z" />
    <glyph glyph-name="D" unicode="D" horiz-adv-x="692" 
d="M290 660c108.667 0 195.667 -30.333 261 -91s98 -140 98 -238c0 -97.333 -32.833 -176.833 -98.5 -238.5s-152.5 -92.5 -260.5 -92.5h-207v660h207zM289 564h-100v-469h100c76.667 0 137.667 22 183 66s68 100.667 68 170c0 70.667 -22.5 127.167 -67.5 169.5
s-106.167 63.5 -183.5 63.5z" />
    <glyph glyph-name="E" unicode="E" horiz-adv-x="569" 
d="M517 660v-95h-328v-169h247v-92h-247v-209h340v-95h-446v660h434z" />
    <glyph glyph-name="F" unicode="F" horiz-adv-x="529" 
d="M507 660v-95h-318v-197h262v-96h-262v-272h-106v660h424z" />
    <glyph glyph-name="G" unicode="G" horiz-adv-x="746" 
d="M391 671c116.667 0 207.668 -45.999 273.001 -137.999l-77 -63c-49.333 69.333 -115 104 -197 104c-70 0 -127 -23 -171 -69s-66 -104 -66 -174c0 -71.333 22.667 -130.333 68 -177s103.666 -70 174.999 -70c86.667 0 152.334 33.333 197.001 100v71h-203v94h309v-186
c-29.333 -52.667 -71.333 -94.834 -126 -126.501s-115.334 -47.5 -182.001 -47.5c-98 0 -180.5 32.667 -247.5 98s-100.5 146.333 -100.5 243c0 96 33.5 176.833 100.5 242.5s149.5 98.5 247.5 98.5z" />
    <glyph glyph-name="H" unicode="H" horiz-adv-x="711" 
d="M627 660v-660h-106v302h-332v-302h-106v660h106v-263h332v263h106z" />
    <glyph glyph-name="I" unicode="I" horiz-adv-x="272" 
d="M189 660v-660h-106v660h106z" />
    <glyph glyph-name="J" unicode="J" horiz-adv-x="381" 
d="M298 660l0.000976562 -496c0 -58.667 -16.333 -102.5 -49 -131.5s-78.334 -43.5 -137.001 -43.5c-28.667 0 -59 3.66699 -91 11v91c30 -3.33301 52.667 -5 68 -5c34.667 0 60.5 6.5 77.5 19.5s25.5 36.167 25.5 69.5v485h106z" />
    <glyph glyph-name="K" unicode="K" horiz-adv-x="651" 
d="M83 0v660h106v-660h-106zM325 351l304 -351h-131l-306 351l277 309h130z" />
    <glyph glyph-name="L" unicode="L" horiz-adv-x="515" 
d="M189 660v-565h302v-95h-408v660h106z" />
    <glyph glyph-name="M" unicode="M" horiz-adv-x="793" 
d="M674 671h36v-671h-106v414l-189 -248h-36l-190 248v-414h-106v671h37l277 -369z" />
    <glyph glyph-name="N" unicode="N" horiz-adv-x="711" 
d="M521 660h106v-671h-36l-402 457v-446h-106v671h37l401 -456v445z" />
    <glyph glyph-name="O" unicode="O" horiz-adv-x="780" 
d="M389 671c96 0 177.833 -32.833 245.5 -98.5s101.5 -146.5 101.5 -242.5s-33.833 -176.833 -101.5 -242.5s-149.5 -98.5 -245.5 -98.5c-96.667 0 -178.5 32.833 -245.5 98.5s-100.5 146.5 -100.5 242.5s33.5 176.833 100.5 242.5s148.833 98.5 245.5 98.5zM390 574
c-68.667 0 -125.335 -22.999 -170.002 -68.999s-67 -104 -67 -174c0 -70.667 22.333 -129.167 67 -175.5s101.334 -69.5 170.001 -69.5c68 0 124.5 23.167 169.5 69.5s67.5 104.833 67.5 175.5c0 69.333 -22.667 127.166 -68 173.499s-101.666 69.5 -168.999 69.5z" />
    <glyph glyph-name="P" unicode="P" horiz-adv-x="583" 
d="M324 660c66.667 0 120.667 -18.667 162 -56s62 -86 62 -146s-20.667 -108.833 -62 -146.5s-95.333 -56.5 -162 -56.5h-135v-255h-106v660h241zM322 566l-133 -0.000976562v-217h133c37.333 0 66.166 9.83301 86.499 29.5s30.5 45.834 30.5 78.501s-10.167 59 -30.5 79
s-49.166 30 -86.499 30z" />
    <glyph glyph-name="Q" unicode="Q" horiz-adv-x="780" 
d="M954 -121c17.333 0 48.667 1.33203 94 3.99902v-84c-39.333 -7.33301 -76.333 -11 -111 -11c-180.667 0 -323 73.667 -427 221c-38.667 -13.333 -79 -20 -121 -20c-96.667 0 -178.5 32.833 -245.5 98.5s-100.5 146.5 -100.5 242.5s33.5 176.833 100.5 242.5
s148.833 98.5 245.5 98.5c96 0 177.833 -32.833 245.5 -98.5s101.5 -146.5 101.5 -242.5c0 -56.667 -12.333 -108.667 -37 -156s-58.667 -86.666 -102 -117.999c45.333 -60 96.833 -104.5 154.5 -133.5s125.167 -43.5 202.5 -43.5zM153.001 330.999
c0 -70.667 22.332 -129.167 66.999 -175.5s101.334 -69.5 170.001 -69.5c68 0 124.5 23.167 169.5 69.5s67.5 104.5 67.5 174.5s-22.5 128.167 -67.5 174.5s-101.833 69.5 -170.5 69.5c-68 0 -124.333 -23 -169 -69s-67 -104 -67 -174z" />
    <glyph glyph-name="R" unicode="R" horiz-adv-x="631" 
d="M619 0h-121l-188 255h-121v-255h-106v660h241c66.667 0 120.667 -18.667 162 -56s62 -86 62 -146c0 -43.333 -11.167 -81.333 -33.5 -114s-53.5 -56.667 -93.5 -72zM189 566v-217h133c36.667 0 65.334 10 86.001 30s31 46 31 78c0 32.667 -10.333 59 -31 79
s-49.334 30 -86.001 30h-133z" />
    <glyph glyph-name="S" unicode="S" horiz-adv-x="559" 
d="M282 671c46.667 0 88.6641 -10.832 125.997 -32.499s66.333 -50.167 87 -85.5l-74 -57c-35.333 53.333 -81.666 80 -138.999 80c-28 0 -51.667 -6.83301 -71 -20.5s-29 -33.5 -29 -59.5c0 -22.667 7 -40 21 -52s37.667 -26 71 -42l74 -34
c53.333 -24.667 93 -51.334 119 -80.001s39 -64.667 39 -108c0 -57.333 -20.833 -103.5 -62.5 -138.5s-94.5 -52.5 -158.5 -52.5c-54 0 -102.667 12.667 -146 38s-77.666 60.333 -102.999 105l75 57c48.667 -70 106.334 -105 173.001 -105c34 0 61.5 8.33301 82.5 25
s31.5 39 31.5 67c0 23.333 -7.5 41.666 -22.5 54.999s-39.833 28 -74.5 44l-73 34c-48.667 22 -86.5 47.333 -113.5 76s-40.5 64.334 -40.5 107.001c0 53.333 20 96.5 60 129.5s89.333 49.5 148 49.5z" />
    <glyph glyph-name="T" unicode="T" horiz-adv-x="583" 
d="M567 660v-95h-223v-565h-106v565h-222v95h551z" />
    <glyph glyph-name="U" unicode="U" horiz-adv-x="694" 
d="M618 660l-0.000976562 -393c0 -86 -25.167 -153.833 -75.5 -203.5s-115.166 -74.5 -194.499 -74.5c-80.667 0 -146.167 24.833 -196.5 74.5s-75.5 117.5 -75.5 203.5v393h106v-400c0 -56 15.5 -99 46.5 -129s70.833 -45 119.5 -45c48 0 87.333 15 118 45s46 73 46 129
v400h106z" />
    <glyph glyph-name="V" unicode="V" horiz-adv-x="662" 
d="M521 660h119l-291 -671h-36l-291 671h119l190 -459z" />
    <glyph glyph-name="W" unicode="W" horiz-adv-x="1051" 
d="M899 660h116l-257 -671h-35l-197 468l-197 -468h-36l-257 671h117l164 -446l190 457h37l190 -457z" />
    <glyph glyph-name="X" unicode="X" horiz-adv-x="607" 
d="M584 0h-121l-160 246l-159 -246h-122l223 337l-209 323h122l146 -234l144 234h121l-205 -324z" />
    <glyph glyph-name="Y" unicode="Y" horiz-adv-x="620" 
d="M591 660l-228 -393v-267h-106v266l-228 394h118l163 -287l164 287h117z" />
    <glyph glyph-name="Z" unicode="Z" horiz-adv-x="588" 
d="M190 95h368v-95h-532v29l365 536h-322v95h488v-29z" />
    <glyph glyph-name="bracketleft" unicode="[" horiz-adv-x="350" 
d="M305 729v-88h-115v-682h115v-90h-209v860h209z" />
    <glyph glyph-name="backslash" unicode="\" horiz-adv-x="650" 
d="M5 780h117l523 -901h-117z" />
    <glyph glyph-name="bracketright" unicode="]" horiz-adv-x="350" 
d="M254 729v-860h-210v90h116v682h-116v88h210z" />
    <glyph glyph-name="asciicircum" unicode="^" horiz-adv-x="524" 
d="M469 280h-104l-103 216l-103 -216h-104l189 390h36z" />
    <glyph glyph-name="underscore" unicode="_" horiz-adv-x="504" 
d="M465 -70v-85h-426v85h426z" />
    <glyph glyph-name="a" unicode="a" horiz-adv-x="536" 
d="M265 502c60.667 0 109.33 -17.667 145.997 -53s55 -86 55 -152v-297h-98v55c-36.667 -44 -89 -66 -157 -66c-51.333 0 -92.666 13 -123.999 39s-47 60.333 -47 103s16.333 76.667 49 102s76.667 38 132 38h139v32c0 34 -9.16699 60 -27.5 78s-44.166 27 -77.499 27
c-49.333 0 -94.666 -24.333 -135.999 -73l-61 62c49.333 70 118.333 105 207 105zM232.996 70c35.333 0 65.333 11 90 33s37 49.667 37 83v9h-126c-58 0 -87 -20 -87 -60c0 -20.667 8 -36.667 24 -48s36.667 -17 62 -17z" />
    <glyph glyph-name="b" unicode="b" horiz-adv-x="631" 
d="M345 502c69.333 0 126.831 -24.5 172.498 -73.5s68.5 -110.167 68.5 -183.5s-22.667 -134.333 -68 -183s-102.666 -73 -171.999 -73c-36 0 -69.167 7 -99.5 21s-54.5 33.667 -72.5 59v-69h-98v750h105v-319c38.667 47.333 93.334 71 164.001 71zM327.998 85
c42.667 0 78.334 15 107.001 45s43 68.667 43 116c0 46.667 -14.333 85 -43 115s-64.334 45 -107.001 45c-40.667 0 -75.5 -13.833 -104.5 -41.5s-43.5 -67.5 -43.5 -119.5c0 -52.667 14.5 -92.5 43.5 -119.5s63.833 -40.5 104.5 -40.5z" />
    <glyph glyph-name="c" unicode="c" horiz-adv-x="552" 
d="M305 502c45.333 0 85.833 -10.167 121.5 -30.5s64.167 -48.166 85.5 -83.499l-74 -58c-35.333 50 -79.333 75 -132 75c-44.667 0 -81.5 -15.333 -110.5 -46s-43.5 -68.334 -43.5 -113.001c0 -46 14.5 -84.167 43.5 -114.5s65.833 -45.5 110.5 -45.5
c52 0 96 24.667 132 74l74 -57c-47.333 -76 -116.333 -114 -207 -114c-72.667 0 -134.167 24.833 -184.5 74.5s-75.5 110.5 -75.5 182.5s25.167 132.667 75.5 182s111.833 74 184.5 74z" />
    <glyph glyph-name="d" unicode="d" horiz-adv-x="631" 
d="M449 750h105.999v-750h-98v70c-38 -54 -95.333 -81 -172 -81c-69.333 0 -126.666 24.333 -171.999 73s-68 109.667 -68 183s22.667 134.5 68 183.5s102.666 73.5 171.999 73.5c70.667 0 125.334 -23.667 164.001 -71v319zM302.999 85c40.667 0 75.5 13.5 104.5 40.5
s43.5 66.833 43.5 119.5c0 52 -14.667 91.833 -44 119.5s-64 41.5 -104 41.5c-43.333 0 -79.333 -15 -108 -45s-43 -68.333 -43 -115c0 -47.333 14.333 -86 43 -116s64.667 -45 108 -45z" />
    <glyph glyph-name="e" unicode="e" horiz-adv-x="570" 
d="M526 277c0 -20.667 -2.66895 -42.665 -8.00195 -65.998h-366c6.66699 -40.667 24.334 -72.334 53.001 -95.001s64.334 -34 107.001 -34c51.333 0 99 19.333 143 58l50 -72c-56 -52.667 -121.333 -79 -196 -79c-76 0 -139 24.5 -189 73.5s-75 109.833 -75 182.5
c0 72 24.5 132.833 73.5 182.5s109.167 74.5 180.5 74.5c65.333 0 119.5 -21.333 162.5 -64s64.5 -96.334 64.5 -161.001zM294.998 413.002c-34.667 0 -64.833 -10.833 -90.5 -32.5s-42.5 -50.834 -50.5 -87.501h267c-0.666992 36.667 -13 65.834 -37 87.501
s-53.667 32.5 -89 32.5z" />
    <glyph glyph-name="f" unicode="f" horiz-adv-x="322" 
d="M295 666c-32 0 -56 -6.33203 -72 -18.999s-24 -34.667 -24 -66v-90h116v-91h-116v-400h-105v400h-70v91h70v99c0 57.333 15.667 100.166 47 128.499s74 42.5 128 42.5c26 0 48.667 -3 68 -9v-89c-16 2 -30 3 -42 3z" />
    <glyph glyph-name="g" unicode="g" horiz-adv-x="634" 
d="M461 491h97.001v-440c0 -77.333 -22.333 -137 -67 -179s-104.334 -63 -179.001 -63c-91.333 0 -170 31 -236 93l58 73c57.333 -46.667 114.666 -70 171.999 -70c44.667 0 80.334 11.833 107.001 35.5s40 58.5 40 104.5v34c-40 -46 -95.333 -69 -166 -69
c-68.667 0 -125.667 23 -171 69s-68 105 -68 177s22.667 131 68 177s102.333 69 171 69c76.667 0 134.667 -27 174 -81v70zM306.001 102c40.667 0 75.5 13.333 104.5 40s43.5 65 43.5 115s-14.5 87.667 -43.5 113s-63.833 38 -104.5 38c-42.667 0 -78.334 -14 -107.001 -42
s-43 -64.667 -43 -110c0 -46 14.333 -83.167 43 -111.5s64.334 -42.5 107.001 -42.5z" />
    <glyph glyph-name="h" unicode="h" horiz-adv-x="575" 
d="M323 502c56 0 100.334 -18.001 133.001 -54.001s49 -83 49 -141v-307h-105v292c0 34 -9.66699 61.5 -29 82.5s-45.333 31.5 -78 31.5s-59.5 -10.667 -80.5 -32s-31.5 -48.666 -31.5 -81.999v-292h-105v750h105v-307c35.333 39.333 82.666 59 141.999 59z" />
    <glyph glyph-name="i" unicode="i" horiz-adv-x="257" 
d="M129 744c19.333 0 36 -6.83301 50 -20.5s21 -30.167 21 -49.5s-7 -35.666 -21 -48.999s-30.667 -20 -50 -20c-20 0 -37 6.66699 -51 20s-21 29.666 -21 48.999s7 35.833 21 49.5s31 20.5 51 20.5zM181 491v-491h-105v491h105z" />
    <glyph glyph-name="j" unicode="j" horiz-adv-x="257" 
d="M129 744c19.333 0 36 -6.83301 50 -20.5s21 -30.167 21 -49.5s-7 -35.666 -21 -48.999s-30.667 -20 -50 -20c-20 0 -37 6.66699 -51 20s-21 29.666 -21 48.999s7 35.833 21 49.5s31 20.5 51 20.5zM181 491v-511.001c0 -57.333 -15.5 -100.166 -46.5 -128.499
s-73.5 -42.5 -127.5 -42.5c-27.333 0 -50 3 -68 9v89c16 -2 30.333 -3 43 -3c31.333 0 54.833 6.5 70.5 19.5s23.5 34.833 23.5 65.5v502h105z" />
    <glyph glyph-name="k" unicode="k" horiz-adv-x="533" 
d="M76 0v750h105v-750h-105zM308 275l215 -275h-126l-213 276l192 215h130z" />
    <glyph glyph-name="l" unicode="l" horiz-adv-x="257" 
d="M181 750v-750h-105v750h105z" />
    <glyph glyph-name="m" unicode="m" horiz-adv-x="883" 
d="M631 502c56.667 0 101.167 -17.833 133.5 -53.5s48.5 -82.834 48.5 -141.501v-307h-106v292c0 34.667 -9.16699 62.334 -27.5 83.001s-43.166 31 -74.499 31c-32 0 -58 -10.333 -78 -31s-30 -46.667 -30 -78v-297h-105v292c0 34 -9.33301 61.5 -28 82.5
s-43.667 31.5 -75 31.5c-32 0 -58 -10.5 -78 -31.5s-30 -48.5 -30 -82.5v-292h-105v491h98v-47c35.333 38.667 82.666 58 141.999 58c68 0 117.667 -25.667 149 -77c40 51.333 95.333 77 166 77z" />
    <glyph glyph-name="n" unicode="n" horiz-adv-x="575" 
d="M321 502c57.333 0 102.333 -17.833 135 -53.5s49 -82.834 49 -141.501v-307h-105v293c0 34 -9.83301 61.5 -29.5 82.5s-45.5 31.5 -77.5 31.5c-32.667 0 -59.5 -10.667 -80.5 -32s-31.5 -48.666 -31.5 -81.999v-293h-105v491h98v-49c36.667 40 85.667 60 147 60z" />
    <glyph glyph-name="o" unicode="o" horiz-adv-x="609" 
d="M304 502c72 0 133.5 -24.667 184.5 -74s76.5 -110 76.5 -182s-25.5 -132.833 -76.5 -182.5s-112.5 -74.5 -184.5 -74.5c-72.667 0.666992 -134 25.667 -184 75s-75 110 -75 182s25 132.667 75 182s111.333 74 184 74zM305 406
c-44 -0.666992 -80.499 -16.167 -109.499 -46.5s-43.5 -68.5 -43.5 -114.5c0 -45.333 14.333 -83.166 43 -113.499s65 -45.5 109 -45.5c43.333 0 79.666 15.167 108.999 45.5s44 68.166 44 113.499c0 46 -14.5 84.167 -43.5 114.5s-65.167 45.833 -108.5 46.5z" />
    <glyph glyph-name="p" unicode="p" horiz-adv-x="631" 
d="M345 502c70 0 127.667 -24.332 173 -72.999s68 -109.667 68 -183c0 -74 -22.667 -135.333 -68 -184s-103 -73 -173 -73s-124.667 23.333 -164 70v-239h-105v671h98v-70c18 25.333 42 45.166 72 59.499s63 21.5 99 21.5zM328 85.001c42.667 0 78.334 15 107.001 45
s43 68.333 43 115c0 47.333 -14.333 86 -43 116s-64.334 45 -107.001 45c-40.667 0 -75.5 -13.5 -104.5 -40.5s-43.5 -66.833 -43.5 -119.5c0 -52 14.5 -91.833 43.5 -119.5s63.833 -41.5 104.5 -41.5z" />
    <glyph glyph-name="q" unicode="q" horiz-adv-x="631" 
d="M457 491h98.001v-671h-106v239c-38.667 -46.667 -93.334 -70 -164.001 -70c-69.333 0 -126.666 24.333 -171.999 73s-68 110 -68 184c0 73.333 22.667 134.333 68 183s102.666 73 171.999 73c76.667 0 134 -27 172 -81v70zM303.001 85c40 0 74.667 13.833 104 41.5
s44 67.5 44 119.5c0 52.667 -14.5 92.5 -43.5 119.5s-63.833 40.5 -104.5 40.5c-43.333 0 -79.333 -15.167 -108 -45.5s-43 -68.833 -43 -115.5s14.333 -85 43 -115s64.667 -45 108 -45z" />
    <glyph glyph-name="r" unicode="r" horiz-adv-x="375" 
d="M317 496c14.667 0 27.998 -1.66699 39.998 -5v-93h-32c-41.333 0 -75.666 -11.833 -102.999 -35.5s-41 -57.167 -41 -100.5v-262h-105v491h98v-64c34.667 46 82.334 69 143.001 69z" />
    <glyph glyph-name="s" unicode="s" horiz-adv-x="455" 
d="M233 502c70.667 0 127.333 -25.3359 170 -76.0029l-57 -65c-32 33.333 -70.333 50 -115 50s-67 -15.667 -67 -47c0 -12.667 4.83301 -23.167 14.5 -31.5s26.5 -17.166 50.5 -26.499l47 -19c46.667 -19.333 80.667 -40.166 102 -62.499s32 -50.833 32 -85.5
c0 -47.333 -17.333 -84.166 -52 -110.499s-78 -39.5 -130 -39.5c-83.333 0 -149.333 31.667 -198 95l60 66c44.667 -46.667 90.667 -70 138 -70c22.667 0 41.5 4.66699 56.5 14s22.5 23 22.5 41c0 14.667 -5.5 26 -16.5 34s-28.5 17 -52.5 27l-50 21
c-43.333 18 -75.5 37.667 -96.5 59s-31.5 49.333 -31.5 84c0 44 16.333 78.667 49 104s74 38 124 38z" />
    <glyph glyph-name="t" unicode="t" horiz-adv-x="398" 
d="M303 84c14.667 0 36.333 1.66797 65 5.00098v-89c-33.333 -7.33301 -62.333 -11 -87 -11c-56.667 0 -101 14.167 -133 42.5s-48 71.166 -48 128.499v240h-80v91h80v129h106v-129h146v-91h-146v-231c0 -31.333 8.16699 -53.333 24.5 -66s40.5 -19 72.5 -19z" />
    <glyph glyph-name="u" unicode="u" horiz-adv-x="570" 
d="M499 491l-0.00195312 -285c0 -65.333 -20.167 -117.833 -60.5 -157.5s-91.166 -59.5 -152.499 -59.5c-62 0 -113.333 19.833 -154 59.5s-61 92.167 -61 157.5v285h104v-293c0 -34 10.5 -61.167 31.5 -81.5s47.5 -30.5 79.5 -30.5c30.667 0 56.334 10.167 77.001 30.5
s31 47.5 31 81.5v293h105z" />
    <glyph glyph-name="v" unicode="v" horiz-adv-x="549" 
d="M418 491h112l-237 -502h-36l-238 502h112l143 -325z" />
    <glyph glyph-name="w" unicode="w" horiz-adv-x="854" 
d="M723 491h112l-218 -502h-36l-154 327l-154 -327h-36l-218 502h112l129 -321l149 332h36l151 -328z" />
    <glyph glyph-name="x" unicode="x" horiz-adv-x="514" 
d="M499 0h-120l-122 178l-123 -178h-120l183 255l-170 236h120l110 -160l109 160h120l-171 -236z" />
    <glyph glyph-name="y" unicode="y" horiz-adv-x="549" 
d="M418 491l112.001 0.00195312l-239 -547c-20.667 -46.667 -45.334 -80.834 -74.001 -102.501s-64 -32.5 -106 -32.5c-27.333 0 -54.333 3.33301 -81 10v89c30.667 -2.66699 50 -4 58 -4c24.667 0 45.667 5.16699 63 15.5s32 29.166 44 56.499l20 46l-196 469h113l141 -358
z" />
    <glyph glyph-name="z" unicode="z" horiz-adv-x="461" 
d="M179 91h260v-91h-417v29l257 371h-234v91h392v-30z" />
    <glyph glyph-name="braceleft" unicode="{" horiz-adv-x="404" 
d="M307 641c-47.333 0 -71 -24.668 -71 -74.001c0 -16 4 -46 12 -90s12 -74.667 12 -92c0 -43.333 -21 -72 -63 -86c22 -7.33301 38 -17.5 48 -30.5s15 -31.167 15 -54.5c0 -17.333 -4 -48 -12 -92s-12 -74 -12 -90c0 -50 23.667 -75 71 -75h53v-88h-72
c-97.333 0 -146 45.667 -146 137c0 23.333 4 58.333 12 105s12 76 12 88c0 36.667 -19 55 -57 55h-60v91h60c38 0 57 18 57 54c0 12.667 -4 42.334 -12 89.001s-12 81.667 -12 105c0 90.667 48.667 136 146 136h72v-88h-53z" />
    <glyph glyph-name="bar" unicode="|" horiz-adv-x="332" 
d="M210 780v-901h-88v901h88z" />
    <glyph glyph-name="braceright" unicode="}" horiz-adv-x="404" 
d="M296 345l59 0.000976562v-91h-59c-38.667 0 -58 -18.333 -58 -55c0 -12 4 -41.333 12 -88s12 -81.667 12 -105c0 -91.333 -48.667 -137 -146 -137h-72v88h54c46.667 0 70 25 70 75c0 16 -4 46 -12 90s-12 74.667 -12 92c0 42.667 21 71 63 85c-42 14 -63 42.667 -63 86
c0 17.333 4 48 12 92s12 74 12 90c0 49.333 -23.333 74 -70 74h-54v88h72c97.333 0 146 -45.333 146 -136c0 -23.333 -4 -58.333 -12 -105s-12 -76.334 -12 -89.001c0 -36 19.333 -54 58 -54z" />
    <glyph glyph-name="asciitilde" unicode="~" 
d="M157 417c25.333 0 53.335 -8.66602 84.002 -25.999l91 -56c29.333 -16 49 -24 59 -24c11.333 0 20 4 26 12s9 18 9 30v17h83c1.33301 -8 2 -18 2 -30c0 -36 -10.167 -65.667 -30.5 -89s-46.5 -35 -78.5 -35c-26.667 0 -54.334 8.66699 -83.001 26l-91 55
c-26.667 16.667 -46.334 25 -59.001 25c-11.333 0 -20.166 -3.83301 -26.499 -11.5s-9.5 -17.834 -9.5 -30.501v-17h-82c-1.33301 8 -2 18 -2 30c0 35.333 10.167 64.833 30.5 88.5s46.166 35.5 77.499 35.5z" />
    <glyph glyph-name="cent" unicode="&#xa2;" horiz-adv-x="555" 
d="M328 170c38.667 8 72.001 32 100.001 72l73 -58c-40 -64.667 -97.667 -102 -173 -112v-167h-98v173c-57.333 13.333 -104.166 43 -140.499 89s-54.5 99.333 -54.5 160c0 60 18.167 113 54.5 159s83.166 76 140.499 90v173h98v-168c76 -8.66699 134 -45.667 174 -111
l-73 -58c-28.667 40 -62.334 63.667 -101.001 71v-313zM142.001 327c0 -32.667 8 -62 24 -88s37.333 -45.333 64 -58v291c-26.667 -12 -48 -31 -64 -57s-24 -55.333 -24 -88z" />
    <glyph glyph-name="sterling" unicode="&#xa3;" horiz-adv-x="548" 
d="M288 215c0 -48.667 -14.9971 -90.0029 -44.9971 -124.003h261v-91h-455v24c88.667 60 133 123.333 133 190c0 2.66699 -0.166992 6.33398 -0.5 11.001s-0.5 8 -0.5 10h-122v91h89c-1.33301 2.66699 -4.83301 9.33398 -10.5 20.001s-9.5 18 -11.5 22
s-5.33301 10.833 -10 20.5s-7.83398 17.5 -9.50098 23.5s-3.83398 13.5 -6.50098 22.5s-4.5 17.833 -5.5 26.5s-1.5 17.667 -1.5 27c0 54.667 19.167 98.834 57.5 132.501s87.166 50.5 146.499 50.5c53.333 0 98.833 -14.667 136.5 -44s64.167 -72 79.5 -128l-91 -33
c-22 72 -61.667 108 -119 108c-32 0 -57 -9.66699 -75 -29s-27 -44 -27 -74c0 -12.667 2 -26 6 -40s8 -25 12 -33s10.5 -20.5 19.5 -37.5s15.167 -28.5 18.5 -34.5h160v-91h-130c0 -2 0.166992 -5.16699 0.5 -9.5s0.5 -7.83301 0.5 -10.5z" />
    <glyph glyph-name="currency" unicode="&#xa4;" horiz-adv-x="649" 
d="M562 330c0 -48 -14.334 -92.332 -43.001 -132.999l108 -109l-63 -63l-111 112c-40 -24.667 -83.333 -37 -130 -37c-47.333 0.666992 -90.333 12.667 -129 36l-108 -111l-64 63l106 109c-28.667 39.333 -43 83.666 -43 132.999c0 48.667 14.333 92.667 43 132l-106 108
l64 63l108 -110c40 24.667 83 37 129 37c46.667 0 90.334 -12.333 131.001 -37l109 110l64 -63l-108 -108c28.667 -39.333 43 -83.333 43 -132zM322.999 197.001c37.333 0 68.5 12.668 93.5 38.001s37.5 56.666 37.5 93.999c0 38.667 -12.5 70.667 -37.5 96
s-56.167 38 -93.5 38c-38 0 -69.167 -12.667 -93.5 -38s-36.5 -57.333 -36.5 -96c0 -38 12.167 -69.5 36.5 -94.5s55.5 -37.5 93.5 -37.5z" />
    <glyph glyph-name="yen" unicode="&#xa5;" horiz-adv-x="575" 
d="M569 660l-204 -292h164v-89h-188v-77h188v-88h-188v-114h-106v114h-187v88h187v77h-187v89h163l-204 292h118l163 -236l163 236h118z" />
    <glyph glyph-name="brokenbar" unicode="&#xa6;" horiz-adv-x="332" 
d="M210 780v-300h-88v300h88zM210 179v-300h-88v300h88z" />
    <glyph glyph-name="section" unicode="&#xa7;" horiz-adv-x="590" 
d="M558 179c0 -34.667 -10.6699 -63.6709 -32.0029 -87.0039s-50.666 -39.333 -87.999 -48c0 -2 0.166992 -5 0.5 -9s0.5 -7 0.5 -9c0 -44 -15.833 -80.333 -47.5 -109s-73.834 -43 -126.501 -43c-78 0 -139.333 32.333 -184 97l71 58c34.667 -42 73 -63 115 -63
c46 0 69 19.333 69 58c0 14 -4.33301 27.333 -13 40s-17.5 22.834 -26.5 30.501s-24.5 19.834 -46.5 36.501l-99 76c-41.333 29.333 -71.5 56.5 -90.5 81.5s-28.5 52.833 -28.5 83.5c0 34 10.833 62.833 32.5 86.5s50.834 39.834 87.501 48.501c0 2 -0.166992 5 -0.5 9
s-0.5 7 -0.5 9c0 44 16 80.333 48 109s74.333 43 127 43c77.333 0 138.333 -32.333 183 -97l-71 -59c-34 42 -72.333 63 -115 63c-46 0 -69 -19 -69 -57c0 -14 4.33301 -27.5 13 -40.5s17.334 -23.167 26.001 -30.5s24.334 -19.666 47.001 -36.999l99 -75
c41.333 -29.333 71.5 -56.333 90.5 -81s28.5 -52.667 28.5 -84zM407.997 116.996c32 12.667 48.001 33 48.001 61c0 14 -5.16699 27 -15.5 39s-30.833 29.333 -61.5 52l-102 78c-44.667 32 -76.334 60.667 -95.001 86c-31.333 -12 -47 -32 -47 -60c0 -14 5 -27 15 -39
s30.333 -29.667 61 -53l99 -75c48 -35.333 80.667 -65 98 -89z" />
    <glyph glyph-name="dieresis" unicode="&#xa8;" horiz-adv-x="420" 
d="M98 740c18.667 0 34.5 -6.33301 47.5 -19s19.5 -28.334 19.5 -47.001c0 -17.333 -6.5 -32.5 -19.5 -45.5s-28.833 -19.5 -47.5 -19.5c-18 0 -33.833 6.5 -47.5 19.5s-20.5 28.167 -20.5 45.5c0 18.667 6.83301 34.334 20.5 47.001s29.5 19 47.5 19zM322 740
c19.333 0 35.5 -6.33301 48.5 -19s19.5 -28.334 19.5 -47.001c0 -17.333 -6.66699 -32.5 -20 -45.5s-29.333 -19.5 -48 -19.5c-17.333 0 -32.833 6.5 -46.5 19.5s-20.5 28.167 -20.5 45.5c0 18.667 6.83301 34.334 20.5 47.001s29.167 19 46.5 19z" />
    <glyph glyph-name="copyright" unicode="&#xa9;" horiz-adv-x="780" 
d="M389 671c94.667 0 176.167 -33 244.5 -99s102.5 -146.667 102.5 -242c0 -96 -34 -176.833 -102 -242.5s-149.667 -98.5 -245 -98.5s-176.833 32.833 -244.5 98.5s-101.5 146.5 -101.5 242.5s34 176.833 102 242.5s149.333 98.5 244 98.5zM389 604
c-74.667 0 -138.667 -25.667 -192 -77s-80 -117 -80 -197c0 -80.667 26.5 -146.5 79.5 -197.5s117.167 -76.5 192.5 -76.5c74.667 0 139 25.667 193 77s81 117 81 197s-26.833 145.667 -80.5 197s-118.167 77 -193.5 77zM398 519c62 0 112.666 -25.999 151.999 -77.999
l-60 -52c-24.667 33.333 -54.667 50 -90 50c-30.667 0 -55.667 -10.333 -75 -31s-29 -46.667 -29 -78c0 -30.667 9.66699 -56.334 29 -77.001s44 -31 74 -31c36.667 0 67 16.333 91 49l60 -52c-39.333 -51.333 -90.333 -77 -153 -77c-53.333 0 -98.166 18 -134.499 54
s-54.5 80.667 -54.5 134c0 54 18.167 99 54.5 135s81.5 54 135.5 54z" />
    <glyph glyph-name="guillemotleft" unicode="&#xab;" horiz-adv-x="550" 
d="M220 485l68 -60l-138 -153l138 -155l-68 -59l-186 199v29zM447 485l68 -60l-138 -153l138 -155l-68 -59l-186 199v29z" />
    <glyph glyph-name="logicalnot" unicode="&#xac;" 
d="M478 363v-264h-101v173h-328v91h429z" />
    <glyph glyph-name="uni00AD" unicode="&#xad;" horiz-adv-x="344" 
d="M295 362v-89h-246v89h246z" />
    <glyph glyph-name="registered" unicode="&#xae;" horiz-adv-x="572" 
d="M287 688c68 0 126.167 -24.833 174.5 -74.5s72.5 -109.167 72.5 -178.5s-24.167 -128.666 -72.5 -177.999s-106.5 -74 -174.5 -74c-68.667 0 -127.334 24.667 -176.001 74s-73 108.666 -73 177.999s24.333 128.833 73 178.5s107.334 74.5 176.001 74.5zM287 240
c52.667 0 97.334 18.833 134.001 56.5s55 84.167 55 139.5s-18.333 101.666 -55 138.999s-81.334 56 -134.001 56c-53.333 0 -98.166 -18.667 -134.499 -56s-54.5 -83.666 -54.5 -138.999s18.167 -101.833 54.5 -139.5s81.166 -56.5 134.499 -56.5zM387 475
c0 -30.667 -13.332 -54.333 -39.999 -71l68 -94h-71l-61 79h-31v-79h-64v251h103c27.333 0 50.166 -7.83301 68.499 -23.5s27.5 -36.5 27.5 -62.5zM252.001 505.001v-60h38c9.33301 0 16.833 2.66699 22.5 8s8.5 12.333 8.5 21c0 9.33301 -2.83301 16.833 -8.5 22.5
s-13.167 8.5 -22.5 8.5h-38z" />
    <glyph glyph-name="degree" unicode="&#xb0;" horiz-adv-x="361" 
d="M180 671c42.667 0 78.834 -14.667 108.501 -44s44.5 -64.666 44.5 -105.999s-14.833 -76.666 -44.5 -105.999s-65.834 -44 -108.501 -44s-78.667 14.667 -108 44s-44 64.666 -44 105.999s14.667 76.666 44 105.999s65.333 44 108 44zM180 598
c-20.667 0 -38.334 -7.5 -53.001 -22.5s-22 -33.167 -22 -54.5s7.33301 -39.5 22 -54.5s32.334 -22.5 53.001 -22.5c22 0 40.167 7.33301 54.5 22s21.5 33 21.5 55s-7.16699 40.333 -21.5 55s-32.5 22 -54.5 22z" />
    <glyph glyph-name="plusminus" unicode="&#xb1;" 
d="M332 546v-145h168v-88h-168v-151h-103v151h-168v88h168v145h103zM500 88v-88h-439v88h439z" />
    <glyph glyph-name="uni00B2" unicode="&#xb2;" horiz-adv-x="376" 
d="M184 439l152.999 0.000976562v-75h-303v18l148 160c38.667 42.667 58 78 58 106c0 18 -5.33301 33 -16 45s-24.667 18 -42 18c-18 0 -32.5 -6 -43.5 -18s-16.5 -27.667 -16.5 -47c0 -4.66699 0.666992 -15 2 -31h-82c-2.66699 10.667 -4 22.667 -4 36
c0 36 13.333 67.667 40 95s61.334 41 104.001 41c41.333 0 75.5 -12.5 102.5 -37.5s40.5 -56.5 40.5 -94.5c0 -28 -7.33301 -53.833 -22 -77.5s-37 -51.834 -67 -84.501z" />
    <glyph glyph-name="uni00B3" unicode="&#xb3;" horiz-adv-x="357" 
d="M220 627c27.333 -6.66699 50.833 -21 70.5 -43s29.5 -50 29.5 -84c0 -42 -15 -76.333 -45 -103s-66.667 -40 -110 -40c-34 0 -64 8.5 -90 25.5s-46 39.5 -60 67.5l58 41c23.333 -38.667 53 -58 89 -58c21.333 0 38.833 6 52.5 18s20.5 28.333 20.5 49
c0 40.667 -28.667 61 -86 61h-45v21l88 123h-146v75h266v-23z" />
    <glyph glyph-name="uni00B5" unicode="&#xb5;" horiz-adv-x="601" 
d="M555 86l28 2v-88c-19.333 -5.33301 -40 -8 -62 -8c-48.667 0 -82 18.333 -100 55c-30 -38.667 -71 -58 -123 -58c-48 0 -87 17 -117 51v-220h-105v671h105v-288c0 -35.333 10.333 -63.833 31 -85.5s46.667 -32.5 78 -32.5c32 0 58.333 10.833 79 32.5s31 50.167 31 85.5
v288h105v-337c0 -45.333 16.667 -68 50 -68z" />
    <glyph glyph-name="paragraph" unicode="&#xb6;" horiz-adv-x="588" 
d="M338 660v-433h-60c-70 0 -127.833 20 -173.5 60s-68.5 92.667 -68.5 158c0 64.667 22.833 116.667 68.5 156s103.5 59 173.5 59h60zM505 660v-673.998c0 -118 -60.667 -177 -182 -177c-25.333 0 -54 3.66699 -86 11v90c6 -0.666992 13.667 -1.33398 23 -2.00098
s17.333 -1.33398 24 -2.00098s12.667 -1 18 -1c32.667 0 57.167 6.83301 73.5 20.5s24.5 37.167 24.5 70.5v664h105z" />
    <glyph glyph-name="periodcentered" unicode="&#xb7;" horiz-adv-x="270" 
d="M136 394c22 0 40.333 -7.33301 55 -22s22 -33 22 -55s-7.5 -40.5 -22.5 -55.5s-33.167 -22.5 -54.5 -22.5c-22 0 -40.667 7.5 -56 22.5s-23 33.5 -23 55.5s7.66699 40.333 23 55s34 22 56 22z" />
    <glyph glyph-name="uni00B9" unicode="&#xb9;" horiz-adv-x="361" 
d="M232 780v-341h88v-75h-275v75h104v266h-98v75h181z" />
    <glyph glyph-name="guillemotright" unicode="&#xbb;" horiz-adv-x="550" 
d="M103 485l186 -199v-29l-186 -199l-68 59l138 155l-138 153zM330 485l186 -199v-29l-186 -199l-68 59l138 155l-138 153z" />
    <glyph glyph-name="onequarter" unicode="&#xbc;" horiz-adv-x="911" 
d="M320 319v-75h-275v75h104v266h-98v75h181v-341h88zM628 660h89l-379 -660h-88zM897 137v-68h-53v-69h-76v69h-209v22l127 325h85l-110 -279h107v120h76v-120h53z" />
    <glyph glyph-name="onehalf" unicode="&#xbd;" horiz-adv-x="947" 
d="M320 319v-75h-275v75h104v266h-98v75h181v-341h88zM628 660h89l-379 -660h-88zM754 75l152.999 0.000976562v-75h-303v18l148 160c38.667 42.667 58 78 58 106c0 18 -5.33301 33 -16 45s-24.667 18 -42 18c-18 0 -32.5 -6 -43.5 -18s-16.5 -27.667 -16.5 -47
c0 -4.66699 0.666992 -15 2 -31h-82c-2.66699 10.667 -4 22.667 -4 36c0 36 13.333 67.667 40 95s61.334 41 104.001 41c41.333 0 75.5 -12.5 102.5 -37.5s40.5 -56.5 40.5 -94.5c0 -28 -7.33301 -53.833 -22 -77.5s-37 -51.834 -67 -84.501z" />
    <glyph glyph-name="threequarters" unicode="&#xbe;" horiz-adv-x="872" 
d="M320 380c0 -42 -15 -76.333 -45 -103s-66.667 -40 -110 -40c-34 0 -64 8.5 -90 25.5s-46 39.5 -60 67.5l58 41c23.333 -38.667 53 -58 89 -58c21.333 0 38.833 6 52.5 18s20.5 28.333 20.5 49c0 40.667 -28.667 61 -86 61h-45v21l88 123h-146v75h266v-23l-92 -130
c27.333 -7.33301 50.833 -21.833 70.5 -43.5s29.5 -49.5 29.5 -83.5zM589 660h89l-379 -660h-88zM858 137v-68h-53v-69h-76v69h-209v22l127 325h85l-110 -279h107v120h76v-120h53z" />
    <glyph glyph-name="multiply" unicode="&#xd7;" 
d="M432 534l63 -63l-152 -152l152 -152l-63 -63l-152 151l-152 -151l-63 63l151 152l-151 152l63 63l152 -151z" />
    <glyph glyph-name="divide" unicode="&#xf7;" 
d="M278 564c19.333 0 35.5 -6.16699 48.5 -18.5s19.5 -27.833 19.5 -46.5c0 -18 -6.66699 -33.333 -20 -46s-29.333 -19 -48 -19s-34.667 6.33301 -48 19s-20 28 -20 46s6.66699 33.333 20 46s29.333 19 48 19zM509 363v-91h-459v91h459zM278 199
c19.333 0 35.5 -6.16699 48.5 -18.5s19.5 -27.833 19.5 -46.5s-6.5 -34.167 -19.5 -46.5s-29.167 -18.5 -48.5 -18.5c-18.667 0 -34.667 6.33301 -48 19s-20 28 -20 46s6.66699 33.333 20 46s29.333 19 48 19z" />
    <glyph glyph-name="florin" unicode="&#x192;" horiz-adv-x="447" 
d="M380 671c27.333 0 49.002 -3 65.002 -9v-88c-21.333 1.33301 -36.333 2 -45 2c-30 0 -52.667 -6.5 -68 -19.5s-25 -34.833 -29 -65.5l-11 -89h99v-91h-110l-33 -273c-14.667 -114 -75 -171 -181 -171c-20.667 0 -42.334 2.66699 -65.001 8l-1 89
c16.667 -2 31.667 -3 45 -3c30 0 52.833 6.66699 68.5 20s25.5 35.333 29.5 66l32 264h-75v91h86l12 98c13.333 114 73.666 171 180.999 171z" />
    <glyph glyph-name="uni030C" unicode="&#x30c;" horiz-adv-x="0" 
d="M-30 750l-44 -208h-76l9 208h111z" />
    <glyph glyph-name="dieresistonos" unicode="&#x385;" horiz-adv-x="555" 
d="M347 780v-19l-48 -193h-75v212h123zM108 740c18.667 0 34.5 -6.33301 47.5 -19s19.5 -28.334 19.5 -47.001c0 -17.333 -6.5 -32.5 -19.5 -45.5s-28.833 -19.5 -47.5 -19.5c-17.333 0 -32.833 6.5 -46.5 19.5s-20.5 28.167 -20.5 45.5
c0 18.667 6.83301 34.334 20.5 47.001s29.167 19 46.5 19zM448 740c18.667 0 34.667 -6.33301 48 -19s20 -28.334 20 -47.001c0 -17.333 -6.66699 -32.5 -20 -45.5s-29.333 -19.5 -48 -19.5c-17.333 0 -32.833 6.5 -46.5 19.5s-20.5 28.167 -20.5 45.5
c0 18.667 6.83301 34.334 20.5 47.001s29.167 19 46.5 19z" />
    <glyph glyph-name="Alphatonos" unicode="&#x386;" horiz-adv-x="662" 
d="M149 720l-44 -208h-76l9 208h111zM526 0l-47 110h-297l-47 -110h-113l291 671h36l291 -671h-114zM440 201l-109 274l-110 -274h219z" />
    <glyph glyph-name="Epsilontonos" unicode="&#x388;" horiz-adv-x="569" 
d="M19 720l-44 -208h-76l9 208h111zM517 660v-95h-328v-169h247v-92h-247v-209h340v-95h-446v660h434z" />
    <glyph glyph-name="Etatonos" unicode="&#x389;" horiz-adv-x="711" 
d="M19 720l-44 -208h-76l9 208h111zM627 660v-660h-106v302h-332v-302h-106v660h106v-263h332v263h106z" />
    <glyph glyph-name="Iotatonos" unicode="&#x38a;" horiz-adv-x="272" 
d="M19 720l-44 -208h-76l9 208h111zM189 660v-660h-106v660h106z" />
    <glyph glyph-name="Omicrontonos" unicode="&#x38c;" horiz-adv-x="780" 
d="M54 720l-44 -208h-76l9 208h111zM389 671c96 0 177.833 -32.833 245.5 -98.5s101.5 -146.5 101.5 -242.5s-33.833 -176.833 -101.5 -242.5s-149.5 -98.5 -245.5 -98.5c-96.667 0 -178.5 32.833 -245.5 98.5s-100.5 146.5 -100.5 242.5s33.5 176.833 100.5 242.5
s148.833 98.5 245.5 98.5zM390 574c-68.667 0 -125.335 -22.999 -170.002 -68.999s-67 -104 -67 -174c0 -70.667 22.333 -129.167 67 -175.5s101.334 -69.5 170.001 -69.5c68 0 124.5 23.167 169.5 69.5s67.5 104.833 67.5 175.5c0 69.333 -22.667 127.166 -68 173.499
s-101.666 69.5 -168.999 69.5z" />
    <glyph glyph-name="Upsilontonos" unicode="&#x38e;" horiz-adv-x="620" 
d="M-157 512l9 208h111l-44 -208h-76zM591 660l-228 -393v-267h-106v266l-228 394h118l163 -287l164 287h117z" />
    <glyph glyph-name="Omegatonos" unicode="&#x38f;" horiz-adv-x="790" 
d="M-57 720h111l-44 -208h-76zM741 345c0 -98.667 -46.333 -182 -139 -250h129v-95h-276v95c118 56 177 137.667 177 245c0 68 -22.5 124 -67.5 168s-101.833 66 -170.5 66c-68 0 -124.333 -21.667 -169 -65s-67 -99.333 -67 -168c0 -107.333 59 -189.333 177 -246v-95h-277
v95h125c-90 66.667 -135 150 -135 250c0 92.667 33.5 170.167 100.5 232.5s148.833 93.5 245.5 93.5c96 0 177.833 -31.333 245.5 -94s101.5 -140 101.5 -232z" />
    <glyph glyph-name="iotadieresistonos" unicode="&#x390;" horiz-adv-x="299" 
d="M208 780v-19l-48 -193h-75v212h123zM-31 740c18.667 0 34.5 -6.33301 47.5 -19s19.5 -28.334 19.5 -47.001c0 -17.333 -6.5 -32.5 -19.5 -45.5s-28.833 -19.5 -47.5 -19.5c-17.333 0 -32.833 6.5 -46.5 19.5s-20.5 28.167 -20.5 45.5
c0 18.667 6.83301 34.334 20.5 47.001s29.167 19 46.5 19zM309 740c18.667 0 34.667 -6.33301 48 -19s20 -28.334 20 -47.001c0 -17.333 -6.66699 -32.5 -20 -45.5s-29.333 -19.5 -48 -19.5c-17.333 0 -32.833 6.5 -46.5 19.5s-20.5 28.167 -20.5 45.5
c0 18.667 6.83301 34.334 20.5 47.001s29.167 19 46.5 19zM179 491v-327c0 -28.667 5.16699 -49.167 15.5 -61.5s26.5 -18.5 48.5 -18.5c5.33301 0 17.333 0.666992 36 2v-89c-17.333 -5.33301 -38.333 -8 -63 -8c-95.333 0 -143 53.667 -143 161v341h106z" />
    <glyph glyph-name="Alpha" unicode="&#x391;" horiz-adv-x="662" 
d="M526 0l-47 110h-297l-47 -110h-113l291 671h36l291 -671h-114zM440 201l-109 274l-110 -274h219z" />
    <glyph glyph-name="Beta" unicode="&#x392;" horiz-adv-x="618" 
d="M456 360c39.333 -12.667 69.834 -33.668 91.501 -63.001s32.5 -64.333 32.5 -105c0 -56 -19.667 -102 -59 -138s-91 -54 -155 -54h-283v660h231c59.333 0 107.166 -16.333 143.499 -49s54.5 -75 54.5 -127c0 -51.333 -18.667 -92.666 -56 -123.999zM304.001 566.999
l-117 0.000976562v-178h117c32.667 0 57.834 8.16699 75.501 24.5s26.5 38.166 26.5 65.499s-8.83301 48.833 -26.5 64.5s-42.834 23.5 -75.501 23.5zM357.001 93c36.667 0 65.167 9.16797 85.5 27.501s30.5 43.166 30.5 74.499s-10.167 56.333 -30.5 75
s-48.833 28 -85.5 28h-170v-205h170z" />
    <glyph glyph-name="Gamma" unicode="&#x393;" horiz-adv-x="515" 
d="M189 0h-106v660h408v-95h-302v-565z" />
    <glyph glyph-name="Delta" unicode="&#x394;" horiz-adv-x="662" 
d="M349 671l291 -671h-618l291 671h36zM486 95l-155 365l-155 -365h310z" />
    <glyph glyph-name="Epsilon" unicode="&#x395;" horiz-adv-x="569" 
d="M517 660v-95h-328v-169h247v-92h-247v-209h340v-95h-446v660h434z" />
    <glyph glyph-name="Zeta" unicode="&#x396;" horiz-adv-x="588" 
d="M190 95h368v-95h-532v29l365 536h-322v95h488v-29z" />
    <glyph glyph-name="Eta" unicode="&#x397;" horiz-adv-x="711" 
d="M627 660v-660h-106v302h-332v-302h-106v660h106v-263h332v263h106z" />
    <glyph glyph-name="Theta" unicode="&#x398;" horiz-adv-x="780" 
d="M389 671c96 0 177.833 -32.833 245.5 -98.5s101.5 -146.5 101.5 -242.5s-33.833 -176.833 -101.5 -242.5s-149.5 -98.5 -245.5 -98.5c-96.667 0 -178.5 32.833 -245.5 98.5s-100.5 146.5 -100.5 242.5s33.5 176.833 100.5 242.5s148.833 98.5 245.5 98.5zM389 579
c-70 0 -127.833 -23.499 -173.5 -70.499s-68.5 -106.5 -68.5 -178.5s23 -131.5 69 -178.5s103.667 -70.5 173 -70.5c70 0 128.167 23.5 174.5 70.5s69.5 106.5 69.5 178.5c0 71.333 -23.167 130.666 -69.5 177.999s-104.5 71 -174.5 71zM520 382.001v-89h-259v89h259z" />
    <glyph glyph-name="Iota" unicode="&#x399;" horiz-adv-x="272" 
d="M189 660v-660h-106v660h106z" />
    <glyph glyph-name="Kappa" unicode="&#x39a;" horiz-adv-x="651" 
d="M83 0v660h106v-660h-106zM325 351l304 -351h-131l-306 351l277 309h130z" />
    <glyph glyph-name="Lambda" unicode="&#x39b;" horiz-adv-x="662" 
d="M640 0h-114l-195 461l-196 -461h-113l291 671h36z" />
    <glyph glyph-name="Mu" unicode="&#x39c;" horiz-adv-x="793" 
d="M674 671h36v-671h-106v414l-189 -248h-36l-190 248v-414h-106v671h37l277 -369z" />
    <glyph glyph-name="Nu" unicode="&#x39d;" horiz-adv-x="711" 
d="M521 660h106v-671h-36l-402 457v-446h-106v671h37l401 -456v445z" />
    <glyph glyph-name="Xi" unicode="&#x39e;" horiz-adv-x="556" 
d="M516 660v-95h-476v95h476zM505 397v-94h-453v94h453zM516 95v-95h-476v95h476z" />
    <glyph glyph-name="Omicron" unicode="&#x39f;" horiz-adv-x="780" 
d="M389 671c96 0 177.833 -32.833 245.5 -98.5s101.5 -146.5 101.5 -242.5s-33.833 -176.833 -101.5 -242.5s-149.5 -98.5 -245.5 -98.5c-96.667 0 -178.5 32.833 -245.5 98.5s-100.5 146.5 -100.5 242.5s33.5 176.833 100.5 242.5s148.833 98.5 245.5 98.5zM390 574
c-68.667 0 -125.335 -22.999 -170.002 -68.999s-67 -104 -67 -174c0 -70.667 22.333 -129.167 67 -175.5s101.334 -69.5 170.001 -69.5c68 0 124.5 23.167 169.5 69.5s67.5 104.833 67.5 175.5c0 69.333 -22.667 127.166 -68 173.499s-101.666 69.5 -168.999 69.5z" />
    <glyph glyph-name="Pi" unicode="&#x3a0;" horiz-adv-x="686" 
d="M603 660v-660h-106v565h-308v-565h-106v660h520z" />
    <glyph glyph-name="Rho" unicode="&#x3a1;" horiz-adv-x="583" 
d="M324 660c66.667 0 120.667 -18.667 162 -56s62 -86 62 -146s-20.667 -108.833 -62 -146.5s-95.333 -56.5 -162 -56.5h-135v-255h-106v660h241zM322 566l-133 -0.000976562v-217h133c37.333 0 66.166 9.83301 86.499 29.5s30.5 45.834 30.5 78.501s-10.167 59 -30.5 79
s-49.166 30 -86.499 30z" />
    <glyph glyph-name="Sigma" unicode="&#x3a3;" horiz-adv-x="572" 
d="M224 95h308v-95h-481v24l214 314l-214 298v24h469v-95h-293l157 -214v-24z" />
    <glyph glyph-name="Tau" unicode="&#x3a4;" horiz-adv-x="583" 
d="M567 660v-95h-223v-565h-106v565h-222v95h551z" />
    <glyph glyph-name="Upsilon" unicode="&#x3a5;" horiz-adv-x="620" 
d="M591 660l-228 -393v-267h-106v266l-228 394h118l163 -287l164 287h117z" />
    <glyph glyph-name="Phi" unicode="&#x3a6;" horiz-adv-x="817" 
d="M774 335c0 -84.667 -29.001 -151.832 -87.001 -201.499s-133.333 -74.834 -226 -75.501v-89h-106v89c-92 1.33301 -167 26.833 -225 76.5s-87 116.5 -87 200.5s28.833 150.333 86.5 199s132.834 73.667 225.501 75v83h106v-83c92.667 -0.666992 168 -25.5 226 -74.5
s87 -115.5 87 -199.5zM149.999 332.002c0 -56.667 18.5 -101 55.5 -133s86.833 -48 149.5 -48v365c-62.667 0 -112.5 -16.167 -149.5 -48.5s-55.5 -77.5 -55.5 -135.5zM460.999 151.002c63.333 0 113.5 16 150.5 48s55.5 76.333 55.5 133c0 58 -18.5 103.167 -55.5 135.5
s-87.167 48.5 -150.5 48.5v-365z" />
    <glyph glyph-name="Chi" unicode="&#x3a7;" horiz-adv-x="607" 
d="M584 0h-121l-160 246l-159 -246h-122l223 337l-209 323h122l146 -234l144 234h121l-205 -324z" />
    <glyph glyph-name="Psi" unicode="&#x3a8;" horiz-adv-x="831" 
d="M469 682l0.00195312 -437.998c60 0 107.333 14.167 142 42.5s52 71.166 52 128.499v245h106v-254c0 -84 -26.833 -147.833 -80.5 -191.5s-126.834 -65.5 -219.501 -65.5v-149h-106v149c-92.667 0 -166 21.833 -220 65.5s-81 107.5 -81 191.5v254h106v-245
c0 -56.667 17.667 -99.334 53 -128.001s82.666 -43 141.999 -43v438h106z" />
    <glyph glyph-name="Omega" unicode="&#x3a9;" horiz-adv-x="790" 
d="M741 345c0 -98.667 -46.333 -182 -139 -250h129v-95h-276v95c118 56 177 137.667 177 245c0 68 -22.5 124 -67.5 168s-101.833 66 -170.5 66c-68 0 -124.333 -21.667 -169 -65s-67 -99.333 -67 -168c0 -107.333 59 -189.333 177 -246v-95h-277v95h125
c-90 66.667 -135 150 -135 250c0 92.667 33.5 170.167 100.5 232.5s148.833 93.5 245.5 93.5c96 0 177.833 -31.333 245.5 -94s101.5 -140 101.5 -232z" />
    <glyph glyph-name="Iotadieresis" unicode="&#x3aa;" horiz-adv-x="272" 
d="M14 877c18.667 0 34.5 -6.16699 47.5 -18.5s19.5 -27.833 19.5 -46.5c0 -17.333 -6.5 -32.5 -19.5 -45.5s-28.833 -19.5 -47.5 -19.5c-18 0 -33.833 6.5 -47.5 19.5s-20.5 28.167 -20.5 45.5c0 18 6.83301 33.333 20.5 46s29.5 19 47.5 19zM258 877
c19.333 0 35.5 -6.33203 48.5 -18.999s19.5 -28.334 19.5 -47.001c0 -17.333 -6.66699 -32.5 -20 -45.5s-29.333 -19.5 -48 -19.5c-17.333 0 -32.833 6.5 -46.5 19.5s-20.5 28.167 -20.5 45.5c0 18 6.83301 33.5 20.5 46.5s29.167 19.5 46.5 19.5zM189 660.001v-660h-106
v660h106z" />
    <glyph glyph-name="Upsilondieresis" unicode="&#x3ab;" horiz-adv-x="620" 
d="M170 747c-18 0 -33.833 6.5 -47.5 19.5s-20.5 28.167 -20.5 45.5c0 18 6.83301 33.333 20.5 46s29.5 19 47.5 19c18.667 0 34.5 -6.16699 47.5 -18.5s19.5 -27.833 19.5 -46.5c0 -17.333 -6.5 -32.5 -19.5 -45.5s-28.833 -19.5 -47.5 -19.5zM414 746
c-17.333 0 -32.833 6.50098 -46.5 19.501s-20.5 28.167 -20.5 45.5c0 18 6.83301 33.5 20.5 46.5s29.167 19.5 46.5 19.5c19.333 0 35.5 -6.33301 48.5 -19s19.5 -28.334 19.5 -47.001c0 -17.333 -6.66699 -32.5 -20 -45.5s-29.333 -19.5 -48 -19.5zM591 660.001l-228 -393
v-267h-106v266l-228 394h118l163 -287l164 287h117z" />
    <glyph glyph-name="alphatonos" unicode="&#x3ac;" horiz-adv-x="643" 
d="M389 761l-47 -193h-79v212h126v-19zM596 86c2 0 4.1709 0.167969 6.50391 0.500977s5.66602 0.666016 9.99902 0.999023s8.5 0.5 12.5 0.5v-88c-20 -5.33301 -41 -8 -63 -8c-58 0 -95 26.667 -111 80c-36.667 -55.333 -93.334 -83 -170.001 -83
c-68.667 0 -125.167 24.333 -169.5 73s-66.5 109.667 -66.5 183s22.167 134.5 66.5 183.5s100.833 73.5 169.5 73.5c37.333 0 71.166 -7.83301 101.499 -23.5s54.166 -37.167 71.499 -64.5c0.666992 8.66699 1.5 21.667 2.5 39s1.83301 30 2.5 38h98
c-6.66699 -100 -10 -177.333 -10 -232v-107c0 -44 16.333 -66 49 -66zM298.004 85.001c40 0 74.167 13.833 102.5 41.5s42.5 67.167 42.5 118.5s-14.167 91 -42.5 119s-62.5 42 -102.5 42c-42 0 -76.833 -15 -104.5 -45s-41.5 -68.333 -41.5 -115
c0 -47.333 13.833 -86 41.5 -116s62.5 -45 104.5 -45z" />
    <glyph glyph-name="epsilontonos" unicode="&#x3ad;" horiz-adv-x="503" 
d="M335 761l-47 -193h-79v212h126v-19zM400 145l64 -63.001c-48 -62 -116.333 -93 -205 -93c-60.667 0 -110 13.5 -148 40.5s-57 62.833 -57 107.5c0 52.667 25 92.334 75 119.001c-36 26 -54 61.667 -54 107c0 43.333 17.167 77.333 51.5 102s79.5 37 135.5 37
c86 0 151.333 -28.333 196 -85l-64 -63c-32 36.667 -75.333 55 -130 55c-56 0 -84 -18.667 -84 -56c0 -16.667 6 -30 18 -40s29.333 -15 52 -15h89v-84h-90c-30 0 -52.667 -5.83301 -68 -17.5s-23 -27.167 -23 -46.5c0 -20.667 8.66699 -37.167 26 -49.5
s42.333 -18.5 75 -18.5c59.333 0 106.333 21 141 63z" />
    <glyph glyph-name="etatonos" unicode="&#x3ae;" horiz-adv-x="595" 
d="M373 761l-47 -193h-79v212h126v-19zM339 502c56.667 0 101.833 -18.001 135.5 -54.001s50.5 -83 50.5 -141v-487h-105v472c0 34 -9.66699 61.5 -29 82.5s-45.333 31.5 -78 31.5s-59.5 -10.667 -80.5 -32s-31.5 -48.666 -31.5 -81.999v-292h-105v339
c0 43.333 -16.667 65 -50 65c-7.33301 0 -16.666 -0.333008 -27.999 -1v88c19.333 5.33301 40.333 8 63 8c51.333 0 85.666 -20 102.999 -60c40 42 91.667 63 155 63z" />
    <glyph glyph-name="iotatonos" unicode="&#x3af;" horiz-adv-x="299" 
d="M203 780v-19l-47 -193h-79v212h126zM179 491v-327c0 -28.667 5.16699 -49.167 15.5 -61.5s26.5 -18.5 48.5 -18.5c5.33301 0 17.333 0.666992 36 2v-89c-17.333 -5.33301 -38.333 -8 -63 -8c-95.333 0 -143 53.667 -143 161v341h106z" />
    <glyph glyph-name="upsilondieresistonos" unicode="&#x3b0;" horiz-adv-x="564" 
d="M354 780v-19l-48 -193h-75v212h123zM115 740c18.667 0 34.5 -6.33301 47.5 -19s19.5 -28.334 19.5 -47.001c0 -17.333 -6.5 -32.5 -19.5 -45.5s-28.833 -19.5 -47.5 -19.5c-17.333 0 -32.833 6.5 -46.5 19.5s-20.5 28.167 -20.5 45.5
c0 18.667 6.83301 34.334 20.5 47.001s29.167 19 46.5 19zM455 740c18.667 0 34.667 -6.33301 48 -19s20 -28.334 20 -47.001c0 -17.333 -6.66699 -32.5 -20 -45.5s-29.333 -19.5 -48 -19.5c-17.333 0 -32.833 6.5 -46.5 19.5s-20.5 28.167 -20.5 45.5
c0 18.667 6.83301 34.334 20.5 47.001s29.167 19 46.5 19zM463 491c30 -90 45.002 -173.667 45.002 -251c0 -84 -20.333 -146.833 -61 -188.5s-93.334 -62.5 -158.001 -62.5c-64 0 -116.333 19.667 -157 59s-61 93.333 -61 162v281h105v-289c0 -36 10.667 -64.667 32 -86
s48.666 -32 81.999 -32c32.667 0 59.167 12.167 79.5 36.5s30.5 63.5 30.5 117.5c0 34.667 -4 76.5 -12 125.5s-17.667 91.5 -29 127.5h104z" />
    <glyph glyph-name="alpha" unicode="&#x3b1;" horiz-adv-x="643" 
d="M596 86c2 0 4.1709 0.167969 6.50391 0.500977s5.66602 0.666016 9.99902 0.999023s8.5 0.5 12.5 0.5v-88c-20 -5.33301 -41 -8 -63 -8c-58 0 -95 26.667 -111 80c-36.667 -55.333 -93.334 -83 -170.001 -83c-68.667 0 -125.167 24.333 -169.5 73
s-66.5 109.667 -66.5 183s22.167 134.5 66.5 183.5s100.833 73.5 169.5 73.5c37.333 0 71.166 -7.83301 101.499 -23.5s54.166 -37.167 71.499 -64.5c0.666992 8.66699 1.5 21.667 2.5 39s1.83301 30 2.5 38h98c-6.66699 -100 -10 -177.333 -10 -232v-107
c0 -44 16.333 -66 49 -66zM298.004 85.001c40 0 74.167 13.833 102.5 41.5s42.5 67.167 42.5 118.5s-14.167 91 -42.5 119s-62.5 42 -102.5 42c-42 0 -76.833 -15 -104.5 -45s-41.5 -68.333 -41.5 -115c0 -47.333 13.833 -86 41.5 -116s62.5 -45 104.5 -45z" />
    <glyph glyph-name="beta" unicode="&#x3b2;" horiz-adv-x="621" 
d="M425 426c46 -13.333 82.833 -37.832 110.5 -73.499s41.5 -79.834 41.5 -132.501c0 -70 -23.167 -126 -69.5 -168s-102.833 -63 -169.5 -63c-60.667 0 -113 17.667 -157 53v-222h-105v723c0 68 20.667 121.333 62 160s95 58 161 58c63.333 0 112.833 -18 148.5 -54
s53.5 -80.333 53.5 -133c0 -64.667 -25.333 -114 -76 -148zM324 86.001c43.333 0 78.498 12.333 105.498 37s40.5 58 40.5 100s-13.667 75.667 -41 101s-62 38 -104 38h-58v90h22c32.667 0 58.334 10 77.001 30s28 47 28 81s-9.5 59.833 -28.5 77.5s-43.167 26.5 -72.5 26.5
c-32.667 0 -59.5 -11.167 -80.5 -33.5s-31.5 -53.5 -31.5 -93.5v-396c40.667 -38.667 88.334 -58 143.001 -58z" />
    <glyph glyph-name="gamma" unicode="&#x3b3;" horiz-adv-x="549" 
d="M530 491l-203 -430v-241h-105v241l-203 430h112l143 -325l144 325h112z" />
    <glyph glyph-name="delta" unicode="&#x3b4;" horiz-adv-x="609" 
d="M474 444c60.667 -63.333 91 -129.001 91 -197.001c0 -72.667 -25.5 -133.834 -76.5 -183.501s-112.833 -74.5 -185.5 -74.5c-72 0 -133 24.833 -183 74.5s-75 110.834 -75 183.501c0 68.667 23 126.334 69 173.001s103 72 171 76l-215 225v29h464v-91h-267zM304 85.999
c43.333 0 79.666 15.167 108.999 45.5s44 68.166 44 113.499c0 44.667 -14.667 82.167 -44 112.5s-65.666 45.5 -108.999 45.5s-79.5 -15.167 -108.5 -45.5s-43.5 -68.166 -43.5 -113.499s14.5 -83 43.5 -113s65.167 -45 108.5 -45z" />
    <glyph glyph-name="epsilon" unicode="&#x3b5;" horiz-adv-x="503" 
d="M400 145l64 -63.001c-48 -62 -116.333 -93 -205 -93c-60.667 0 -110 13.5 -148 40.5s-57 62.833 -57 107.5c0 52.667 25 92.334 75 119.001c-36 26 -54 61.667 -54 107c0 43.333 17.167 77.333 51.5 102s79.5 37 135.5 37c86 0 151.333 -28.333 196 -85l-64 -63
c-32 36.667 -75.333 55 -130 55c-56 0 -84 -18.667 -84 -56c0 -16.667 6 -30 18 -40s29.333 -15 52 -15h89v-84h-90c-30 0 -52.667 -5.83301 -68 -17.5s-23 -27.167 -23 -46.5c0 -20.667 8.66699 -37.167 26 -49.5s42.333 -18.5 75 -18.5c59.333 0 106.333 21 141 63z" />
    <glyph glyph-name="zeta" unicode="&#x3b6;" horiz-adv-x="514" 
d="M349 85c102.667 -26.667 153.999 -80.666 153.999 -161.999c0 -32.667 -8 -67 -24 -103h-104c13.333 34.667 20 63.667 20 87c0 42.667 -28 71 -84 85l-62 16c-65.333 15.333 -115.666 41.5 -150.999 78.5s-53 81.5 -53 133.5c0 63.333 30.333 131.666 91 204.999
l190 234h-251v91h420v-29l-279 -349c-42.667 -52.667 -64 -99 -64 -139c0 -63.333 43 -106.333 129 -129z" />
    <glyph glyph-name="eta" unicode="&#x3b7;" horiz-adv-x="595" 
d="M339 502c56.667 0 101.833 -18.001 135.5 -54.001s50.5 -83 50.5 -141v-487h-105v472c0 34 -9.66699 61.5 -29 82.5s-45.333 31.5 -78 31.5s-59.5 -10.667 -80.5 -32s-31.5 -48.666 -31.5 -81.999v-292h-105v339c0 43.333 -16.667 65 -50 65
c-7.33301 0 -16.666 -0.333008 -27.999 -1v88c19.333 5.33301 40.333 8 63 8c51.333 0 85.666 -20 102.999 -60c40 42 91.667 63 155 63z" />
    <glyph glyph-name="theta" unicode="&#x3b8;" horiz-adv-x="629" 
d="M314 761c84 0 146.999 -33 188.999 -99s63 -161 63 -285c0 -124.667 -21.167 -220.667 -63.5 -288s-105.166 -101 -188.499 -101s-146 33.667 -188 101s-63 163.333 -63 288c0 124 21 219 63 285s104.667 99 188 99zM313.999 664c-44 0 -77.667 -18.667 -101 -56
s-37 -96.333 -41 -177h285c-4 80.667 -17.667 139.667 -41 177s-57.333 56 -102 56zM313.999 84c90.667 0 138.333 85.333 143 256h-286c6 -170.667 53.667 -256 143 -256z" />
    <glyph glyph-name="iota" unicode="&#x3b9;" horiz-adv-x="299" 
d="M179 491v-327c0 -28.667 5.16699 -49.167 15.5 -61.5s26.5 -18.5 48.5 -18.5c5.33301 0 17.333 0.666992 36 2v-89c-17.333 -5.33301 -38.333 -8 -63 -8c-95.333 0 -143 53.667 -143 161v341h106z" />
    <glyph glyph-name="kappa" unicode="&#x3ba;" horiz-adv-x="534" 
d="M76 0v491h105v-491h-105zM313 264l212 -264h-125l-215 263l200 228h129z" />
    <glyph glyph-name="lambda" unicode="&#x3bb;" 
d="M527 88l23 0.000976562v-88c-17.333 -5.33301 -33.666 -8 -48.999 -8c-30 0 -53.667 7.66699 -71 23s-31.333 39.666 -42 72.999l-99 294l-154 -382h-111l214 506l-27 80c-10.667 30.667 -23.667 51.667 -39 63s-36.333 17 -63 17c-12.667 0 -29.334 -1 -50.001 -3v89
c18 6 40.667 9 68 9c43.333 0 78.833 -10 106.5 -30s51.167 -56.333 70.5 -109l173 -488c10 -30.667 26.667 -46 50 -46z" />
    <glyph glyph-name="mu" unicode="&#x3bc;" horiz-adv-x="601" 
d="M555 86l28 2v-88c-19.333 -5.33301 -40 -8 -62 -8c-48.667 0 -82 18.333 -100 55c-30 -38.667 -71 -58 -123 -58c-48 0 -87 17 -117 51v-220h-105v671h105v-288c0 -35.333 10.333 -63.833 31 -85.5s46.667 -32.5 78 -32.5c32 0 58.333 10.833 79 32.5s31 50.167 31 85.5
v288h105v-337c0 -45.333 16.667 -68 50 -68z" />
    <glyph glyph-name="nu" unicode="&#x3bd;" horiz-adv-x="549" 
d="M418 491h112l-237 -502h-36l-238 502h112l143 -325z" />
    <glyph glyph-name="xi" unicode="&#x3be;" horiz-adv-x="525" 
d="M356 88c51.333 -8.66699 90.501 -27.502 117.501 -56.502s40.5 -65.5 40.5 -109.5c0 -34 -8 -68 -24 -102h-103c13.333 34.667 20 63.667 20 87c0 48.667 -27.667 77.334 -83 86.001l-55 9c-69.333 10.667 -122.666 35.5 -159.999 74.5s-56 86.5 -56 142.5
c0 42.667 10.5 80.5 31.5 113.5s49.833 58.167 86.5 75.5c-58 37.333 -87 90 -87 158c0 56.667 20.667 103.334 62 140.001s92.666 55 153.999 55c90.667 0 159 -38.333 205 -115l-74 -58c-34.667 50.667 -75.667 76 -123 76c-32.667 0 -60.167 -10 -82.5 -30
s-33.5 -45.667 -33.5 -77s11 -57.5 33 -78.5s50.333 -31.5 85 -31.5h106v-91h-116c-40 0 -73.167 -11.667 -99.5 -35s-39.5 -54.333 -39.5 -93c0 -34 11.167 -62 33.5 -84s55.166 -36.667 98.499 -44z" />
    <glyph glyph-name="omicron" unicode="&#x3bf;" horiz-adv-x="609" 
d="M304 502c72 0 133.5 -24.833 184.5 -74.5s76.5 -110.5 76.5 -182.5s-25.5 -132.667 -76.5 -182s-112.5 -74 -184.5 -74s-133.167 24.667 -183.5 74s-75.5 110 -75.5 182s25.167 132.833 75.5 182.5s111.5 74.5 183.5 74.5zM305 405c-44 0 -80.499 -15.333 -109.499 -46
s-43.5 -68.667 -43.5 -114s14.5 -83.166 43.5 -113.499s65.167 -45.5 108.5 -45.5s79.666 15.167 108.999 45.5s44 68.166 44 113.499s-14.5 83.333 -43.5 114s-65.167 46 -108.5 46z" />
    <glyph glyph-name="pi" unicode="&#x3c0;" horiz-adv-x="590" 
d="M512 -8c-39.333 0 -69.834 12.167 -91.501 36.5s-32.5 59.833 -32.5 106.5v265h-207v-400h-105v491h418v-344c0 -40.667 16.333 -61 49 -61c0.666992 0 10.334 0.666992 29.001 2v-88c-20 -5.33301 -40 -8 -60 -8z" />
    <glyph glyph-name="rho" unicode="&#x3c1;" horiz-adv-x="619" 
d="M320 502c76 0 137.501 -24.167 184.501 -72.5s70.5 -109.833 70.5 -184.5c0 -73.333 -22.5 -134.333 -67.5 -183s-101.833 -73 -170.5 -73c-69.333 0 -123.333 23.333 -162 70v-239h-104v422c0 77.333 22.667 140 68 188s105.666 72 180.999 72zM319.001 85
c42.667 0 78.001 14.834 106.001 44.501s42 68.167 42 115.5s-14 86 -42 116s-63.667 45 -107 45c-40.667 0 -74.834 -13.5 -102.501 -40.5s-41.5 -66.5 -41.5 -118.5c0 -52.667 14.167 -92.834 42.5 -120.501s62.5 -41.5 102.5 -41.5z" />
    <glyph glyph-name="uni03C2" unicode="&#x3c2;" horiz-adv-x="529" 
d="M348 -180c16.667 36 25.0039 66.3359 25.0039 91.0029c0 14 -2 25.5 -6 34.5s-11.333 16.667 -22 23s-20.334 11.166 -29.001 14.499s-22.334 7.66602 -41.001 12.999c-23.333 6.66699 -42.833 13 -58.5 19s-35.334 15.833 -59.001 29.5s-42.834 28.834 -57.501 45.501
s-27.5 39 -38.5 67s-16.5 59.333 -16.5 94c0 78 23.667 139.333 71 184s106.666 67 177.999 67c94 0 164.667 -38.667 212 -116l-73 -58c-38 51.333 -84 77 -138 77c-42 0 -76.167 -13.333 -102.5 -40s-39.5 -63.334 -39.5 -110.001c0 -28 4.83301 -52.167 14.5 -72.5
s24.167 -36.666 43.5 -48.999s36 -21.333 50 -27s33 -11.834 57 -18.501c20.667 -6.66699 37.334 -12.334 50.001 -17.001s27.167 -11.334 43.5 -20.001s28.833 -18 37.5 -28s16.167 -23.167 22.5 -39.5s9.5 -34.5 9.5 -54.5c0 -37.333 -10 -73.666 -30 -108.999h-103z" />
    <glyph glyph-name="sigma" unicode="&#x3c3;" horiz-adv-x="640" 
d="M623 491l-0.000976562 -91h-139c48.667 -42 73 -96.667 73 -164c0 -69.333 -24.167 -127.833 -72.5 -175.5s-109.833 -71.5 -184.5 -71.5c-74 0 -135 24.5 -183 73.5s-72 109.167 -72 180.5c0 72.667 24.333 132.167 73 178.5s111.334 69.5 188.001 69.5h317zM299.999 86
c43.333 0 79 15.1689 107 45.502s42 68.166 42 113.499s-13.833 82.166 -41.5 110.499s-63.167 42.5 -106.5 42.5c-44 0 -79.833 -14.167 -107.5 -42.5s-41.5 -65.5 -41.5 -111.5c0 -45.333 13.833 -83 41.5 -113s63.167 -45 106.5 -45z" />
    <glyph glyph-name="tau" unicode="&#x3c4;" horiz-adv-x="463" 
d="M349 84c18 0 46 1.66699 84 5v-89c-34.667 -7.33301 -70 -11 -106 -11c-124.667 0 -187 57 -187 171v240h-129v91h412v-91h-178v-231c0 -31.333 8.5 -53.333 25.5 -66s43.167 -19 78.5 -19z" />
    <glyph glyph-name="upsilon" unicode="&#x3c5;" horiz-adv-x="564" 
d="M463 491c30 -90 45.002 -173.667 45.002 -251c0 -84 -20.333 -146.833 -61 -188.5s-93.334 -62.5 -158.001 -62.5c-64 0 -116.333 19.667 -157 59s-61 93.333 -61 162v281h105v-289c0 -36 10.667 -64.667 32 -86s48.666 -32 81.999 -32c32.667 0 59.167 12.167 79.5 36.5
s30.5 63.5 30.5 117.5c0 34.667 -4 76.5 -12 125.5s-17.667 91.5 -29 127.5h104z" />
    <glyph glyph-name="phi" unicode="&#x3c6;" horiz-adv-x="775" 
d="M730 246c0 -78.667 -26.833 -141.166 -80.5 -187.499s-123.5 -69.5 -209.5 -69.5v-169h-106v169c-86 0 -155.667 23.167 -209 69.5s-80 108.833 -80 187.5c0 77.333 26.833 139 80.5 185s123.167 69.333 208.5 70v201h106v-201c85.333 -0.666992 155 -23.834 209 -69.501
s81 -107.5 81 -185.5zM148 244.001c0 -51.333 16.5 -91.5 49.5 -120.5s78.5 -43.5 136.5 -43.5h3v330h-3c-58 0 -103.5 -14.833 -136.5 -44.5s-49.5 -70.167 -49.5 -121.5zM440 80.001c58 0 103.667 14.667 137 44s50 69.333 50 120c0 51.333 -16.667 91.833 -50 121.5
s-79 44.5 -137 44.5h-3v-330h3z" />
    <glyph glyph-name="chi" unicode="&#x3c7;" horiz-adv-x="526" 
d="M490 -93c11.333 0 20 0.333008 26 1v-88c-14.667 -5.33301 -31.667 -8 -51 -8c-47.333 0 -85 26.333 -113 79l-91 180l-135 -251h-116l197 350l-101 193c-14 26.667 -34 40 -60 40h-26v88c13.333 4.66699 30.333 7 51 7c50 0 89 -28.333 117 -85l75 -151l124 229h117
l-186 -326l113 -218c14 -26.667 33.667 -40 59 -40z" />
    <glyph glyph-name="psi" unicode="&#x3c8;" horiz-adv-x="802" 
d="M456 660l-0.000976562 -576c56.667 0 101.167 15.333 133.5 46s48.5 76.334 48.5 137.001c0 60 -14 134.667 -42 224h105c30 -86.667 45 -163 45 -229c0 -86 -26.333 -153 -79 -201s-123 -72 -211 -72v-169h-106v169c-81.333 0 -148.166 22.333 -200.499 67
s-78.5 108 -78.5 190v245h104v-236c0 -54.667 17 -96.834 51 -126.501s75.333 -44.5 124 -44.5v576h106z" />
    <glyph glyph-name="omega" unicode="&#x3c9;" horiz-adv-x="839" 
d="M585 499c140 -36 210.002 -123 210.002 -261c0 -78 -20.833 -139 -62.5 -183s-94.5 -66 -158.5 -66c-70 0 -121.333 25.667 -154 77c-34 -51.333 -85.667 -77 -155 -77c-63.333 0 -115.833 21.833 -157.5 65.5s-62.5 104.5 -62.5 182.5c0 138.667 70 226 210 262l27 -94
c-41.333 -13.333 -73.5 -33 -96.5 -59s-34.5 -62.667 -34.5 -110c0 -48.667 11.5 -86 34.5 -112s50.833 -39 83.5 -39c29.333 0 53.166 10.667 71.499 32s27.5 50.333 27.5 87v170h103v-170c0 -36.667 9.16699 -65.667 27.5 -87s42.166 -32 71.499 -32
c32.667 0 60.5 13 83.5 39s34.5 63.333 34.5 112c0 47.333 -11.5 84 -34.5 110s-55.5 45.667 -97.5 59z" />
    <glyph glyph-name="iotadieresis" unicode="&#x3ca;" horiz-adv-x="299" 
d="M28 740c18.667 0 34.5 -6.33301 47.5 -19s19.5 -28.334 19.5 -47.001c0 -17.333 -6.5 -32.5 -19.5 -45.5s-28.833 -19.5 -47.5 -19.5c-18 0 -33.833 6.5 -47.5 19.5s-20.5 28.167 -20.5 45.5c0 18.667 6.66699 34.334 20 47.001s29.333 19 48 19zM228 740
c19.333 0 35.5 -6.33301 48.5 -19s19.5 -28.334 19.5 -47.001c0 -17.333 -6.66699 -32.5 -20 -45.5s-29.333 -19.5 -48 -19.5c-17.333 0 -32.833 6.5 -46.5 19.5s-20.5 28.167 -20.5 45.5c0 18.667 6.66699 34.334 20 47.001s29 19 47 19zM179 491v-327
c0 -28.667 5.16699 -49.167 15.5 -61.5s26.5 -18.5 48.5 -18.5c5.33301 0 17.333 0.666992 36 2v-89c-17.333 -5.33301 -38.333 -8 -63 -8c-95.333 0 -143 53.667 -143 161v341h106z" />
    <glyph glyph-name="upsilondieresis" unicode="&#x3cb;" horiz-adv-x="564" 
d="M161 740c18.667 0 34.5 -6.33301 47.5 -19s19.5 -28.334 19.5 -47.001c0 -17.333 -6.5 -32.5 -19.5 -45.5s-28.833 -19.5 -47.5 -19.5c-18 0 -33.833 6.5 -47.5 19.5s-20.5 28.167 -20.5 45.5c0 18.667 6.83301 34.334 20.5 47.001s29.5 19 47.5 19zM385 740
c19.333 0 35.5 -6.33301 48.5 -19s19.5 -28.334 19.5 -47.001c0 -17.333 -6.66699 -32.5 -20 -45.5s-29.333 -19.5 -48 -19.5c-17.333 0 -32.833 6.5 -46.5 19.5s-20.5 28.167 -20.5 45.5c0 18.667 6.83301 34.334 20.5 47.001s29.167 19 46.5 19zM463 491
c30 -90 45.002 -173.667 45.002 -251c0 -84 -20.333 -146.833 -61 -188.5s-93.334 -62.5 -158.001 -62.5c-64 0 -116.333 19.667 -157 59s-61 93.333 -61 162v281h105v-289c0 -36 10.667 -64.667 32 -86s48.666 -32 81.999 -32c32.667 0 59.167 12.167 79.5 36.5
s30.5 63.5 30.5 117.5c0 34.667 -4 76.5 -12 125.5s-17.667 91.5 -29 127.5h104z" />
    <glyph glyph-name="omicrontonos" unicode="&#x3cc;" horiz-adv-x="609" 
d="M379 780v-19l-47 -193h-79v212h126zM304 502c72 0 133.5 -24.833 184.5 -74.5s76.5 -110.5 76.5 -182.5s-25.5 -132.667 -76.5 -182s-112.5 -74 -184.5 -74s-133.167 24.667 -183.5 74s-75.5 110 -75.5 182s25.167 132.833 75.5 182.5s111.5 74.5 183.5 74.5zM305 405
c-44 0 -80.499 -15.333 -109.499 -46s-43.5 -68.667 -43.5 -114s14.5 -83.166 43.5 -113.499s65.167 -45.5 108.5 -45.5s79.666 15.167 108.999 45.5s44 68.166 44 113.499s-14.5 83.333 -43.5 114s-65.167 46 -108.5 46z" />
    <glyph glyph-name="upsilontonos" unicode="&#x3cd;" horiz-adv-x="564" 
d="M349 780v-19l-47 -193h-79v212h126zM463 491c30 -90 45.002 -173.667 45.002 -251c0 -84 -20.333 -146.833 -61 -188.5s-93.334 -62.5 -158.001 -62.5c-64 0 -116.333 19.667 -157 59s-61 93.333 -61 162v281h105v-289c0 -36 10.667 -64.667 32 -86
s48.666 -32 81.999 -32c32.667 0 59.167 12.167 79.5 36.5s30.5 63.5 30.5 117.5c0 34.667 -4 76.5 -12 125.5s-17.667 91.5 -29 127.5h104z" />
    <glyph glyph-name="omegatonos" unicode="&#x3ce;" horiz-adv-x="839" 
d="M492 761l-47 -193h-79v212h126v-19zM585 499c140 -36 210.002 -123 210.002 -261c0 -78 -20.833 -139 -62.5 -183s-94.5 -66 -158.5 -66c-70 0 -121.333 25.667 -154 77c-34 -51.333 -85.667 -77 -155 -77c-63.333 0 -115.833 21.833 -157.5 65.5
s-62.5 104.5 -62.5 182.5c0 138.667 70 226 210 262l27 -94c-41.333 -13.333 -73.5 -33 -96.5 -59s-34.5 -62.667 -34.5 -110c0 -48.667 11.5 -86 34.5 -112s50.833 -39 83.5 -39c29.333 0 53.166 10.667 71.499 32s27.5 50.333 27.5 87v170h103v-170
c0 -36.667 9.16699 -65.667 27.5 -87s42.166 -32 71.499 -32c32.667 0 60.5 13 83.5 39s34.5 63.333 34.5 112c0 47.333 -11.5 84 -34.5 110s-55.5 45.667 -97.5 59z" />
    <glyph glyph-name="uni2009" unicode="&#x2009;" horiz-adv-x="147" 
 />
    <glyph glyph-name="endash" unicode="&#x2013;" horiz-adv-x="504" 
d="M465 362v-89h-426v89h426z" />
    <glyph glyph-name="emdash" unicode="&#x2014;" horiz-adv-x="1000" 
d="M950 362v-89h-900v89h900z" />
    <glyph glyph-name="uni2015" unicode="&#x2015;" horiz-adv-x="1000" 
d="M950 362v-89h-900v89h900z" />
    <glyph glyph-name="quoteleft" unicode="&#x2018;" horiz-adv-x="291" 
d="M202 660l-10 -268h-121l49 268h82z" />
    <glyph glyph-name="quoteright" unicode="&#x2019;" horiz-adv-x="291" 
d="M219 660l-49 -268h-81l9 268h121z" />
    <glyph glyph-name="quotesinglbase" unicode="&#x201a;" horiz-adv-x="291" 
d="M219 106l-49 -267h-81l9 267h121z" />
    <glyph glyph-name="quotedblleft" unicode="&#x201c;" horiz-adv-x="500" 
d="M202 660l-10 -268h-121l49 268h82zM411 660l-9 -268h-121l49 268h81z" />
    <glyph glyph-name="quotedblright" unicode="&#x201d;" horiz-adv-x="500" 
d="M219 660l-49 -268h-81l9 268h121zM429 660l-49 -268h-81l9 268h121z" />
    <glyph glyph-name="quotedblbase" unicode="&#x201e;" horiz-adv-x="500" 
d="M219 106l-49 -267h-81l9 267h121zM429 106l-49 -267h-81l9 267h121z" />
    <glyph glyph-name="dagger" unicode="&#x2020;" horiz-adv-x="467" 
d="M286 750v-139h126v-91h-126v-233h-105v233h-126v91h126v139h105z" />
    <glyph glyph-name="daggerdbl" unicode="&#x2021;" horiz-adv-x="467" 
d="M286 750v-109h126v-91h-126v-131h126v-91h-126v-110h-105v110h-126v91h126v131h-126v91h126v109h105z" />
    <glyph glyph-name="bullet" unicode="&#x2022;" horiz-adv-x="402" 
d="M201 413c40.667 0 75.167 -13.667 103.5 -41s42.5 -61.666 42.5 -102.999c0 -40.667 -14.167 -74.667 -42.5 -102s-62.833 -41 -103.5 -41c-40 0 -74.5 13.667 -103.5 41s-43.5 61.333 -43.5 102c0 41.333 14.5 75.666 43.5 102.999s63.5 41 103.5 41z" />
    <glyph glyph-name="ellipsis" unicode="&#x2026;" horiz-adv-x="778" 
d="M390 144c21.333 0 39.5 -7.33301 54.5 -22s22.5 -33.334 22.5 -56.001c0 -22 -7.33301 -40.333 -22 -55s-33 -22 -55 -22s-40.5 7.33301 -55.5 22s-22.5 33 -22.5 55c0 22.667 7.5 41.334 22.5 56.001s33.5 22 55.5 22zM644 144c21.333 0 39.5 -7.33301 54.5 -22
s22.5 -33.334 22.5 -56.001c0 -22 -7.33301 -40.333 -22 -55s-33 -22 -55 -22s-40.5 7.33301 -55.5 22s-22.5 33 -22.5 55c0 22.667 7.5 41.334 22.5 56.001s33.5 22 55.5 22zM136 144c21.333 0 39.5 -7.33203 54.5 -21.999s22.5 -33.334 22.5 -56.001
c0 -22 -7.33301 -40.333 -22 -55s-33 -22 -55 -22s-40.667 7.33301 -56 22s-23 33 -23 55s7.66699 40.5 23 55.5s34 22.5 56 22.5z" />
    <glyph glyph-name="perthousand" unicode="&#x2030;" horiz-adv-x="1202" 
d="M213 671c46 0 85.333 -15.5 118 -46.5s49 -69.5 49 -115.5s-16.167 -84.667 -48.5 -116s-71.833 -47 -118.5 -47s-86.167 15.667 -118.5 47s-48.5 70 -48.5 116s16.167 84.5 48.5 115.5s71.833 46.5 118.5 46.5zM644 660l-379 -660h-88l378 660h89zM213 597
c-24 0 -43.833 -8.33301 -59.5 -25s-23.5 -37.667 -23.5 -63s7.66699 -46.333 23 -63s35.333 -25 60 -25c24 0 43.833 8.33301 59.5 25s23.5 37.667 23.5 63s-7.83301 46.333 -23.5 63s-35.5 25 -59.5 25zM990 316c46.667 0 86.167 -15.667 118.5 -47s48.5 -70 48.5 -116
s-16.333 -84.5 -49 -115.5s-72 -46.5 -118 -46.5s-85.333 15.5 -118 46.5s-49 69.5 -49 115.5s16.167 84.667 48.5 116s71.833 47 118.5 47zM607 315c46.667 0 86.334 -15.668 119.001 -47.001s49 -70 49 -116c0 -45.333 -16.333 -83.666 -49 -114.999
s-72.334 -47 -119.001 -47c-46 0 -85.167 15.5 -117.5 46.5s-48.5 69.5 -48.5 115.5s16.167 84.667 48.5 116s71.5 47 117.5 47zM991 240.999c-24.667 0 -44.834 -8.33496 -60.501 -25.002s-23.5 -37.667 -23.5 -63s7.83301 -46.166 23.5 -62.499s35.834 -24.5 60.501 -24.5
c23.333 0 42.833 8.33301 58.5 25s23.5 37.334 23.5 62.001c0 25.333 -7.83301 46.333 -23.5 63s-35.167 25 -58.5 25zM608 239.997c-24.667 0 -44.667 -8.33496 -60 -25.002s-23 -37.667 -23 -63s7.66699 -46.166 23 -62.499s35.333 -24.5 60 -24.5
c23.333 0 42.833 8.33301 58.5 25s23.5 37.334 23.5 62.001c0 25.333 -7.83301 46.333 -23.5 63s-35.167 25 -58.5 25z" />
    <glyph glyph-name="minute" unicode="&#x2032;" horiz-adv-x="268" 
d="M228 660l-79 -278h-82l39 278h122z" />
    <glyph glyph-name="second" unicode="&#x2033;" horiz-adv-x="477" 
d="M228 660l-79 -278h-82l39 278h122zM438 660l-79 -278h-82l38 278h123z" />
    <glyph glyph-name="guilsinglleft" unicode="&#x2039;" horiz-adv-x="323" 
d="M220 485l68 -60l-138 -153l138 -155l-68 -59l-186 199v29z" />
    <glyph glyph-name="guilsinglright" unicode="&#x203a;" horiz-adv-x="323" 
d="M103 485l186 -199v-29l-186 -199l-68 59l138 155l-138 153z" />
    <glyph glyph-name="fraction" unicode="&#x2044;" horiz-adv-x="244" 
d="M356 660l-379 -660h-89l379 660h89z" />
    <glyph glyph-name="uni2070" unicode="&#x2070;" horiz-adv-x="415" 
d="M208 787c53.333 0 93.666 -19.333 120.999 -58s41 -89.667 41 -153c0 -64 -13.667 -116.5 -41 -157.5s-67.666 -61.5 -120.999 -61.5s-93.666 20.5 -120.999 61.5s-41 93.5 -41 157.5c0 63.333 13.667 114.333 41 153s67.666 58 120.999 58zM208 711
c-52 0 -78 -45.333 -78 -136c0 -95.333 26 -143 78 -143s78 47.667 78 143c0 90.667 -26 136 -78 136z" />
    <glyph glyph-name="uni2074" unicode="&#x2074;" horiz-adv-x="365" 
d="M352 501v-68h-53v-69h-76v69h-209v22l127 325h85l-110 -279h107v120h76v-120h53z" />
    <glyph glyph-name="uni2075" unicode="&#x2075;" horiz-adv-x="368" 
d="M189 632c39.333 0 73.001 -11.5 101.001 -34.5s42 -54.833 42 -95.5c0 -43.333 -15.167 -78.333 -45.5 -105s-67.833 -40 -112.5 -40c-34.667 0 -65.167 8.5 -91.5 25.5s-46.5 39.5 -60.5 67.5l58 41c23.333 -38.667 53.666 -58 90.999 -58c22 0 40.167 6 54.5 18
s21.5 28 21.5 48c0 41.333 -29 62 -87 62h-95v219h238v-75h-159v-78c16.667 3.33301 31.667 5 45 5z" />
    <glyph glyph-name="uni2076" unicode="&#x2076;" horiz-adv-x="373" 
d="M202 646c35.333 0 66.832 -13.666 94.499 -40.999s41.5 -61 41.5 -101c0 -42 -15 -77 -45 -105s-65.667 -42 -107 -42s-76.666 14 -105.999 42s-44 63.667 -44 107c0 22.667 4.33301 43.167 13 61.5s23 41.166 43 68.499l103 144h98l-96 -134h5zM185.999 433.001
c19.333 0 35.666 6.66699 48.999 20s20 30.333 20 51s-6.66699 37.834 -20 51.501s-29.666 20.5 -48.999 20.5s-35.5 -6.83301 -48.5 -20.5s-19.5 -30.834 -19.5 -51.501s6.5 -37.667 19.5 -51s29.167 -20 48.5 -20z" />
    <glyph glyph-name="uni2077" unicode="&#x2077;" horiz-adv-x="336" 
d="M30 780h288v-23l-189 -393h-89l168 341h-178v75z" />
    <glyph glyph-name="uni2078" unicode="&#x2078;" horiz-adv-x="385" 
d="M265 579c54 -22.667 81 -57.668 81 -105.001c0 -35.333 -14.333 -63.666 -43 -84.999s-65.667 -32 -111 -32s-82.166 10.667 -110.499 32s-42.5 50 -42.5 86c0 47.333 27 82 81 104c-42 24.667 -63 57.667 -63 99c0 34 12.667 60.667 38 80s57.666 29 96.999 29
c40 0 72.667 -9.66699 98 -29s38 -46.333 38 -81c0 -41.333 -21 -74 -63 -98zM192 720.999c-16.667 0 -30.6689 -4.16699 -42.002 -12.5s-17 -19.833 -17 -34.5c0 -13.333 4.83301 -24.333 14.5 -33s24.5 -18 44.5 -28c20.667 10 35.834 19.333 45.501 28
s14.5 19.667 14.5 33c0 14.667 -5.66699 26.167 -17 34.5s-25.666 12.5 -42.999 12.5zM191.998 423.999c22.667 0 40.5 5 53.5 15s19.5 23 19.5 39c0 28 -24.333 50.333 -73 67c-23.333 -8.66699 -41.166 -18 -53.499 -28s-18.5 -23 -18.5 -39s6.16699 -29 18.5 -39
s30.166 -15 53.499 -15z" />
    <glyph glyph-name="uni2079" unicode="&#x2079;" horiz-adv-x="373" 
d="M187 787c41.333 0 76.667 -14.001 106 -42.001s44 -63.667 44 -107c0 -22.667 -4.33301 -43.167 -13 -61.5s-23 -41.166 -43 -68.499l-103 -144h-97l95 134h-5c-34.667 0 -66 13.667 -94 41s-42 61 -42 101c0 42 15 77 45 105s65.667 42 107 42zM187.001 567.999
c19.333 0 35.5 6.83301 48.5 20.5s19.5 30.834 19.5 51.501s-6.5 37.667 -19.5 51s-29.167 20 -48.5 20s-35.666 -6.66699 -48.999 -20s-20 -30.333 -20 -51s6.66699 -37.834 20 -51.501s29.666 -20.5 48.999 -20.5z" />
    <glyph glyph-name="uni207A" unicode="&#x207a;" horiz-adv-x="427" 
d="M254 748v-139h135v-73h-135v-139h-81v139h-135v73h135v139h81z" />
    <glyph glyph-name="uni207B" unicode="&#x207b;" horiz-adv-x="427" 
d="M389 607v-69h-351v69h351z" />
    <glyph glyph-name="uni207C" unicode="&#x207c;" horiz-adv-x="427" 
d="M46 617v72h335v-72h-335zM46 456v73h335v-73h-335z" />
    <glyph glyph-name="uni207D" unicode="&#x207d;" horiz-adv-x="265" 
d="M212 902l32 -50.001c-78 -51.333 -117 -144.666 -117 -279.999c0 -136 39 -229 117 -279l-32 -51c-104.667 62 -157 172 -157 330c0 90.667 14.667 163 44 217s67 91.667 113 113z" />
    <glyph glyph-name="uni207E" unicode="&#x207e;" horiz-adv-x="265" 
d="M53 902c45.333 -21.333 82.833 -58.999 112.5 -112.999s44.5 -126.333 44.5 -217s-14.833 -163 -44.5 -217s-67.167 -91.667 -112.5 -113l-33 51c78.667 50 118 143 118 279c0 135.333 -39.333 228.666 -118 279.999z" />
    <glyph glyph-name="uni2080" unicode="&#x2080;" horiz-adv-x="415" 
d="M208 303c53.333 0 93.666 -19.333 120.999 -58s41 -89.667 41 -153c0 -64 -13.667 -116.5 -41 -157.5s-67.666 -61.5 -120.999 -61.5s-93.666 20.5 -120.999 61.5s-41 93.5 -41 157.5c0 63.333 13.667 114.333 41 153s67.666 58 120.999 58zM208 227
c-52 0 -78 -45.333 -78 -136c0 -95.333 26 -143 78 -143s78 47.667 78 143c0 90.667 -26 136 -78 136z" />
    <glyph glyph-name="uni2081" unicode="&#x2081;" horiz-adv-x="361" 
d="M232 296v-341h88v-75h-275v75h104v266h-98v75h181z" />
    <glyph glyph-name="uni2082" unicode="&#x2082;" horiz-adv-x="376" 
d="M184 -45l152.999 0.000976562v-75h-303v18l148 160c38.667 42.667 58 78 58 106c0 18 -5.33301 33 -16 45s-24.667 18 -42 18c-18 0 -32.5 -6 -43.5 -18s-16.5 -27.667 -16.5 -47c0 -4.66699 0.666992 -15 2 -31h-82c-2.66699 10.667 -4 22.667 -4 36
c0 36 13.333 67.667 40 95s61.334 41 104.001 41c41.333 0 75.5 -12.5 102.5 -37.5s40.5 -56.5 40.5 -94.5c0 -28 -7.33301 -53.833 -22 -77.5s-37 -51.834 -67 -84.501z" />
    <glyph glyph-name="uni2083" unicode="&#x2083;" horiz-adv-x="357" 
d="M220 143c27.333 -6.66699 50.833 -21 70.5 -43s29.5 -50 29.5 -84c0 -42 -15 -76.333 -45 -103s-66.667 -40 -110 -40c-34 0 -64 8.5 -90 25.5s-46 39.5 -60 67.5l58 41c23.333 -38.667 53 -58 89 -58c21.333 0 38.833 6 52.5 18s20.5 28.333 20.5 49
c0 40.667 -28.667 61 -86 61h-45v21l88 123h-146v75h266v-23z" />
    <glyph glyph-name="uni2084" unicode="&#x2084;" horiz-adv-x="365" 
d="M352 17v-68h-53v-69h-76v69h-209v22l127 325h85l-110 -279h107v120h76v-120h53z" />
    <glyph glyph-name="uni2085" unicode="&#x2085;" horiz-adv-x="368" 
d="M189 148c39.333 0 73.001 -11.5 101.001 -34.5s42 -54.833 42 -95.5c0 -43.333 -15.167 -78.333 -45.5 -105s-67.833 -40 -112.5 -40c-34.667 0 -65.167 8.5 -91.5 25.5s-46.5 39.5 -60.5 67.5l58 41c23.333 -38.667 53.666 -58 90.999 -58c22 0 40.167 6 54.5 18
s21.5 28 21.5 48c0 41.333 -29 62 -87 62h-95v219h238v-75h-159v-78c16.667 3.33301 31.667 5 45 5z" />
    <glyph glyph-name="uni2086" unicode="&#x2086;" horiz-adv-x="373" 
d="M202 162c35.333 0 66.832 -13.666 94.499 -40.999s41.5 -61 41.5 -101c0 -42 -15 -77 -45 -105s-65.667 -42 -107 -42s-76.666 14 -105.999 42s-44 63.667 -44 107c0 22.667 4.33301 43.167 13 61.5s23 41.166 43 68.499l103 144h98l-96 -134h5zM185.999 -50.999
c19.333 0 35.666 6.66699 48.999 20s20 30.333 20 51s-6.66699 37.834 -20 51.501s-29.666 20.5 -48.999 20.5s-35.5 -6.83301 -48.5 -20.5s-19.5 -30.834 -19.5 -51.501s6.5 -37.667 19.5 -51s29.167 -20 48.5 -20z" />
    <glyph glyph-name="uni2087" unicode="&#x2087;" horiz-adv-x="336" 
d="M30 296h288v-23l-189 -393h-89l168 341h-178v75z" />
    <glyph glyph-name="uni2088" unicode="&#x2088;" horiz-adv-x="385" 
d="M265 95c54 -22.667 81 -57.668 81 -105.001c0 -35.333 -14.333 -63.666 -43 -84.999s-65.667 -32 -111 -32s-82.166 10.667 -110.499 32s-42.5 50 -42.5 86c0 47.333 27 82 81 104c-42 24.667 -63 57.667 -63 99c0 34 12.667 60.667 38 80s57.666 29 96.999 29
c40 0 72.667 -9.66699 98 -29s38 -46.333 38 -81c0 -41.333 -21 -74 -63 -98zM192 236.999c-16.667 0 -30.6689 -4.16699 -42.002 -12.5s-17 -19.833 -17 -34.5c0 -13.333 4.83301 -24.333 14.5 -33s24.5 -18 44.5 -28c20.667 10 35.834 19.333 45.501 28
s14.5 19.667 14.5 33c0 14.667 -5.66699 26.167 -17 34.5s-25.666 12.5 -42.999 12.5zM191.998 -60.001c22.667 0 40.5 5 53.5 15s19.5 23 19.5 39c0 28 -24.333 50.333 -73 67c-23.333 -8.66699 -41.166 -18 -53.499 -28s-18.5 -23 -18.5 -39s6.16699 -29 18.5 -39
s30.166 -15 53.499 -15z" />
    <glyph glyph-name="uni2089" unicode="&#x2089;" horiz-adv-x="373" 
d="M187 303c41.333 0 76.667 -14.001 106 -42.001s44 -63.667 44 -107c0 -22.667 -4.33301 -43.167 -13 -61.5s-23 -41.166 -43 -68.499l-103 -144h-97l95 134h-5c-34.667 0 -66 13.667 -94 41s-42 61 -42 101c0 42 15 77 45 105s65.667 42 107 42zM187.001 83.999
c19.333 0 35.5 6.83301 48.5 20.5s19.5 30.834 19.5 51.501s-6.5 37.667 -19.5 51s-29.167 20 -48.5 20s-35.666 -6.66699 -48.999 -20s-20 -30.333 -20 -51s6.66699 -37.834 20 -51.501s29.666 -20.5 48.999 -20.5z" />
    <glyph glyph-name="uni208A" unicode="&#x208a;" horiz-adv-x="427" 
d="M254 263v-139h135v-73h-135v-139h-81v139h-135v73h135v139h81z" />
    <glyph glyph-name="uni208B" unicode="&#x208b;" horiz-adv-x="426" 
d="M389 122v-69h-351v69h351z" />
    <glyph glyph-name="uni208C" unicode="&#x208c;" horiz-adv-x="427" 
d="M46 132v72h335v-72h-335zM46 -29v73h335v-73h-335z" />
    <glyph glyph-name="uni208D" unicode="&#x208d;" horiz-adv-x="265" 
d="M212 417l32 -50.001c-78 -51.333 -117 -144.666 -117 -279.999c0 -136 39 -229 117 -279l-32 -51c-104.667 62 -157 172 -157 330c0 90.667 14.667 163 44 217s67 91.667 113 113z" />
    <glyph glyph-name="uni208E" unicode="&#x208e;" horiz-adv-x="265" 
d="M53 417c45.333 -21.333 82.833 -58.999 112.5 -112.999s44.5 -126.333 44.5 -217s-14.833 -163 -44.5 -217s-67.167 -91.667 -112.5 -113l-33 51c78.667 50 118 143 118 279c0 135.333 -39.333 228.666 -118 279.999z" />
    <glyph glyph-name="Euro" unicode="&#x20ac;" horiz-adv-x="679" 
d="M405 86c66 0 117.669 26 155.002 78l75 -59c-23.333 -36 -55.333 -64.333 -96 -85s-86.667 -31 -138 -31c-72 0 -133.833 20 -185.5 60s-87.834 93.333 -108.501 160h-103v83h87c-1.33301 16 -2 28.667 -2 38c0 8 0.666992 19.333 2 34h-86v83h101
c20 68 56 122.333 108 163s114.333 61 187 61c51.333 0 97.333 -10.333 138 -31s72.667 -49 96 -85l-75 -58c-37.333 51.333 -89 77 -155 77c-43.333 0 -81 -11.333 -113 -34s-56 -53.667 -72 -93h264l-21 -83h-263c-0.666992 -7.33301 -1 -18.666 -1 -33.999
c0 -17.333 0.666992 -30 2 -38h241l-22 -83h-199c16.667 -38.667 40.667 -68.834 72 -90.501s68.666 -32.5 111.999 -32.5z" />
    <glyph glyph-name="uni2105" unicode="&#x2105;" horiz-adv-x="821" 
d="M213 671c61.333 0 106.334 -25.667 135.001 -77l-59 -45c-20 29.333 -45.333 44 -76 44c-23.333 0 -42.5 -8 -57.5 -24s-22.5 -36 -22.5 -60c0 -24.667 7.5 -45 22.5 -61s34.167 -24 57.5 -24c29.333 0 54.666 14.667 75.999 44l59 -45c-30 -52 -75 -78 -135 -78
c-46.667 0 -86.167 15.833 -118.5 47.5s-48.5 70.5 -48.5 116.5s16.167 84.5 48.5 115.5s71.833 46.5 118.5 46.5zM643.001 660l-379 -660h-88l378 660h89zM608.001 315c46 0 85.333 -15.833 118 -47.5s49 -70.5 49 -116.5s-16.333 -84.5 -49 -115.5s-72 -46.5 -118 -46.5
c-46.667 0 -86.167 15.5 -118.5 46.5s-48.5 69.5 -48.5 115.5s16.167 84.833 48.5 116.5s71.833 47.5 118.5 47.5zM608.001 236c-23.333 0 -42.666 -8 -57.999 -24s-23 -36.333 -23 -61c0 -24 7.66699 -43.833 23 -59.5s34.666 -23.5 57.999 -23.5
s42.666 7.83301 57.999 23.5s23 35.5 23 59.5c0 24.667 -7.66699 45 -23 61s-34.666 24 -57.999 24z" />
    <glyph glyph-name="uni2113" unicode="&#x2113;" horiz-adv-x="459" 
d="M211 185c0 -67.333 33 -101.001 99 -101.001c18 0 49 3.33301 93 10v-89c-35.333 -10.667 -72.333 -16 -111 -16c-56.667 0 -101 14.333 -133 43s-49.333 71.334 -52 128.001c-18 -14 -35.667 -26.667 -53 -38l-50 80l103 78v278c0 69.333 15 120.5 45 153.5
s71 49.5 123 49.5c100.667 0 151 -53.667 151 -161c0 -62 -17.667 -121.833 -53 -179.5s-89.333 -117.5 -162 -179.5v-56zM211 562.999v-194c42 40 73 77.833 93 113.5s30 73.167 30 112.5c0 51.333 -18 77 -54 77c-46 0 -69 -36.333 -69 -109z" />
    <glyph glyph-name="uni2116" unicode="&#x2116;" horiz-adv-x="1125" 
d="M521 215v445h106v-671h-36l-402 457v-446h-106v671h37zM913 237c-46.667 0 -86.167 15.5 -118.5 46.5s-48.5 69.5 -48.5 115.5s16.167 84.667 48.5 116s71.833 47 118.5 47s86.167 -15.667 118.5 -47s48.5 -70 48.5 -116s-16.333 -84.5 -49 -115.5s-72 -46.5 -118 -46.5z
M913 487c-24.667 0 -44.834 -8.16699 -60.501 -24.5s-23.5 -37.5 -23.5 -63.5c0 -25.333 7.83301 -46.166 23.5 -62.499s35.834 -24.5 60.501 -24.5s44.834 8.16699 60.501 24.5s23.5 37.166 23.5 62.499s-7.83301 46.333 -23.5 63s-35.834 25 -60.501 25zM753 94v71h322
v-71h-322z" />
    <glyph glyph-name="uni2117" unicode="&#x2117;" horiz-adv-x="780" 
d="M389 671c94.667 0 176.167 -33 244.5 -99s102.5 -146.667 102.5 -242c0 -96 -34 -176.833 -102 -242.5s-149.667 -98.5 -245 -98.5s-176.833 32.833 -244.5 98.5s-101.5 146.5 -101.5 242.5s34 176.833 102 242.5s149.333 98.5 244 98.5zM389 604
c-74.667 0 -138.667 -25.667 -192 -77s-80 -117 -80 -197c0 -80.667 26.5 -146.5 79.5 -197.5s117.167 -76.5 192.5 -76.5c74.667 0 139 25.667 193 77s81 117 81 197s-26.833 145.667 -80.5 197s-118.167 77 -193.5 77zM417 504c40 0 72.5 -11 97.5 -33s37.5 -51 37.5 -87
s-12.5 -65 -37.5 -87s-57.5 -33 -97.5 -33h-65v-112h-78v352h143zM417 436h-64v-104h64c17.333 0 31 4.66699 41 14s15 22 15 38c0 15.333 -5 27.833 -15 37.5s-23.667 14.5 -41 14.5z" />
    <glyph glyph-name="trademark" unicode="&#x2122;" horiz-adv-x="971" 
d="M900 667v-456h-89v248l-115 -150h-30l-114 150v-248h-90v456h30l190 -245l189 245h29zM392 660v-81h-146v-368h-88v368h-146v81h380z" />
    <glyph glyph-name="uni2126" unicode="&#x2126;" horiz-adv-x="790" 
d="M741 345c0 -98.667 -46.333 -182 -139 -250h129v-95h-276v95c118 56 177 137.667 177 245c0 68 -22.5 124 -67.5 168s-101.833 66 -170.5 66c-68 0 -124.333 -21.667 -169 -65s-67 -99.333 -67 -168c0 -107.333 59 -189.333 177 -246v-95h-277v95h125
c-90 66.667 -135 150 -135 250c0 92.667 33.5 170.167 100.5 232.5s148.833 93.5 245.5 93.5c96 0 177.833 -31.333 245.5 -94s101.5 -140 101.5 -232z" />
    <glyph glyph-name="estimated" unicode="&#x212e;" horiz-adv-x="795" 
d="M731 327h-543.995v-200c49.333 -69.333 122.666 -104 219.999 -104c52 0 100.167 10.833 144.5 32.5s81.166 50.167 110.499 85.5l25 -22c-32.667 -40 -73.334 -71.5 -122.001 -94.5s-101.334 -34.5 -158.001 -34.5c-99.333 0 -182 32.5 -248 97.5s-99 144.5 -99 238.5
c0 96 33.833 177.333 101.5 244s148.167 100 241.5 100c54 0 106.167 -11.667 156.5 -35s92.166 -57.5 125.499 -102.5s50 -95.5 50 -151.5zM407.005 636c-94.667 0 -168 -34.667 -220 -104v-172h421v187c-50 59.333 -117 89 -201 89z" />
    <glyph glyph-name="uni2150" unicode="&#x2150;" horiz-adv-x="942" 
d="M320 319v-75h-275v75h104v266h-98v75h181v-341h88zM628 660h89l-379 -660h-88zM635 416h288v-23l-189 -393h-89l168 341h-178v75z" />
    <glyph glyph-name="uni2151" unicode="&#x2151;" horiz-adv-x="949" 
d="M320 319v-75h-275v75h104v266h-98v75h181v-341h88zM628 660h89l-379 -660h-88zM762 423c41.333 0 76.667 -14.001 106 -42.001s44 -63.667 44 -107c0 -22.667 -4.33301 -43.167 -13 -61.5s-23 -41.166 -43 -68.499l-103 -144h-97l95 134h-5c-34.667 0 -66 13.667 -94 41
s-42 61 -42 101c0 42 15 77 45 105s65.667 42 107 42zM762.001 203.999c19.333 0 35.5 6.83301 48.5 20.5s19.5 30.834 19.5 51.501s-6.5 37.667 -19.5 51s-29.167 20 -48.5 20s-35.666 -6.66699 -48.999 -20s-20 -30.333 -20 -51s6.66699 -37.834 20 -51.501
s29.666 -20.5 48.999 -20.5z" />
    <glyph glyph-name="uni2152" unicode="&#x2152;" horiz-adv-x="1382" 
d="M232 660v-341h88v-75h-275v75h104v266h-98v75h181zM717 660l-379 -660h-88l378 660h89zM1175 423c53.333 0 93.666 -19.333 120.999 -58s41 -89.667 41 -153c0 -64 -13.667 -116.5 -41 -157.5s-67.666 -61.5 -120.999 -61.5s-93.666 20.5 -120.999 61.5
s-41 93.5 -41 157.5c0 63.333 13.667 114.333 41 153s67.666 58 120.999 58zM837 416v-341h88v-75h-275v75h104v266h-98v75h181zM1175 347c-52 0 -78 -45.333 -78 -136c0 -95.333 26 -143 78 -143s78 47.667 78 143c0 90.667 -26 136 -78 136z" />
    <glyph glyph-name="uni2153" unicode="&#x2153;" horiz-adv-x="962" 
d="M320 319v-75h-275v75h104v266h-98v75h181v-341h88zM628 660h89l-379 -660h-88zM825 263c27.333 -6.66699 50.833 -21 70.5 -43s29.5 -50 29.5 -84c0 -42 -15 -76.333 -45 -103s-66.667 -40 -110 -40c-34 0 -64 8.5 -90 25.5s-46 39.5 -60 67.5l58 41
c23.333 -38.667 53 -58 89 -58c21.333 0 38.833 6 52.5 18s20.5 28.333 20.5 49c0 40.667 -28.667 61 -86 61h-45v21l88 123h-146v75h266v-23z" />
    <glyph glyph-name="uni2154" unicode="&#x2154;" horiz-adv-x="977" 
d="M337 319l-0.000976562 -74.999h-303v18l148 160c38.667 42.667 58 78 58 106c0 18 -5.33301 33 -16 45s-24.667 18 -42 18c-18 0 -32.5 -6 -43.5 -18s-16.5 -27.667 -16.5 -47c0 -4.66699 0.666992 -15 2 -31h-82c-2.66699 10.667 -4 22.667 -4 36
c0 36 13.333 67.667 40 95s61.334 41 104.001 41c41.333 0 75.5 -12.5 102.5 -37.5s40.5 -56.5 40.5 -94.5c0 -28 -7.33301 -53.833 -22 -77.5s-37 -51.834 -67 -84.501l-52 -54h153zM642.999 660.001h89l-379 -660h-88zM840.999 263.001
c27.333 -6.66699 50.833 -21 70.5 -43s29.5 -50 29.5 -84c0 -42 -15 -76.333 -45 -103s-66.667 -40 -110 -40c-34 0 -64 8.5 -90 25.5s-46 39.5 -60 67.5l58 41c23.333 -38.667 53 -58 89 -58c21.333 0 38.833 6 52.5 18s20.5 28.333 20.5 49c0 40.667 -28.667 61 -86 61
h-45v21l88 123h-146v75h266v-23z" />
    <glyph glyph-name="uni2155" unicode="&#x2155;" horiz-adv-x="965" 
d="M320 319v-75h-275v75h104v266h-98v75h181v-341h88zM628 660h89l-379 -660h-88zM786 268c39.333 0 73.001 -11.5 101.001 -34.5s42 -54.833 42 -95.5c0 -43.333 -15.167 -78.333 -45.5 -105s-67.833 -40 -112.5 -40c-34.667 0 -65.167 8.5 -91.5 25.5
s-46.5 39.5 -60.5 67.5l58 41c23.333 -38.667 53.666 -58 90.999 -58c22 0 40.167 6 54.5 18s21.5 28 21.5 48c0 41.333 -29 62 -87 62h-95v219h238v-75h-159v-78c16.667 3.33301 31.667 5 45 5z" />
    <glyph glyph-name="uni2156" unicode="&#x2156;" horiz-adv-x="981" 
d="M337 319l-0.000976562 -74.999h-303v18l148 160c38.667 42.667 58 78 58 106c0 18 -5.33301 33 -16 45s-24.667 18 -42 18c-18 0 -32.5 -6 -43.5 -18s-16.5 -27.667 -16.5 -47c0 -4.66699 0.666992 -15 2 -31h-82c-2.66699 10.667 -4 22.667 -4 36
c0 36 13.333 67.667 40 95s61.334 41 104.001 41c41.333 0 75.5 -12.5 102.5 -37.5s40.5 -56.5 40.5 -94.5c0 -28 -7.33301 -53.833 -22 -77.5s-37 -51.834 -67 -84.501l-52 -54h153zM642.999 660.001h89l-379 -660h-88zM801.999 268.001
c39.333 0 73.001 -11.5 101.001 -34.5s42 -54.833 42 -95.5c0 -43.333 -15.167 -78.333 -45.5 -105s-67.833 -40 -112.5 -40c-34.667 0 -65.167 8.5 -91.5 25.5s-46.5 39.5 -60.5 67.5l58 41c23.333 -38.667 53.666 -58 90.999 -58c22 0 40.167 6 54.5 18s21.5 28 21.5 48
c0 41.333 -29 62 -87 62h-95v219h238v-75h-159v-78c16.667 3.33301 31.667 5 45 5z" />
    <glyph glyph-name="uni2157" unicode="&#x2157;" horiz-adv-x="926" 
d="M320 380c0 -42 -15 -76.333 -45 -103s-66.667 -40 -110 -40c-34 0 -64 8.5 -90 25.5s-46 39.5 -60 67.5l58 41c23.333 -38.667 53 -58 89 -58c21.333 0 38.833 6 52.5 18s20.5 28.333 20.5 49c0 40.667 -28.667 61 -86 61h-45v21l88 123h-146v75h266v-23l-92 -130
c27.333 -7.33301 50.833 -21.833 70.5 -43.5s29.5 -49.5 29.5 -83.5zM589 660h89l-379 -660h-88zM747 268c39.333 0 73.001 -11.5 101.001 -34.5s42 -54.833 42 -95.5c0 -43.333 -15.167 -78.333 -45.5 -105s-67.833 -40 -112.5 -40c-34.667 0 -65.167 8.5 -91.5 25.5
s-46.5 39.5 -60.5 67.5l58 41c23.333 -38.667 53.666 -58 90.999 -58c22 0 40.167 6 54.5 18s21.5 28 21.5 48c0 41.333 -29 62 -87 62h-95v219h238v-75h-159v-78c16.667 3.33301 31.667 5 45 5z" />
    <glyph glyph-name="uni2158" unicode="&#x2158;" horiz-adv-x="980" 
d="M299 244h-76v69h-209v22l127 325h85l-110 -279h107v120h76v-120h53v-68h-53v-69zM642 660h89l-379 -660h-88zM801 268c39.333 0 73.001 -11.5 101.001 -34.5s42 -54.833 42 -95.5c0 -43.333 -15.167 -78.333 -45.5 -105s-67.833 -40 -112.5 -40
c-34.667 0 -65.167 8.5 -91.5 25.5s-46.5 39.5 -60.5 67.5l58 41c23.333 -38.667 53.666 -58 90.999 -58c22 0 40.167 6 54.5 18s21.5 28 21.5 48c0 41.333 -29 62 -87 62h-95v219h238v-75h-159v-78c16.667 3.33301 31.667 5 45 5z" />
    <glyph glyph-name="uni2159" unicode="&#x2159;" horiz-adv-x="899" 
d="M320 319v-75h-275v75h104v266h-98v75h181v-341h88zM628 660h89l-379 -660h-88zM727 282c35.333 0 66.832 -13.666 94.499 -40.999s41.5 -61 41.5 -101c0 -42 -15 -77 -45 -105s-65.667 -42 -107 -42s-76.666 14 -105.999 42s-44 63.667 -44 107
c0 22.667 4.33301 43.167 13 61.5s23 41.166 43 68.499l103 144h98l-96 -134h5zM710.999 69.001c19.333 0 35.666 6.66699 48.999 20s20 30.333 20 51s-6.66699 37.834 -20 51.501s-29.666 20.5 -48.999 20.5s-35.5 -6.83301 -48.5 -20.5s-19.5 -30.834 -19.5 -51.501
s6.5 -37.667 19.5 -51s29.167 -20 48.5 -20z" />
    <glyph glyph-name="uni215A" unicode="&#x215a;" horiz-adv-x="870" 
d="M332 382c0 -43.333 -15.166 -78.333 -45.499 -105s-67.833 -40 -112.5 -40c-34.667 0 -65.167 8.5 -91.5 25.5s-46.5 39.5 -60.5 67.5l58 41c23.333 -38.667 53.666 -58 90.999 -58c22 0 40.167 6 54.5 18s21.5 28 21.5 48c0 41.333 -29 62 -87 62h-95v219h238v-75h-159
v-78c16.667 3.33301 31.667 5 45 5c39.333 0 73 -11.5 101 -34.5s42 -54.833 42 -95.5zM600.001 660h89l-379 -660h-88zM699.001 282c35.333 0 66.832 -13.666 94.499 -40.999s41.5 -61 41.5 -101c0 -42 -15 -77 -45 -105s-65.667 -42 -107 -42s-76.666 14 -105.999 42
s-44 63.667 -44 107c0 22.667 4.33301 43.167 13 61.5s23 41.166 43 68.499l103 144h98l-96 -134h5zM683 69.001c19.333 0 35.666 6.66699 48.999 20s20 30.333 20 51s-6.66699 37.834 -20 51.501s-29.666 20.5 -48.999 20.5s-35.5 -6.83301 -48.5 -20.5
s-19.5 -30.834 -19.5 -51.501s6.5 -37.667 19.5 -51s29.167 -20 48.5 -20z" />
    <glyph glyph-name="oneeighth" unicode="&#x215b;" horiz-adv-x="945" 
d="M320 319v-75h-275v75h104v266h-98v75h181v-341h88zM628 660h89l-379 -660h-88zM825 215c54 -22.667 81 -57.668 81 -105.001c0 -35.333 -14.333 -63.666 -43 -84.999s-65.667 -32 -111 -32s-82.166 10.667 -110.499 32s-42.5 50 -42.5 86c0 47.333 27 82 81 104
c-42 24.667 -63 57.667 -63 99c0 34 12.667 60.667 38 80s57.666 29 96.999 29c40 0 72.667 -9.66699 98 -29s38 -46.333 38 -81c0 -41.333 -21 -74 -63 -98zM752 356.999c-16.667 0 -30.6689 -4.16699 -42.002 -12.5s-17 -19.833 -17 -34.5
c0 -13.333 4.83301 -24.333 14.5 -33s24.5 -18 44.5 -28c20.667 10 35.834 19.333 45.501 28s14.5 19.667 14.5 33c0 14.667 -5.66699 26.167 -17 34.5s-25.666 12.5 -42.999 12.5zM751.998 59.999c22.667 0 40.5 5 53.5 15s19.5 23 19.5 39c0 28 -24.333 50.333 -73 67
c-23.333 -8.66699 -41.166 -18 -53.499 -28s-18.5 -23 -18.5 -39s6.16699 -29 18.5 -39s30.166 -15 53.499 -15z" />
    <glyph glyph-name="threeeighths" unicode="&#x215c;" horiz-adv-x="906" 
d="M320 380c0 -42 -15 -76.333 -45 -103s-66.667 -40 -110 -40c-34 0 -64 8.5 -90 25.5s-46 39.5 -60 67.5l58 41c23.333 -38.667 53 -58 89 -58c21.333 0 38.833 6 52.5 18s20.5 28.333 20.5 49c0 40.667 -28.667 61 -86 61h-45v21l88 123h-146v75h266v-23l-92 -130
c27.333 -7.33301 50.833 -21.833 70.5 -43.5s29.5 -49.5 29.5 -83.5zM589 660h89l-379 -660h-88zM786 215c54 -22.667 81 -57.668 81 -105.001c0 -35.333 -14.333 -63.666 -43 -84.999s-65.667 -32 -111 -32s-82.166 10.667 -110.499 32s-42.5 50 -42.5 86
c0 47.333 27 82 81 104c-42 24.667 -63 57.667 -63 99c0 34 12.667 60.667 38 80s57.666 29 96.999 29c40 0 72.667 -9.66699 98 -29s38 -46.333 38 -81c0 -41.333 -21 -74 -63 -98zM713 356.999c-16.667 0 -30.6689 -4.16699 -42.002 -12.5s-17 -19.833 -17 -34.5
c0 -13.333 4.83301 -24.333 14.5 -33s24.5 -18 44.5 -28c20.667 10 35.834 19.333 45.501 28s14.5 19.667 14.5 33c0 14.667 -5.66699 26.167 -17 34.5s-25.666 12.5 -42.999 12.5zM712.998 59.999c22.667 0 40.5 5 53.5 15s19.5 23 19.5 39c0 28 -24.333 50.333 -73 67
c-23.333 -8.66699 -41.166 -18 -53.499 -28s-18.5 -23 -18.5 -39s6.16699 -29 18.5 -39s30.166 -15 53.499 -15z" />
    <glyph glyph-name="fiveeighths" unicode="&#x215d;" horiz-adv-x="917" 
d="M332 382c0 -43.333 -15.166 -78.333 -45.499 -105s-67.833 -40 -112.5 -40c-34.667 0 -65.167 8.5 -91.5 25.5s-46.5 39.5 -60.5 67.5l58 41c23.333 -38.667 53.666 -58 90.999 -58c22 0 40.167 6 54.5 18s21.5 28 21.5 48c0 41.333 -29 62 -87 62h-95v219h238v-75h-159
v-78c16.667 3.33301 31.667 5 45 5c39.333 0 73 -11.5 101 -34.5s42 -54.833 42 -95.5zM600.001 660h89l-379 -660h-88zM797.001 215c54 -22.667 81 -57.668 81 -105.001c0 -35.333 -14.333 -63.666 -43 -84.999s-65.667 -32 -111 -32s-82.166 10.667 -110.499 32
s-42.5 50 -42.5 86c0 47.333 27 82 81 104c-42 24.667 -63 57.667 -63 99c0 34 12.667 60.667 38 80s57.666 29 96.999 29c40 0 72.667 -9.66699 98 -29s38 -46.333 38 -81c0 -41.333 -21 -74 -63 -98zM724.001 356.999c-16.667 0 -30.6689 -4.16699 -42.002 -12.5
s-17 -19.833 -17 -34.5c0 -13.333 4.83301 -24.333 14.5 -33s24.5 -18 44.5 -28c20.667 10 35.834 19.333 45.501 28s14.5 19.667 14.5 33c0 14.667 -5.66699 26.167 -17 34.5s-25.666 12.5 -42.999 12.5zM723.999 59.999c22.667 0 40.5 5 53.5 15s19.5 23 19.5 39
c0 28 -24.333 50.333 -73 67c-23.333 -8.66699 -41.166 -18 -53.499 -28s-18.5 -23 -18.5 -39s6.16699 -29 18.5 -39s30.166 -15 53.499 -15z" />
    <glyph glyph-name="seveneighths" unicode="&#x215e;" horiz-adv-x="823" 
d="M129 244h-89l168 341h-178v75h288v-23zM505 660h89l-379 -660h-88zM703 215c54 -22.667 81 -57.668 81 -105.001c0 -35.333 -14.333 -63.666 -43 -84.999s-65.667 -32 -111 -32s-82.166 10.667 -110.499 32s-42.5 50 -42.5 86c0 47.333 27 82 81 104
c-42 24.667 -63 57.667 -63 99c0 34 12.667 60.667 38 80s57.666 29 96.999 29c40 0 72.667 -9.66699 98 -29s38 -46.333 38 -81c0 -41.333 -21 -74 -63 -98zM630 356.999c-16.667 0 -30.6689 -4.16699 -42.002 -12.5s-17 -19.833 -17 -34.5
c0 -13.333 4.83301 -24.333 14.5 -33s24.5 -18 44.5 -28c20.667 10 35.834 19.333 45.501 28s14.5 19.667 14.5 33c0 14.667 -5.66699 26.167 -17 34.5s-25.666 12.5 -42.999 12.5zM629.998 59.999c22.667 0 40.5 5 53.5 15s19.5 23 19.5 39c0 28 -24.333 50.333 -73 67
c-23.333 -8.66699 -41.166 -18 -53.499 -28s-18.5 -23 -18.5 -39s6.16699 -29 18.5 -39s30.166 -15 53.499 -15z" />
    <glyph glyph-name="arrowleft" unicode="&#x2190;" horiz-adv-x="650" 
d="M601 272l-337 1l-69 2l178 -178l-63 -62l-272 272v21l272 272l63 -62l-177 -176l68 1h337v-91z" />
    <glyph glyph-name="arrowup" unicode="&#x2191;" horiz-adv-x="650" 
d="M607 320l-63 -62l-172 172l1 -67v-321h-96v321l1 68l-172 -173l-63 62l271 272h22z" />
    <glyph glyph-name="arrowright" unicode="&#x2192;" horiz-adv-x="650" 
d="M340 600l272 -272v-21l-272 -272l-63 62l178 178l-69 -2l-337 -1v91h337l68 -1l-177 176z" />
    <glyph glyph-name="arrowdown" unicode="&#x2193;" horiz-adv-x="650" 
d="M544 378l63 -63l-271 -271h-22l-271 271l63 63l172 -173l-1 68v320h96v-320l-1 -68z" />
    <glyph glyph-name="arrowboth" unicode="&#x2194;" horiz-adv-x="934" 
d="M624 600l272 -272v-21l-272 -272l-62 62l177 178l-69 -2h-111v-1l-88 1l-85 -1v1h-122l-69 2l178 -178l-63 -62l-272 272v21l272 272l63 -62l-177 -176l68 1h406l68 -1l-176 176z" />
    <glyph glyph-name="arrowupdn" unicode="&#x2195;" horiz-adv-x="636" 
d="M365 94l165 164l63 -62l-264 -264h-22l-264 264l63 62l166 -165l-2 68v338l2 68l-166 -165l-63 62l264 264h22l264 -264l-63 -62l-165 164l1 -67v-338z" />
    <glyph glyph-name="uni2196" unicode="&#x2196;" horiz-adv-x="650" 
d="M311 386l258 -258l-66 -65l-257 257l-42 44v-256h-93v398l15 15h393v-89h-256z" />
    <glyph glyph-name="uni2197" unicode="&#x2197;" horiz-adv-x="650" 
d="M524 521l15 -15v-398h-93v256l-42 -44l-257 -257l-66 65l258 258l48 46h-256v89h393z" />
    <glyph glyph-name="uni2198" unicode="&#x2198;" horiz-adv-x="650" 
d="M446 508h93v-398l-15 -15h-393v89h256l-48 46l-258 258l66 65l257 -257l42 -44v256z" />
    <glyph glyph-name="uni2199" unicode="&#x2199;" horiz-adv-x="650" 
d="M311 230l-48 -46h256v-89h-393l-15 15v398h93v-256l42 44l257 257l66 -65z" />
    <glyph glyph-name="partialdiff" unicode="&#x2202;" horiz-adv-x="596" 
d="M304 672c75.333 0 135.168 -26.668 179.501 -80.001s66.5 -129 66.5 -227c0 -109.333 -26.833 -199.5 -80.5 -270.5s-123.5 -106.5 -209.5 -106.5c-60 0 -110.667 17.833 -152 53.5s-62 84.834 -62 147.501c0 64 22.167 115.833 66.5 155.5s104.833 59.5 181.5 59.5
c46.667 0 95.667 -7 147 -21c-4 129.333 -51 194 -141 194c-50.667 0 -95.334 -24.667 -134.001 -74l-69 57c46.667 74.667 115.667 112 207 112zM267.002 80.999c44 0 81.3311 18.834 111.998 56.501s50.334 90.167 59.001 157.5c-55.333 12 -101.666 18 -138.999 18
c-49.333 0 -85.833 -11.333 -109.5 -34s-35.5 -51.334 -35.5 -86.001c0 -33.333 10.5 -60.333 31.5 -81s48.167 -31 81.5 -31z" />
    <glyph glyph-name="uni2206" unicode="&#x2206;" horiz-adv-x="662" 
d="M349 671l291 -671h-618l291 671h36zM486 95l-155 365l-155 -365h310z" />
    <glyph glyph-name="product" unicode="&#x220f;" horiz-adv-x="696" 
d="M613 660v-781h-106v686h-318v-686h-106v781h530z" />
    <glyph glyph-name="summation" unicode="&#x2211;" horiz-adv-x="572" 
d="M214 -26h318v-95h-481v25l223 376l-223 355v25h469v-95h-303l172 -272v-25z" />
    <glyph glyph-name="minus" unicode="&#x2212;" 
d="M509 363v-91h-459v91h459z" />
    <glyph glyph-name="uni2219" unicode="&#x2219;" horiz-adv-x="270" 
d="M136 394c22 0 40.333 -7.33301 55 -22s22 -33 22 -55s-7.5 -40.5 -22.5 -55.5s-33.167 -22.5 -54.5 -22.5c-22 0 -40.667 7.5 -56 22.5s-23 33.5 -23 55.5s7.66699 40.333 23 55s34 22 56 22z" />
    <glyph glyph-name="radical" unicode="&#x221a;" horiz-adv-x="734" 
d="M625 750h104l-513 -883h-37v323h-160v88h252v-136z" />
    <glyph glyph-name="infinity" unicode="&#x221e;" horiz-adv-x="849" 
d="M631 500c57.333 0 103.832 -17.998 139.499 -53.998s53.5 -79.333 53.5 -130s-17.667 -93.834 -53 -129.501s-81.666 -53.5 -138.999 -53.5c-42.667 0 -80.167 10.167 -112.5 30.5s-64.166 48.5 -95.499 84.5c-32 -36 -64.167 -64.167 -96.5 -84.5
s-69.833 -30.5 -112.5 -30.5c-56.667 0 -102.5 17.667 -137.5 53s-52.5 78.666 -52.5 129.999c0 50.667 17.667 94 53 130s81.666 54 138.999 54c72.667 0 141.667 -37.667 207 -113c31.333 35.333 63 63 95 83s69.333 30 112 30zM226.999 228.002
c25.333 0 48.666 7.66699 69.999 23s44.333 37.666 69 66.999c-24.667 28.667 -47.667 50.334 -69 65.001s-44.666 22 -69.999 22c-28.667 0 -52 -7.83301 -70 -23.5s-27 -37.167 -27 -64.5s9 -49 27 -65s41.333 -24 70 -24zM621.999 228.002
c28.667 0 52.001 7.99902 70.001 23.999s27 37.667 27 65s-9 48.833 -27 64.5s-41.667 23.5 -71 23.5c-42.667 0 -88.667 -29 -138 -87c24.667 -29.333 47.667 -51.666 69 -66.999s44.666 -23 69.999 -23z" />
    <glyph glyph-name="integral" unicode="&#x222b;" horiz-adv-x="343" 
d="M267 788c27.333 0 51.667 -2.66602 73 -7.99902v-88c-28 1.33301 -44.667 2 -50 2c-66 0 -98.667 -37 -98 -111c0 -32 11.167 -117.167 33.5 -255.5s33.5 -228.833 33.5 -271.5c0 -62 -16.167 -108.333 -48.5 -139s-76.833 -46 -133.5 -46c-28.667 0 -53 2.66699 -73 8
v88c26.667 -1.33301 43 -2 49 -2c66 0 99 36.667 99 110c0 34 -11.5 120.167 -34.5 258.5s-34.5 228.166 -34.5 269.499c0 61.333 16.5 107.5 49.5 138.5s77.833 46.5 134.5 46.5z" />
    <glyph glyph-name="approxequal" unicode="&#x2248;" 
d="M152 527c26.667 0 54.666 -8.66602 83.999 -25.999l92 -56c29.333 -16 49 -24 59 -24c10.667 0 19.167 4 25.5 12s9.5 18 9.5 30v17h83c1.33301 -8 2 -18 2 -30c0 -35.333 -10.333 -64.833 -31 -88.5s-46.667 -35.5 -78 -35.5c-27.333 0 -55.333 8.66699 -84 26l-91 55
c-25.333 16.667 -44.666 25 -57.999 25c-24 0 -36 -14 -36 -42v-17h-83c0 1.33301 -0.166992 5.66602 -0.5 12.999s-0.5 13 -0.5 17c0 35.333 10 64.833 30 88.5s45.667 35.5 77 35.5zM151.999 307.001c27.333 0 55.333 -8.99902 84 -26.999l92 -55
c27.333 -16 47 -24 59 -24c10.667 0 19.167 3.83301 25.5 11.5s9.5 17.5 9.5 29.5v18h83c1.33301 -9.33301 2 -19.333 2 -30c0 -36 -10.333 -65.833 -31 -89.5s-46.667 -35.5 -78 -35.5c-25.333 0 -53.333 8.66699 -84 26l-91 56c-26 16 -45.333 24 -58 24
c-24 0 -36 -14 -36 -42v-17h-83c0 2 -0.166992 6.66699 -0.5 14s-0.5 12.666 -0.5 15.999c0 35.333 10 65 30 89s45.667 36 77 36z" />
    <glyph glyph-name="notequal" unicode="&#x2260;" 
d="M500 378h-134l-75 -121h209v-91h-264l-65 -105h-95l65 105h-80v91h136l74 121h-210v91h266l64 102h94l-63 -102h78v-91z" />
    <glyph glyph-name="lessequal" unicode="&#x2264;" 
d="M495 543v-94l-261 -97l261 -96v-94l-451 176v29zM56 0v88h439v-88h-439z" />
    <glyph glyph-name="greaterequal" unicode="&#x2265;" 
d="M64 543l451 -176v-29l-451 -176v94l262 96l-262 97v94zM64 0v88h439v-88h-439z" />
    <glyph glyph-name="uni24EA" unicode="&#x24ea;" horiz-adv-x="973" 
d="M486 761c119.333 0 221 -42.167 305 -126.5s126 -185.833 126 -304.5s-42 -220.167 -126 -304.5s-185.667 -126.5 -305 -126.5c-118.667 0 -220 42 -304 126s-126 185.667 -126 305s42 221 126 305s185.333 126 304 126zM486 680c-97.333 0 -179.5 -33.667 -246.5 -101
s-100.5 -150.333 -100.5 -249s33.5 -181.667 100.5 -249s149.167 -101 246.5 -101s179.666 33.667 246.999 101s101 150.333 101 249s-33.667 181.667 -101 249s-149.666 101 -246.999 101zM486 561c58 0 102 -21 132 -63s45 -97 45 -165c0 -68.667 -15 -125 -45 -169
s-74 -66 -132 -66c-57.333 0 -100.833 22 -130.5 66s-44.5 100.333 -44.5 169c0 68 14.833 123 44.5 165s73.167 63 130.5 63zM486 482c-57.333 0 -86 -49.667 -86 -149c0 -104 28.667 -156 86 -156c58.667 0 88 52 88 156c0 99.333 -29.333 149 -88 149z" />
    <glyph glyph-name="uni24FF" unicode="&#x24ff;" horiz-adv-x="973" 
d="M486 761c119.333 0 221 -42.167 305 -126.5s126 -185.833 126 -304.5s-42 -220.167 -126 -304.5s-185.667 -126.5 -305 -126.5c-118.667 0 -220 42 -304 126s-126 185.667 -126 305s42 221 126 305s185.333 126 304 126zM486 561c-57.333 0 -101 -21 -131 -63
s-45 -97 -45 -165c0 -68.667 14.833 -125 44.5 -169s73.5 -66 131.5 -66s102.167 22 132.5 66s45.5 100.333 45.5 169c0 68 -15.167 123 -45.5 165s-74.5 63 -132.5 63zM486 479c56.667 0 85 -48.667 85 -146c0 -102 -28.333 -153 -85 -153c-55.333 0 -83 51 -83 153
c0 97.333 27.667 146 83 146z" />
    <glyph glyph-name="filledbox" unicode="&#x25a0;" horiz-adv-x="730" 
d="M640 605v-550h-550v550h550z" />
    <glyph glyph-name="uni25A1" unicode="&#x25a1;" horiz-adv-x="730" 
d="M640 605v-550h-550v550h550zM542 513h-354v-366h354v366z" />
    <glyph glyph-name="uni25AA" unicode="&#x25aa;" horiz-adv-x="541" 
d="M461 436v-380h-381v380h381z" />
    <glyph glyph-name="uni25AB" unicode="&#x25ab;" horiz-adv-x="541" 
d="M461 436v-380h-381v380h381zM369 349h-197v-207h197v207z" />
    <glyph glyph-name="triagup" unicode="&#x25b2;" horiz-adv-x="730" 
d="M374 660l335 -591l-8 -14h-672l-8 14l336 591h17z" />
    <glyph glyph-name="uni25B3" unicode="&#x25b3;" horiz-adv-x="730" 
d="M374 660l335 -591l-8 -14h-672l-8 14l336 591h17zM553 152l-188 330l-188 -330h376z" />
    <glyph glyph-name="uni25B4" unicode="&#x25b4;" horiz-adv-x="528" 
d="M273 475l230 -405l-8 -14h-462l-8 14l231 405h17z" />
    <glyph glyph-name="uni25B5" unicode="&#x25b5;" horiz-adv-x="528" 
d="M273 475l230 -405l-8 -14h-462l-8 14l231 405h17zM372 132l-108 189l-107 -189h215z" />
    <glyph glyph-name="uni25B6" unicode="&#x25b6;" horiz-adv-x="645" 
d="M104 671l518 -333v-17l-518 -332l-14 8v666z" />
    <glyph glyph-name="uni25B7" unicode="&#x25b7;" horiz-adv-x="645" 
d="M104 671l518 -333v-17l-518 -332l-14 8v666zM459 330l-271 175v-350z" />
    <glyph glyph-name="uni25B8" unicode="&#x25b8;" horiz-adv-x="480" 
d="M94 482l355 -227v-17l-355 -227l-14 8v455z" />
    <glyph glyph-name="uni25B9" unicode="&#x25b9;" horiz-adv-x="480" 
d="M94 482l355 -227v-17l-355 -227l-14 8v455zM312 246l-151 97v-193z" />
    <glyph glyph-name="triagrt" unicode="&#x25ba;" horiz-adv-x="961" 
d="M104 671l827 -333v-17l-827 -332l-14 8v666z" />
    <glyph glyph-name="uni25BB" unicode="&#x25bb;" horiz-adv-x="961" 
d="M104 671l827 -333v-17l-827 -332l-14 8v666zM697 330l-509 205v-410z" />
    <glyph glyph-name="triagdn" unicode="&#x25bc;" horiz-adv-x="730" 
d="M374 0h-17l-336 591l8 14h672l8 -14z" />
    <glyph glyph-name="uni25BD" unicode="&#x25bd;" horiz-adv-x="730" 
d="M701 605l8 -14l-335 -591h-17l-336 591l8 14h672zM553 508h-376l188 -330z" />
    <glyph glyph-name="uni25BE" unicode="&#x25be;" horiz-adv-x="528" 
d="M495 436l8 -15l-230 -404h-17l-231 404l8 15h462z" />
    <glyph glyph-name="uni25BF" unicode="&#x25bf;" horiz-adv-x="528" 
d="M495 436l8 -15l-230 -404h-17l-231 404l8 15h462zM372 359h-215l107 -189z" />
    <glyph glyph-name="uni25C0" unicode="&#x25c0;" horiz-adv-x="645" 
d="M541 671l14 -8v-666l-14 -8l-518 332v17z" />
    <glyph glyph-name="uni25C1" unicode="&#x25c1;" horiz-adv-x="682" 
d="M578 671l14 -8v-666l-14 -8l-518 332v17zM494 504l-271 -174l271 -174v348z" />
    <glyph glyph-name="uni25C2" unicode="&#x25c2;" horiz-adv-x="480" 
d="M386 482l14 -8v-455l-14 -8l-355 227v17z" />
    <glyph glyph-name="uni25C3" unicode="&#x25c3;" horiz-adv-x="480" 
d="M386 482l14 -8v-455l-14 -8l-355 227v17zM319 150v193l-151 -97z" />
    <glyph glyph-name="triaglf" unicode="&#x25c4;" horiz-adv-x="961" 
d="M857 671l14 -8v-666l-14 -8l-827 332v17z" />
    <glyph glyph-name="uni25C5" unicode="&#x25c5;" horiz-adv-x="961" 
d="M857 671l14 -8v-666l-14 -8l-827 332v17zM773 125v410l-509 -205z" />
    <glyph glyph-name="lozenge" unicode="&#x25ca;" horiz-adv-x="665" 
d="M351 671l213 -341l-213 -341h-37l-213 342l213 340h37zM211 331l124 -196l120 195l-122 196z" />
    <glyph glyph-name="circle" unicode="&#x25cb;" horiz-adv-x="776" 
d="M388 659c90.667 0 168.166 -32.167 232.499 -96.5s96.5 -141.833 96.5 -232.5s-32.167 -168.334 -96.5 -233.001s-141.833 -97 -232.5 -97c-90 0 -167.5 32.333 -232.5 97s-97.5 142.334 -97.5 233.001s32.333 168.167 97 232.5s142.334 96.5 233.001 96.5zM387.999 567
c-65.333 0 -120.5 -23 -165.5 -69s-67.5 -102 -67.5 -168s22.5 -122 67.5 -168s100.167 -69 165.5 -69s120.333 23 165 69s67 102 67 168s-22.333 122 -67 168s-99.667 69 -165 69z" />
    <glyph glyph-name="uni25CF" unicode="&#x25cf;" horiz-adv-x="776" 
d="M388 659c90.667 0 168.166 -32.167 232.499 -96.5s96.5 -141.833 96.5 -232.5s-32.167 -168.334 -96.5 -233.001s-141.833 -97 -232.5 -97c-90 0 -167.5 32.333 -232.5 97s-97.5 142.334 -97.5 233.001s32.333 168.167 97 232.5s142.334 96.5 233.001 96.5z" />
    <glyph glyph-name="uni261C" unicode="&#x261c;" horiz-adv-x="1214" 
d="M1184 280v-33l-87 -73l50 -177l-31 -20l-227 145c-61.333 -32.667 -123.833 -58.5 -187.5 -77.5s-119.167 -28.5 -166.5 -28.5c-75.333 0 -113 23.667 -113 71c0 14.667 4.66699 27.334 14 38.001c-30.667 10 -46 29.333 -46 58c0 20 8.33301 35.667 25 47
c-24 10.667 -36 28.334 -36 53.001c0 13.333 4.33301 25 13 35l-188 4c-56.667 1.33301 -98 9.66602 -124 24.999s-39 39.666 -39 72.999c0 36 15 60.333 45 73s79 19 147 19c54 0 112 -3 174 -9c0.666992 30 10 53 28 69s39.333 24 64 24c26.667 0 53 -8 79 -24l243 -148
c25.333 -8 47 -15 65 -21l230 147l31 -20l-50 -177zM518 526c-17.333 0 -27 -10.999 -29 -32.999c40 -4.66699 83.333 -11.334 130 -20.001l-72 43c-13.333 6.66699 -23 10 -29 10zM525 82.001c37.333 0 89.832 9.66504 157.499 28.998s128.167 44.333 181.5 75v153
c-78 31.333 -178.333 56.833 -301 76.5s-242.334 29.5 -359.001 29.5c-32 0 -54 -1.83301 -66 -5.5s-18 -10.834 -18 -21.501c0 -9.33301 5 -16.166 15 -20.499s28.667 -7.16602 56 -8.49902l120 -4c152.667 -5.33301 239.334 -8.66602 260.001 -9.99902v-60l-104 1
c-12.667 0 -19 -5.66699 -19 -17c0 -5.33301 1.83301 -9.83301 5.5 -13.5s7.83398 -5.5 12.501 -5.5h116v-59h-105c-11.333 0 -17 -6.33301 -17 -19c0 -12 5.66699 -18 17 -18h115v-60c-22 -3.33301 -46.333 -5 -73 -5h-8c-12.667 0 -19 -5.66699 -19 -17
c0 -13.333 11 -20 33 -20zM936.999 352.999v-181l112 -70l-29 101l76 61l-76 59l30 101z" />
    <glyph glyph-name="uni261E" unicode="&#x261e;" horiz-adv-x="1214" 
d="M993 512c68 0 116.834 -6.33301 146.501 -19s44.5 -37 44.5 -73c0 -33.333 -12.833 -57.666 -38.5 -72.999s-66.834 -23.666 -123.501 -24.999l-189 -4c8.66699 -8.66699 13 -20.334 13 -35.001c0 -24.667 -12 -42.334 -36 -53.001c16.667 -11.333 25 -27 25 -47
c0 -28.667 -15.333 -48 -46 -58c9.33301 -9.33301 14 -22 14 -38c0 -47.333 -37.333 -71 -112 -71c-47.333 0 -102.833 9.5 -166.5 28.5s-126.5 44.833 -188.5 77.5l-227 -145l-30 20l49 177l-87 73v33l87 73l-49 177l30 20l231 -147c18 6 39.667 13 65 21l242 148
c26 16 52.667 24 80 24c24.667 0 46 -8 64 -24s27.333 -39 28 -69c60.667 6 118.667 9 174 9zM679.001 516l-72 -43.001c48 8.66699 91.333 15.334 130 20.001c-2 22 -11.667 33 -29 33c-7.33301 0 -17 -3.33301 -29 -10zM1035 388.999
c26.667 1.33301 45.167 4.16797 55.5 8.50098s15.5 11.166 15.5 20.499c0 10.667 -6 17.834 -18 21.501s-34.333 5.5 -67 5.5c-116 0 -235.5 -9.83301 -358.5 -29.5s-223.167 -45.167 -300.5 -76.5v-153c53.333 -30.667 113.833 -55.667 181.5 -75s120.167 -29 157.5 -29
c22 0 33 6.66699 33 20c0 11.333 -6.33301 17 -19 17h-8c-27.333 0 -52 1.66699 -74 5v60h115c11.333 0 17 6 17 18c0 12.667 -5.66699 19 -17 19h-105v59h117c4.66699 0 8.66699 1.83301 12 5.5s5 8.16699 5 13.5c0 11.333 -6.33301 17 -19 17l-103 -1v60
c20.667 1.33301 107 4.66602 259 9.99902zM289.001 172.001v181l-113 71l30 -101l-76 -59l76 -61l-30 -101z" />
    <glyph glyph-name="uni2661" unicode="&#x2661;" horiz-adv-x="860" 
d="M614 671c54 0 99.667 -18.335 137 -55.002s56 -83.667 56 -141c0 -33.333 -8 -64.666 -24 -93.999s-44 -66 -84 -110l-261 -282h-17l-261 282c-40 44 -67.833 80.833 -83.5 110.5s-23.5 60.834 -23.5 93.501c0 57.333 18.667 104.333 56 141s83 55 137 55
c42.667 0 80.167 -11.833 112.5 -35.5s55.833 -54.5 70.5 -92.5c14.667 38 38.5 68.833 71.5 92.5s70.833 35.5 113.5 35.5zM618 327.998c27.333 30.667 47.167 56.5 59.5 77.5s18.5 43.167 18.5 66.5c0 30 -9.16699 54.167 -27.5 72.5s-41.833 27.5 -70.5 27.5
c-35.333 0 -64.833 -15 -88.5 -45s-41.5 -68.333 -53.5 -115h-53c-10.667 46 -28.334 84.167 -53.001 114.5s-54.667 45.5 -90 45.5c-28 0 -51.167 -9.16699 -69.5 -27.5s-27.5 -42.5 -27.5 -72.5c0 -23.333 6.33301 -45.833 19 -67.5s32.334 -47.167 59.001 -76.5l189 -209
z" />
    <glyph glyph-name="heart" unicode="&#x2665;" horiz-adv-x="860" 
d="M614 671c54 0 99.667 -18.335 137 -55.002s56 -83.667 56 -141c0 -33.333 -8 -64.666 -24 -93.999s-44 -66 -84 -110l-261 -282h-17l-261 282c-40 44 -67.833 80.833 -83.5 110.5s-23.5 60.834 -23.5 93.501c0 57.333 18.667 104.333 56 141s83 55 137 55
c42.667 0 80.167 -11.833 112.5 -35.5s55.833 -54.5 70.5 -92.5c14.667 38 38.5 68.833 71.5 92.5s70.833 35.5 113.5 35.5z" />
    <glyph glyph-name="uni275B" unicode="&#x275b;" horiz-adv-x="645" 
d="M383 425c60 0 111.333 -21.167 154 -63.5s64 -93.833 64 -154.5c0 -60 -21 -111.333 -63 -154s-98.667 -64 -170 -64c-90 0 -166.667 32.667 -230 98s-95 145.666 -95 240.999c0 96 32.333 177.167 97 243.5s146 99.5 244 99.5c76.667 0 145 -23.667 205 -71l-43 -67
c-46 35.333 -98.333 53 -157 53c-72 0 -132.167 -24.667 -180.5 -74s-72.5 -110.666 -72.5 -183.999c0 -45.333 10 -87.333 30 -126v3l-1 2c0 60 21.333 111.333 64 154s94 64 154 64z" />
    <glyph glyph-name="uni275C" unicode="&#x275c;" horiz-adv-x="645" 
d="M277 671c89.333 0 165.668 -32.667 229.001 -98s95 -145.666 95 -240.999c0 -96 -32.167 -177.167 -96.5 -243.5s-145.5 -99.5 -243.5 -99.5c-76.667 0 -145 23.667 -205 71l43 67c46 -35.333 98.333 -53 157 -53c72 0 132.167 24.667 180.5 74
s72.5 110.666 72.5 183.999c0 45.333 -10 87.333 -30 126v-5c0 -60 -21.333 -111.333 -64 -154s-94 -64 -154 -64s-111.333 21.167 -154 63.5s-64 93.833 -64 154.5c0 60 21.167 111.333 63.5 154s99.166 64 170.499 64z" />
    <glyph glyph-name="uni275D" unicode="&#x275d;" horiz-adv-x="1262" 
d="M1001 425c60 0 111.333 -21.167 154 -63.5s64 -93.833 64 -154.5c0 -60 -21.167 -111.333 -63.5 -154s-99.166 -64 -170.499 -64c-89.333 0 -165.666 32.667 -228.999 98s-95 145.666 -95 240.999c0 96 32.167 177.167 96.5 243.5s145.5 99.5 243.5 99.5
c77.333 0 145.666 -23.667 204.999 -71l-42 -67c-46.667 35.333 -99.334 53 -158.001 53c-72 0 -132.167 -24.667 -180.5 -74s-72.5 -110.666 -72.5 -183.999c0 -46 10 -88.333 30 -127v6c0 60 21.333 111.333 64 154s94 64 154 64zM383 425c60 0 111.333 -21.167 154 -63.5
s64 -93.833 64 -154.5c0 -60 -21 -111.333 -63 -154s-98.667 -64 -170 -64c-90 0 -166.667 32.667 -230 98s-95 145.666 -95 240.999c0 96 32.333 177.167 97 243.5s146 99.5 244 99.5c76.667 0 145 -23.667 205 -71l-43 -67c-46 35.333 -98.333 53 -157 53
c-72 0 -132.167 -24.667 -180.5 -74s-72.5 -110.666 -72.5 -183.999c0 -45.333 10 -87.333 30 -126v3l-1 2c0 60 21.333 111.333 64 154s94 64 154 64z" />
    <glyph glyph-name="uni275E" unicode="&#x275e;" horiz-adv-x="1265" 
d="M897 671c89.333 0 165.668 -32.667 229.001 -98s95 -145.666 95 -240.999c0 -96 -32.167 -177.167 -96.5 -243.5s-145.5 -99.5 -243.5 -99.5c-76.667 0 -145 23.667 -205 71l43 67c46 -35.333 98.333 -53 157 -53c72 0 132.167 24.667 180.5 74
s72.5 110.666 72.5 183.999c0 46 -10 88.333 -30 127v-6c0 -60 -21.333 -111.333 -64 -154s-94 -64 -154 -64s-111.333 21.167 -154 63.5s-64 93.833 -64 154.5c0 60 21.167 111.333 63.5 154s99.166 64 170.499 64zM277.002 671c89.333 0 165.668 -32.667 229.001 -98
s95 -145.666 95 -240.999c0 -96 -32.167 -177.167 -96.5 -243.5s-145.5 -99.5 -243.5 -99.5c-76.667 0 -145 23.667 -205 71l43 67c46 -35.333 98.333 -53 157 -53c72 0 132.167 24.667 180.5 74s72.5 110.666 72.5 183.999c0 45.333 -10 87.333 -30 126v-5
c0 -60 -21.333 -111.333 -64 -154s-94 -64 -154 -64s-111.333 21.167 -154 63.5s-64 93.833 -64 154.5c0 60 21.167 111.333 63.5 154s99.166 64 170.499 64z" />
    <glyph glyph-name="uni2776" unicode="&#x2776;" horiz-adv-x="973" 
d="M486 761c119.333 0 221 -42.167 305 -126.5s126 -185.833 126 -304.5s-42 -220.167 -126 -304.5s-185.667 -126.5 -305 -126.5c-118.667 0 -220 42 -304 126s-126 185.667 -126 305s42 221 126 305s185.333 126 304 126zM536 554h-181v-77h90v-295h-96v-77h277v77h-90
v372z" />
    <glyph glyph-name="uni2777" unicode="&#x2777;" horiz-adv-x="973" 
d="M486 761c119.333 0 221 -42.167 305 -126.5s126 -185.833 126 -304.5s-42 -220.167 -126 -304.5s-185.667 -126.5 -305 -126.5c-118.667 0 -220 42 -304 126s-126 185.667 -126 305s42 221 126 305s185.333 126 304 126zM483 561c-47.333 0 -86 -14.668 -116 -44.001
s-45 -64 -45 -104c0 -11.333 1.66699 -24.666 5 -39.999h83c-2.66699 14.667 -4 25.667 -4 33c0 20.667 6.66699 38 20 52s31 21 53 21c20.667 0 37 -6.16699 49 -18.5s18 -28.5 18 -48.5c0 -18.667 -5.16699 -36.167 -15.5 -52.5s-26.833 -36.833 -49.5 -61.5l-158 -174
v-19h331v77h-174l75 80c27.333 28 48.166 53.833 62.499 77.5s21.5 50.167 21.5 79.5c0 41.333 -14.667 75.333 -44 102s-66.666 40 -111.999 40z" />
    <glyph glyph-name="uni2778" unicode="&#x2778;" horiz-adv-x="973" 
d="M486 761c119.333 0 221 -42.167 305 -126.5s126 -185.833 126 -304.5s-42 -220.167 -126 -304.5s-185.667 -126.5 -305 -126.5c-118.667 0 -220 42 -304 126s-126 185.667 -126 305s42 221 126 305s185.333 126 304 126zM634 554h-289.999v-82h153l-96 -132v-24h55
c62 0 93 -21.667 93 -65c0 -21.333 -7.33301 -38.5 -22 -51.5s-33.334 -19.5 -56.001 -19.5c-36 0 -68.333 21 -97 63l-64 -45c16 -30 38 -54.167 66 -72.5s60.333 -27.5 97 -27.5c47.333 0 87.5 14.333 120.5 43s49.5 65.334 49.5 110.001
c0 36.667 -10.833 66.667 -32.5 90s-48.5 38.666 -80.5 45.999l104 143v24z" />
    <glyph glyph-name="uni2779" unicode="&#x2779;" horiz-adv-x="973" 
d="M486 761c119.333 0 221 -42.167 305 -126.5s126 -185.833 126 -304.5s-42 -220.167 -126 -304.5s-185.667 -126.5 -305 -126.5c-118.667 0 -220 42 -304 126s-126 185.667 -126 305s42 221 126 305s185.333 126 304 126zM519 554h-97l-132 -351v-26h226v-72h90v72h57v80
h-57v119h-90v-119h-116z" />
    <glyph glyph-name="uni277A" unicode="&#x277a;" horiz-adv-x="973" 
d="M486 761c119.333 0 221 -42.167 305 -126.5s126 -185.833 126 -304.5s-42 -220.167 -126 -304.5s-185.667 -126.5 -305 -126.5c-118.667 0 -220 42 -304 126s-126 185.667 -126 305s42 221 126 305s185.333 126 304 126zM621 554h-260.002v-238h105
c61.333 0 92 -21.667 92 -65c0 -21.333 -7.5 -38.5 -22.5 -51.5s-34.167 -19.5 -57.5 -19.5c-38 0 -71.333 21 -100 63l-64 -45c15.333 -30.667 37.333 -55.167 66 -73.5s62.334 -27.5 101.001 -27.5c48 0 88.5 14.5 121.5 43.5s49.5 66.5 49.5 112.5
c0 44 -15.167 78.5 -45.5 103.5s-65.833 37.5 -106.5 37.5c-19.333 0 -36.666 -1.33301 -51.999 -4v82h173v82z" />
    <glyph glyph-name="uni277B" unicode="&#x277b;" horiz-adv-x="973" 
d="M486 761c119.333 0 221 -42.167 305 -126.5s126 -185.833 126 -304.5s-42 -220.167 -126 -304.5s-185.667 -126.5 -305 -126.5c-118.667 0 -220 42 -304 126s-126 185.667 -126 305s42 221 126 305s185.333 126 304 126zM593 554l-108 -0.00292969l-112 -155
c-15.333 -22 -26.5 -38.667 -33.5 -50s-13.333 -25.166 -19 -41.499s-8.5 -33.166 -8.5 -50.499c0 -45.333 16.167 -83.166 48.5 -113.499s70.833 -45.5 115.5 -45.5c45.333 0 84.333 15 117 45s49 67.667 49 113c0 35.333 -10.5 66 -31.5 92s-46.833 42.667 -77.5 50
c-18.667 5.33301 -35.667 6 -51 2zM476 332.997c21.333 0 39.168 -7.16602 53.501 -21.499s21.5 -32.5 21.5 -54.5c0 -21.333 -7.33301 -39.5 -22 -54.5s-32.334 -22.5 -53.001 -22.5s-38.167 7.5 -52.5 22.5s-21.5 33.5 -21.5 55.5c0 21.333 7.16699 39.166 21.5 53.499
s31.833 21.5 52.5 21.5z" />
    <glyph glyph-name="uni277C" unicode="&#x277c;" horiz-adv-x="973" 
d="M486 761c119.333 0 221 -42.167 305 -126.5s126 -185.833 126 -304.5s-42 -220.167 -126 -304.5s-185.667 -126.5 -305 -126.5c-118.667 0 -220 42 -304 126s-126 185.667 -126 305s42 221 126 305s185.333 126 304 126zM655 555h-316v-83h195l-185 -366h100l206 424v25z
" />
    <glyph glyph-name="uni277D" unicode="&#x277d;" horiz-adv-x="973" 
d="M486 761c119.333 0 221 -42.167 305 -126.5s126 -185.833 126 -304.5s-42 -220.167 -126 -304.5s-185.667 -126.5 -305 -126.5c-118.667 0 -220 42 -304 126s-126 185.667 -126 305s42 221 126 305s185.333 126 304 126zM487 561
c-43.333 0 -78.833 -10.334 -106.5 -31.001s-41.5 -49.667 -41.5 -87c0 -44 23.667 -79 71 -105c-61.333 -24 -92 -61.667 -92 -113c0 -38.667 15.833 -69.5 47.5 -92.5s72.167 -34.5 121.5 -34.5c50 0 90.5 11.5 121.5 34.5s46.5 53.833 46.5 92.5
c0 51.333 -30 89.333 -90 114c46.667 24.667 70 59.334 70 104.001c0 37.333 -13.833 66.333 -41.5 87s-63.167 31 -106.5 31zM487 489.999c18 0 32.833 -4.83301 44.5 -14.5s17.5 -22.5 17.5 -38.5c0 -26 -21 -47 -63 -63c-40.667 16 -61 37 -61 63
c0 16 5.83301 28.833 17.5 38.5s26.5 14.5 44.5 14.5zM486 305.999c26 -9.33301 45.667 -19.5 59 -30.5s20 -26.167 20 -45.5c0 -18 -6.83301 -32.667 -20.5 -44s-32.834 -17 -57.501 -17c-25.333 0 -44.666 5.83301 -57.999 17.5s-20 26.5 -20 44.5
c0 18.667 6.5 33.5 19.5 44.5s32.167 21.167 57.5 30.5z" />
    <glyph glyph-name="uni277E" unicode="&#x277e;" horiz-adv-x="973" 
d="M487 761c118.667 0 220 -42 304 -126s126 -185.667 126 -305s-42 -221 -126 -305s-185.333 -126 -304 -126c-119.333 0 -221 42.167 -305 126.5s-126 185.833 -126 304.5s42 220.167 126 304.5s185.667 126.5 305 126.5zM497 562c-44.667 0 -83.335 -15 -116.002 -45
s-49 -67.667 -49 -113c0 -35.333 10.333 -66 31 -92s46.334 -42.667 77.001 -50c16.667 -4.66699 33.667 -5.33398 51 -2.00098l-111 -154h108l112 155c16 22.667 27.333 39.334 34 50.001s13 24.334 19 41.001s9 33.667 9 51c0 45.333 -16.167 83.166 -48.5 113.499
s-71.166 45.5 -116.499 45.5zM496.999 480c20.667 0 38.165 -7.50098 52.498 -22.501s21.5 -33.5 21.5 -55.5c0 -21.333 -7.16699 -39.166 -21.5 -53.499s-31.833 -21.5 -52.5 -21.5c-21.333 0 -39.166 7.16699 -53.499 21.5s-21.5 32.5 -21.5 54.5
c0 21.333 7.33301 39.5 22 54.5s32.334 22.5 53.001 22.5z" />
    <glyph glyph-name="uni2780" unicode="&#x2780;" horiz-adv-x="973" 
d="M486 761c119.333 0 221 -42.167 305 -126.5s126 -185.833 126 -304.5s-42 -220.167 -126 -304.5s-185.667 -126.5 -305 -126.5c-118.667 0 -220 42 -304 126s-126 185.667 -126 305s42 221 126 305s185.333 126 304 126zM486 676c-96 0 -177.167 -33.167 -243.5 -99.5
s-99.5 -148.5 -99.5 -246.5s33.167 -180.167 99.5 -246.5s147.5 -99.5 243.5 -99.5s177.333 33.333 244 100s100 148.667 100 246s-33.333 179.333 -100 246s-148 100 -244 100zM536 554v-372h90v-77h-277v77h96v295h-90v77h181z" />
    <glyph glyph-name="uni2781" unicode="&#x2781;" horiz-adv-x="973" 
d="M486 761c119.333 0 221 -42.167 305 -126.5s126 -185.833 126 -304.5s-42 -220.167 -126 -304.5s-185.667 -126.5 -305 -126.5c-118.667 0 -220 42 -304 126s-126 185.667 -126 305s42 221 126 305s185.333 126 304 126zM486 676c-96 0 -177.167 -33.167 -243.5 -99.5
s-99.5 -148.5 -99.5 -246.5s33.167 -180.167 99.5 -246.5s147.5 -99.5 243.5 -99.5s177.333 33.333 244 100s100 148.667 100 246s-33.333 179.333 -100 246s-148 100 -244 100zM483 561c45.333 0 82.666 -13.332 111.999 -39.999s44 -60.667 44 -102
c0 -29.333 -7.16699 -55.833 -21.5 -79.5s-35.166 -49.5 -62.499 -77.5l-75 -80h174v-77h-331v19l158 174c22.667 24.667 39.167 45.167 49.5 61.5s15.5 33.833 15.5 52.5c0 20 -6 36.167 -18 48.5s-28.333 18.5 -49 18.5c-22 0 -39.667 -7 -53 -21s-20 -31.333 -20 -52
c0 -7.33301 1.33301 -18.333 4 -33h-83c-3.33301 15.333 -5 28.666 -5 39.999c0 40 15 74.667 45 104s68.667 44 116 44z" />
    <glyph glyph-name="uni2782" unicode="&#x2782;" horiz-adv-x="973" 
d="M486 761c119.333 0 221 -42.167 305 -126.5s126 -185.833 126 -304.5s-42 -220.167 -126 -304.5s-185.667 -126.5 -305 -126.5c-118.667 0 -220 42 -304 126s-126 185.667 -126 305s42 221 126 305s185.333 126 304 126zM486 676c-96 0 -177.167 -33.167 -243.5 -99.5
s-99.5 -148.5 -99.5 -246.5s33.167 -180.167 99.5 -246.5s147.5 -99.5 243.5 -99.5s177.333 33.333 244 100s100 148.667 100 246s-33.333 179.333 -100 246s-148 100 -244 100zM634 554l-0.000976562 -24l-104 -143c32 -7.33301 58.833 -22.666 80.5 -45.999
s32.5 -53.333 32.5 -90c0 -44.667 -16.5 -81.334 -49.5 -110.001s-73.167 -43 -120.5 -43c-36.667 0 -69 9.16699 -97 27.5s-50 42.5 -66 72.5l64 45c28.667 -42 61 -63 97 -63c22.667 0 41.334 6.5 56.001 19.5s22 30.167 22 51.5c0 43.333 -31 65 -93 65h-55v24l96 132
h-153v82h290z" />
    <glyph glyph-name="uni2783" unicode="&#x2783;" horiz-adv-x="973" 
d="M486 761c119.333 0 221 -42.167 305 -126.5s126 -185.833 126 -304.5s-42 -220.167 -126 -304.5s-185.667 -126.5 -305 -126.5c-118.667 0 -220 42 -304 126s-126 185.667 -126 305s42 221 126 305s185.333 126 304 126zM486 676c-96 0 -177.167 -33.167 -243.5 -99.5
s-99.5 -148.5 -99.5 -246.5s33.167 -180.167 99.5 -246.5s147.5 -99.5 243.5 -99.5s177.333 33.333 244 100s100 148.667 100 246s-33.333 179.333 -100 246s-148 100 -244 100zM519 554l-119 -297h116v119h90v-119h57v-80h-57v-72h-90v72h-226v26l132 351h97z" />
    <glyph glyph-name="uni2784" unicode="&#x2784;" horiz-adv-x="973" 
d="M486 761c119.333 0 221 -42.167 305 -126.5s126 -185.833 126 -304.5s-42 -220.167 -126 -304.5s-185.667 -126.5 -305 -126.5c-118.667 0 -220 42 -304 126s-126 185.667 -126 305s42 221 126 305s185.333 126 304 126zM486 676c-96 0 -177.167 -33.167 -243.5 -99.5
s-99.5 -148.5 -99.5 -246.5s33.167 -180.167 99.5 -246.5s147.5 -99.5 243.5 -99.5s177.333 33.333 244 100s100 148.667 100 246s-33.333 179.333 -100 246s-148 100 -244 100zM622 554l0.00292969 -82h-173v-82c15.333 2.66699 32.666 4 51.999 4
c40.667 0 76.167 -12.5 106.5 -37.5s45.5 -59.5 45.5 -103.5c0 -46 -16.5 -83.5 -49.5 -112.5s-73.5 -43.5 -121.5 -43.5c-38.667 0 -72.334 9.16699 -101.001 27.5s-50.667 42.833 -66 73.5l64 45c28.667 -42 61.667 -63 99 -63c23.333 0 42.666 6.5 57.999 19.5
s23 30.167 23 51.5c0 43.333 -30.667 65 -92 65h-106v238h261z" />
    <glyph glyph-name="uni2785" unicode="&#x2785;" horiz-adv-x="973" 
d="M486 761c119.333 0 221 -42.167 305 -126.5s126 -185.833 126 -304.5s-42 -220.167 -126 -304.5s-185.667 -126.5 -305 -126.5c-118.667 0 -220 42 -304 126s-126 185.667 -126 305s42 221 126 305s185.333 126 304 126zM486 676c-96 0 -177.167 -33.167 -243.5 -99.5
s-99.5 -148.5 -99.5 -246.5s33.167 -180.167 99.5 -246.5s147.5 -99.5 243.5 -99.5s177.333 33.333 244 100s100 148.667 100 246s-33.333 179.333 -100 246s-148 100 -244 100zM593 554l-111 -153.999c15.333 4 32.333 3.33301 51 -2c30.667 -7.33301 56.5 -24 77.5 -50
s31.5 -56.667 31.5 -92c0 -45.333 -16.333 -83 -49 -113s-71.667 -45 -117 -45c-44.667 0 -83.167 15.167 -115.5 45.5s-48.5 68.166 -48.5 113.499c0 24.667 4.5 46.5 13.5 65.5s24.833 44.5 47.5 76.5l112 155h108zM476 333.001
c-20.667 0 -38.1689 -7.16797 -52.502 -21.501s-21.5 -32.166 -21.5 -53.499c0 -22 7.16699 -40.5 21.5 -55.5s31.833 -22.5 52.5 -22.5s38.334 7.5 53.001 22.5s22 33.167 22 54.5c0 22 -7.16699 40.167 -21.5 54.5s-32.166 21.5 -53.499 21.5z" />
    <glyph glyph-name="uni2786" unicode="&#x2786;" horiz-adv-x="973" 
d="M486 761c119.333 0 221 -42.167 305 -126.5s126 -185.833 126 -304.5s-42 -220.167 -126 -304.5s-185.667 -126.5 -305 -126.5c-118.667 0 -220 42 -304 126s-126 185.667 -126 305s42 221 126 305s185.333 126 304 126zM486 676c-96 0 -177.167 -33.167 -243.5 -99.5
s-99.5 -148.5 -99.5 -246.5s33.167 -180.167 99.5 -246.5s147.5 -99.5 243.5 -99.5s177.333 33.333 244 100s100 148.667 100 246s-33.333 179.333 -100 246s-148 100 -244 100zM654 555v-25l-206 -424h-99l184 366h-194v83h315z" />
    <glyph glyph-name="uni2787" unicode="&#x2787;" horiz-adv-x="973" 
d="M486 761c119.333 0 221 -42.167 305 -126.5s126 -185.833 126 -304.5s-42 -220.167 -126 -304.5s-185.667 -126.5 -305 -126.5c-118.667 0 -220 42 -304 126s-126 185.667 -126 305s42 221 126 305s185.333 126 304 126zM486 676c-96 0 -177.167 -33.167 -243.5 -99.5
s-99.5 -148.5 -99.5 -246.5s33.167 -180.167 99.5 -246.5s147.5 -99.5 243.5 -99.5s177.333 33.333 244 100s100 148.667 100 246s-33.333 179.333 -100 246s-148 100 -244 100zM487 561c43.333 0 78.833 -10.332 106.5 -30.999s41.5 -49.667 41.5 -87
c0 -44.667 -23.333 -79.334 -70 -104.001c60 -24.667 90 -62.667 90 -114c0 -38.667 -15.5 -69.5 -46.5 -92.5s-71.5 -34.5 -121.5 -34.5c-49.333 0 -89.833 11.5 -121.5 34.5s-47.5 53.833 -47.5 92.5c0 51.333 30.667 89 92 113c-47.333 26 -71 61 -71 105
c0 37.333 13.833 66.333 41.5 87s63.167 31 106.5 31zM487 490.001c-18 0 -32.833 -4.83301 -44.5 -14.5s-17.5 -22.5 -17.5 -38.5c0 -26 20.333 -47 61 -63c42 16 63 37 63 63c0 16 -5.83301 28.833 -17.5 38.5s-26.5 14.5 -44.5 14.5zM486 306.001
c-25.333 -9.33301 -44.5 -19.5 -57.5 -30.5s-19.5 -25.833 -19.5 -44.5c0 -18 6.66699 -32.833 20 -44.5s32.666 -17.5 57.999 -17.5c24.667 0 43.834 5.66699 57.501 17s20.5 26 20.5 44c0 19.333 -6.66699 34.5 -20 45.5s-33 21.167 -59 30.5z" />
    <glyph glyph-name="uni2788" unicode="&#x2788;" horiz-adv-x="973" 
d="M487 761c118.667 0 220 -42 304 -126s126 -185.667 126 -305s-42 -221 -126 -305s-185.333 -126 -304 -126c-119.333 0 -221 42.167 -305 126.5s-126 185.833 -126 304.5s42 220.167 126 304.5s185.667 126.5 305 126.5zM487 676c-96.667 0 -178.167 -33.333 -244.5 -100
s-99.5 -148.667 -99.5 -246s33.167 -179.333 99.5 -246s147.833 -100 244.5 -100c96 0 177.167 33.167 243.5 99.5s99.5 148.5 99.5 246.5s-33.167 180.167 -99.5 246.5s-147.5 99.5 -243.5 99.5zM497 562c45.333 0 84.167 -15.167 116.5 -45.5s48.5 -68.166 48.5 -113.499
c0 -17.333 -3 -34.333 -9 -51s-12.333 -30.334 -19 -41.001s-18 -27.334 -34 -50.001l-112 -155h-108l111 154c-17.333 -3.33301 -34.333 -2.66602 -51 2.00098c-30.667 7.33301 -56.334 24 -77.001 50s-31 56.667 -31 92c0 45.333 16.333 83 49 113s71.334 45 116.001 45z
M497.001 480c-20.667 0 -38.332 -7.49902 -52.999 -22.499s-22 -33.167 -22 -54.5c0 -22 7.16699 -40.167 21.5 -54.5s32.166 -21.5 53.499 -21.5c20.667 0 38.167 7.16699 52.5 21.5s21.5 32.166 21.5 53.499c0 22 -7.16699 40.5 -21.5 55.5s-31.833 22.5 -52.5 22.5z" />
    <glyph glyph-name="uni27F5" unicode="&#x27f5;" horiz-adv-x="1216" 
d="M1167 272l-888 1l-69 2l178 -178l-63 -62l-272 272v21l272 272l63 -62l-176 -176l67 1h888v-91z" />
    <glyph glyph-name="uni27F6" unicode="&#x27f6;" horiz-adv-x="1216" 
d="M891 600l272 -272v-21l-272 -272l-63 62l178 178l-69 -2l-888 -1v91h888l67 -1l-176 176z" />
    <glyph glyph-name="uniF8FF" unicode="&#xf8ff;" horiz-adv-x="722" 
d="M99 0v660h524v-660h-524zM458 123c24 0 43.332 7.50195 57.999 22.502s22 32.833 22 53.5c0 18 -5.66699 36.5 -17 55.5s-26.333 34.167 -45 45.5l-24 -25c30 -28.667 45 -54 45 -76c0 -11.333 -3.33301 -20.666 -10 -27.999s-15.667 -11 -27 -11
c-15.333 0 -29.666 9 -42.999 27s-31.333 52.333 -54 103c54.667 31.333 91.5 57.166 110.5 77.499s28.5 41.166 28.5 62.499c0 26 -9.16699 46.167 -27.5 60.5s-43.166 21.5 -74.499 21.5c-7.33301 0 -18.333 -0.666992 -33 -2l26 55l-41 7l-33 -71
c-30.667 -6 -65 -18 -103 -36c-15.333 -42.667 -23 -96.334 -23 -161.001c0 -53.333 6.66699 -106 20 -158l42 -8c15.333 77.333 29.666 139.5 42.999 186.5s30.666 96.167 51.999 147.5c13.333 2.66699 27 4 41 4c46.667 0 70 -16.667 70 -50c0 -16 -8.83301 -32 -26.5 -48
s-55.5 -40.667 -113.5 -74l-1 -6c26 -66 48.333 -111.667 67 -137s42.334 -38 71.001 -38zM230.999 202.002c-1.33301 23.333 -2 50.332 -2 80.999c0 58.667 7.66699 111 23 157c16 8.66699 33 15.334 51 20.001c-34 -86.667 -55.667 -172.667 -65 -258h-7z" />
    <glyph glyph-name=".null" horiz-adv-x="0" 
 />
    <glyph glyph-name="nonmarkingreturn" horiz-adv-x="333" 
 />
    <glyph glyph-name="Alpha.ordn" horiz-adv-x="431" 
d="M323 244l-22 58h-170l-22 -58h-92l185 423h28l185 -423h-92zM276 368l-60 146l-61 -146h121z" />
    <glyph glyph-name="Eta.ordn" horiz-adv-x="477" 
d="M415 660v-416h-86v180h-182v-180h-85v416h85v-159h182v159h86z" />
    <glyph glyph-name="Nu.ordn" horiz-adv-x="477" 
d="M329 660h86v-423h-30l-238 250v-243h-85v423h29l238 -248v241z" />
    <glyph glyph-name="Omicron.ordn" horiz-adv-x="506" 
d="M252 667c61.333 0 113.5 -20.667 156.5 -62s64.5 -92.333 64.5 -153s-21.5 -111.667 -64.5 -153s-95.167 -62 -156.5 -62s-113.166 20.667 -155.499 62s-63.5 92.333 -63.5 153s21.167 111.667 63.5 153s94.166 62 155.499 62zM253 588
c-39.333 0 -71.333 -12.667 -96 -38s-37 -58 -37 -98s12.333 -72.667 37 -98s56.667 -38 96 -38c38 0 69.667 12.833 95 38.5s38 58.167 38 97.5s-12.667 71.833 -38 97.5s-57 38.5 -95 38.5z" />
    <glyph glyph-name="Rho.ordn" horiz-adv-x="391" 
d="M218 660c44 0 79.667 -12.167 107 -36.5s41 -56.5 41 -96.5c0 -39.333 -13.833 -71.5 -41.5 -96.5s-63.167 -37.5 -106.5 -37.5h-74v-149h-82v416h156zM217 588h-73v-123h73c20.667 0 36.834 5.66699 48.501 17s17.5 26.333 17.5 45c0 18 -5.83301 32.667 -17.5 44
s-27.834 17 -48.501 17z" />
    <glyph glyph-name="Sigma.ordn" horiz-adv-x="374" 
d="M169 321h177v-77h-310v18l124 195l-124 184v19h303v-78h-167l81 -116v-17z" />
    <glyph glyph-name="Upsilon.ordn" horiz-adv-x="405" 
d="M385 660l-139 -252v-164h-85v162l-141 254h94l89 -164l89 164h93z" />
    <glyph glyph-name="alpha.ordn" horiz-adv-x="427" 
d="M392 315h17v-71c-12 -4 -27 -6 -45 -6c-37.333 0 -62.333 15.333 -75 46c-22.667 -31.333 -56.667 -47 -102 -47c-44.667 0 -81.167 15.333 -109.5 46s-42.5 69.667 -42.5 117s14.167 86.333 42.5 117s64.833 46 109.5 46c43.333 0 76.333 -15 99 -45v38h78v-207
c0 -13.333 2.16699 -22.333 6.5 -27s11.5 -7 21.5 -7zM202 314c21.333 0 39.667 7.33301 55 22s23 35.667 23 63c0 28 -7.66699 49.5 -23 64.5s-34 22.5 -56 22.5s-41 -8 -57 -24s-24 -36.667 -24 -62c0 -26 8 -46.833 24 -62.5s35.333 -23.5 58 -23.5z" />
    <glyph glyph-name="eta.ordn" horiz-adv-x="399" 
d="M228 563c36.667 0 65.666 -11.5 86.999 -34.5s32 -53.5 32 -91.5v-306h-85v294c0 18 -5.16699 32.667 -15.5 44s-23.833 17 -40.5 17s-30.5 -5.66699 -41.5 -17s-16.5 -26 -16.5 -44v-181h-85v203c0 26 -8.66699 39 -26 39c-4.66699 0 -11 -0.333008 -19 -1v71
c12 4 27.667 6 47 6c32.667 0 55.334 -11.667 68.001 -35c26 24 57.667 36 95 36z" />
    <glyph glyph-name="nu.ordn" horiz-adv-x="359" 
d="M256 556h89l-152 -319h-27l-152 319h89l77 -173z" />
    <glyph glyph-name="omicron.ordn" horiz-adv-x="404" 
d="M202 562c46 0 85.333 -15.668 118 -47.001s49 -70 49 -116c0 -45.333 -16.333 -83.666 -49 -114.999s-72 -47 -118 -47c-46.667 0 -86.167 15.5 -118.5 46.5s-48.5 69.5 -48.5 115.5s16.167 84.667 48.5 116s71.833 47 118.5 47zM202 485.999
c-24.667 0 -44.667 -7.99902 -60 -23.999s-23 -37 -23 -63c0 -25.333 7.66699 -46 23 -62s35.333 -24 60 -24s44.5 8 59.5 24s22.5 36.667 22.5 62s-7.5 46.166 -22.5 62.499s-34.833 24.5 -59.5 24.5z" />
    <glyph glyph-name="rho.ordn" horiz-adv-x="417" 
d="M217 563c48.667 0 88.333 -15.332 119 -45.999s46 -70 46 -118c0 -46.667 -14.333 -85.334 -43 -116.001s-65 -46 -109 -46c-38 0 -69 12 -93 36v-142h-84v266c0 50 15 90.167 45 120.5s69.667 45.5 119 45.5zM213.999 314.001c23.333 0 42.998 7.83301 58.998 23.5
s24 36.167 24 61.5c0 26 -8 47 -24 63s-35.667 24 -59 24c-21.333 0 -39.666 -7.33301 -54.999 -22s-23 -36 -23 -64c0 -27.333 7.83301 -48.5 23.5 -63.5s33.834 -22.5 54.501 -22.5z" />
    <glyph glyph-name="uni03C2.ordn" horiz-adv-x="354" 
d="M201 563c61.333 0 106.668 -25.6689 136.001 -77.002l-59 -47c-20.667 30.667 -47 46 -79 46c-22.667 0 -41.5 -7.16699 -56.5 -21.5s-22.5 -33.5 -22.5 -57.5c0 -24.667 8.5 -43.834 25.5 -57.501s40.5 -25.5 70.5 -35.5c16 -5.33301 28 -9.66602 36 -12.999
s18.5 -9.16602 31.5 -17.499s22.5 -18.833 28.5 -31.5s9 -27.667 9 -45c0 -28 -6.33301 -53 -19 -75h-83c11.333 26.667 17 46.334 17 59.001c0 24 -17.667 41 -53 51c-20 6.66699 -36.833 13.167 -50.5 19.5s-28.834 15.333 -45.501 27s-29.5 27 -38.5 46
s-13.5 40.833 -13.5 65.5c0 48 15.833 87.333 47.5 118s71.167 46 118.5 46z" />
    <glyph glyph-name="sigma.ordn" horiz-adv-x="415" 
d="M408 556v-71.999h-74c22.667 -24.667 34 -55 34 -91c0 -42.667 -16.333 -79.334 -49 -110.001s-72 -46 -118 -46s-85.167 15.5 -117.5 46.5s-48.5 69.833 -48.5 116.5c0 46 16 83.5 48 112.5s73.667 43.5 125 43.5h200zM201 314.001c23.333 0 42.833 8.16699 58.5 24.5
s23.5 36.5 23.5 60.5c0 24.667 -7.83301 44.834 -23.5 60.501s-35.167 23.5 -58.5 23.5s-42.666 -7.83301 -57.999 -23.5s-23 -35.834 -23 -60.501c0 -24 7.66699 -44.167 23 -60.5s34.666 -24.5 57.999 -24.5z" />
    <glyph glyph-name="upsilon.ordn" horiz-adv-x="383" 
d="M315 556c17.333 -60 26.0029 -112.334 26.0029 -157.001c0 -53.333 -13.333 -93.666 -40 -120.999s-61.334 -41 -104.001 -41s-77.334 13 -104.001 39s-40 61.667 -40 107v173h84v-180c0 -20 5.16699 -35.5 15.5 -46.5s24.166 -16.5 41.499 -16.5
c18 0 32.833 6.83301 44.5 20.5s17.5 35.167 17.5 64.5c0 41.333 -7.66699 94 -23 158h82z" />
    <glyph glyph-name="zero.lf" horiz-adv-x="625" 
d="M313 671c82.667 0 145.166 -30.667 187.499 -92s63.5 -142.333 63.5 -243c0 -101.333 -21.167 -184.5 -63.5 -249.5s-104.833 -97.5 -187.5 -97.5c-56 0 -103.5 16 -142.5 48s-67 73.5 -84 124.5s-25.5 109.167 -25.5 174.5c0 100 21.333 180.833 64 242.5
s105.334 92.5 188.001 92.5zM312.999 574c-94.667 0 -142 -79.667 -142 -239c0 -166 47.333 -249 142 -249c94 0 141 83 141 249c0 159.333 -47 239 -141 239z" />
    <glyph glyph-name="one.lf" horiz-adv-x="390" 
d="M253 660h37v-660h-106v535l-134 -43l-26 93z" />
    <glyph glyph-name="two.lf" horiz-adv-x="572" 
d="M240 92l278.999 -0.00195312v-92h-473v24l235 253c36.667 39.333 63.334 72.333 80.001 99s25 54 25 82c0 33.333 -10 61 -30 83s-46.667 33 -80 33s-60.333 -11.5 -81 -34.5s-31 -51.5 -31 -85.5c0 -14 1.66699 -31 5 -51h-107c-4.66699 18 -7 37 -7 57
c0 56 20.333 105.167 61 147.5s94.334 63.5 161.001 63.5c63.333 0 115.666 -19.5 156.999 -58.5s62 -87.833 62 -146.5c0 -43.333 -11.667 -83.666 -35 -120.999s-58.333 -80.666 -105 -129.999z" />
    <glyph glyph-name="three.lf" horiz-adv-x="543" 
d="M319 416c48.667 -8.66699 90 -30.833 124 -66.5s51 -81.5 51 -137.5c0 -66 -23.5 -119.667 -70.5 -161s-103.833 -62 -170.5 -62c-53.333 0 -99.833 13.167 -139.5 39.5s-70.5 60.833 -92.5 103.5l74 52c42.667 -65.333 94.334 -98 155.001 -98
c39.333 0 71.666 11.5 96.999 34.5s38 53.167 38 90.5s-13.167 66 -39.5 86s-63.833 30 -112.5 30h-73v29l155 207h-247v97h411v-29z" />
    <glyph glyph-name="four.lf" horiz-adv-x="562" 
d="M544 206v-91h-90v-115h-106v115h-330v29l211 516h109l-186 -454h196v203h106v-203h90z" />
    <glyph glyph-name="five.lf" horiz-adv-x="559" 
d="M285 419c61.333 0 114.166 -17.999 158.499 -53.999s66.5 -86.667 66.5 -152c0 -66.667 -23.667 -120.667 -71 -162s-104.666 -62 -171.999 -62c-54.667 0 -102.167 13 -142.5 39s-71.833 60.333 -94.5 103l74 53c42 -65.333 95.333 -98 160 -98
c39.333 0 72 11.333 98 34s39 53 39 91c0 37.333 -13.167 66.166 -39.5 86.499s-63.833 30.5 -112.5 30.5h-152v332h361v-95h-257v-154c28 5.33301 56 8 84 8z" />
    <glyph glyph-name="six.lf" horiz-adv-x="556" 
d="M295 438c58.667 0 109.5 -21.165 152.5 -63.498s64.5 -94.833 64.5 -157.5c0 -64.667 -22.833 -118.834 -68.5 -162.501s-100.834 -65.5 -165.501 -65.5s-119.667 21.833 -165 65.5s-68 98.167 -68 163.5c0 25.333 4.5 50.666 13.5 75.999s18.5 46 28.5 62
s26 39.667 48 71l165 233h125l-159 -225c8.66699 2 18.334 3 29.001 3zM278 86.002c36 0 66.5 12.5 91.5 37.5s37.5 56.167 37.5 93.5s-12.5 68.5 -37.5 93.5s-55.5 37.5 -91.5 37.5c-36.667 0 -67.334 -12.5 -92.001 -37.5s-37 -56.167 -37 -93.5s12.333 -68.5 37 -93.5
s55.334 -37.5 92.001 -37.5z" />
    <glyph glyph-name="seven.lf" horiz-adv-x="513" 
d="M36 660h453v-29l-319 -631h-115l291 565h-310v95z" />
    <glyph glyph-name="eight.lf" horiz-adv-x="583" 
d="M388 343c95.333 -36.667 142.999 -93.667 142.999 -171c0 -55.333 -22.167 -99.666 -66.5 -132.999s-101.833 -50 -172.5 -50c-71.333 0 -129.333 16.667 -174 50s-67 77.666 -67 132.999c0 77.333 47.667 134.333 143 171c-74.667 38.667 -112 91.667 -112 159
c0 53.333 19.833 94.833 59.5 124.5s89.834 44.5 150.501 44.5c60 0 109.667 -14.833 149 -44.5s59 -71.167 59 -124.5c0 -68 -37.333 -121 -112 -159zM291.999 584c-32 0 -58.167 -7.66699 -78.5 -23s-30.5 -36.333 -30.5 -63c0 -24 8.66699 -43.667 26 -59
s44.666 -31.333 81.999 -48c36.667 16 63.834 31.833 81.501 47.5s26.5 35.5 26.5 59.5c0 26.667 -10 47.667 -30 63s-45.667 23 -77 23zM291.999 77c42.667 0 75.333 9 98 27s34 42 34 72s-11.167 53.667 -33.5 71s-55.5 34 -99.5 50c-44 -15.333 -77.167 -32 -99.5 -50
s-33.5 -41.667 -33.5 -71c0 -30 11.667 -54 35 -72s56.333 -27 99 -27z" />
    <glyph glyph-name="nine.lf" horiz-adv-x="556" 
d="M279 671c64 0 118.834 -21.835 164.501 -65.502s68.5 -98.167 68.5 -163.5c0 -25.333 -4.66699 -50.666 -14 -75.999s-18.833 -45.833 -28.5 -61.5s-25.834 -39.5 -48.501 -71.5l-164 -233h-126l159 225c-8.66699 -2 -18.334 -3 -29.001 -3
c-58 0 -108.5 21.167 -151.5 63.5s-64.5 94.833 -64.5 157.5c0 64.667 22.833 118.834 68.5 162.501s100.834 65.5 165.501 65.5zM279.001 311.998c36 0 66.333 12.667 91 38s37 56.333 37 93c0 37.333 -12.333 68.5 -37 93.5s-55 37.5 -91 37.5
c-36.667 0 -67.5 -12.5 -92.5 -37.5s-37.5 -56.167 -37.5 -93.5s12.5 -68.5 37.5 -93.5s55.833 -37.5 92.5 -37.5z" />
    <glyph glyph-name="zero.slash.lf" horiz-adv-x="625" 
d="M313 671c82.667 0 145.166 -30.667 187.499 -92s63.5 -142.333 63.5 -243c0 -101.333 -21.167 -184.5 -63.5 -249.5s-104.833 -97.5 -187.5 -97.5c-56 0 -103.5 16 -142.5 48s-67 73.5 -84 124.5s-25.5 109.167 -25.5 174.5c0 100 21.333 180.833 64 242.5
s105.334 92.5 188.001 92.5zM312.999 577c-97.333 0 -146 -80.667 -146 -242c0 -32 2 -61 6 -87l256 255c-24 49.333 -62.667 74 -116 74zM312.999 83c49.333 0 85.833 22.3311 109.5 66.998s35.5 106.334 35.5 185.001c0 30.667 -1.33301 56.334 -4 77.001l-255 -255
c24 -49.333 62 -74 114 -74z" />
    <glyph glyph-name="zero.slash" horiz-adv-x="661" 
d="M330 546c78.667 0 145.833 -27 201.5 -81s83.5 -120 83.5 -198s-27.833 -144 -83.5 -198s-123.167 -81 -202.5 -81c-78.667 0 -145.5 27 -200.5 81s-82.5 120 -82.5 198s27.5 144 82.5 198s122.167 81 201.5 81zM329.999 452c-51.333 0 -93.833 -17.5 -127.5 -52.5
s-50.5 -79.167 -50.5 -132.5c0 -36.667 8 -69 24 -97l253 254c-29.333 18.667 -62.333 28 -99 28zM329.999 82c51.333 0 94.166 17.5 128.499 52.5s51.5 79.167 51.5 132.5c0 35.333 -8.66699 68.333 -26 99l-255 -255c28.667 -19.333 62.334 -29 101.001 -29z" />
    <glyph glyph-name="zero.tf" 
d="M280 671c78 0 137.002 -30.333 177.002 -91s60 -142 60 -244c0 -103.333 -19.833 -187 -59.5 -251s-98.834 -96 -177.501 -96s-137.834 32 -177.501 96s-59.5 147.667 -59.5 251c0 102 20 183.333 60 244s99 91 177 91zM280.002 574c-84.667 0 -127 -79.667 -127 -239
c0 -166 42.333 -249 127 -249s127 83 127 249c0 159.333 -42.333 239 -127 239z" />
    <glyph glyph-name="one.tf" 
d="M359 92h165v-92h-457v92h186v446l-169 -46l-25 93l264 75h36v-568z" />
    <glyph glyph-name="two.tf" 
d="M242 92l277.999 0.000976562v-92h-472v24l235 253c36.667 39.333 63.334 72.333 80.001 99s25 54 25 82c0 33.333 -10 61 -30 83s-46.667 33 -80 33c-34 0 -61.167 -11.5 -81.5 -34.5s-30.5 -51.5 -30.5 -85.5c0 -18.667 1.66699 -35.667 5 -51h-108
c-4.66699 18 -7 37 -7 57c0 56 20.5 105.167 61.5 147.5s94.833 63.5 161.5 63.5c63.333 0 115.5 -19.5 156.5 -58.5s61.5 -87.833 61.5 -146.5c0 -43.333 -11.667 -83.833 -35 -121.5s-58 -80.834 -104 -129.501z" />
    <glyph glyph-name="three.tf" 
d="M320 416c48 -8.66699 89.1689 -30.832 123.502 -66.499s51.5 -81.834 51.5 -138.501c0 -65.333 -23.333 -118.666 -70 -159.999s-103.667 -62 -171 -62c-52.667 0 -98.834 13.167 -138.501 39.5s-70.834 60.833 -93.501 103.5l74 52
c42.667 -65.333 94.334 -98 155.001 -98c39.333 0 71.666 11.5 96.999 34.5s38 53.167 38 90.5s-13 66.166 -39 86.499s-63.667 30.5 -113 30.5h-73v28l156 209h-248v95h412v-29z" />
    <glyph glyph-name="four.tf" 
d="M529 206v-91h-79v-115h-106v115h-325v29l189 516h110l-166 -454h192v203h106v-203h79z" />
    <glyph glyph-name="five.tf" 
d="M288 419c61.333 0 113.999 -18 157.999 -54s66 -86.667 66 -152c0 -66.667 -23.5 -120.667 -70.5 -162s-104.167 -62 -171.5 -62c-54.667 0 -102.167 13 -142.5 39s-71.833 60.333 -94.5 103l74 53c42 -65.333 95.333 -98 160 -98c40 0 72.833 11.333 98.5 34
s38.5 53 38.5 91c0 37.333 -13.167 66 -39.5 86s-64.166 30 -113.499 30h-151v333h361v-95h-258v-154c28 5.33301 56.333 8 85 8z" />
    <glyph glyph-name="six.tf" 
d="M297 438c58.667 0 109.5 -21.165 152.5 -63.498s64.5 -94.833 64.5 -157.5c0 -64.667 -23 -118.834 -69 -162.501s-101 -65.5 -165 -65.5c-64.667 0 -119.834 21.833 -165.501 65.5s-68.5 98.167 -68.5 163.5c0 25.333 4.66699 50.666 14 75.999s19 46 29 62
s26.333 39.667 49 71l164 233h125l-159 -225c8.66699 2 18.334 3 29.001 3zM280 86.002c36.667 0 67.167 12.5 91.5 37.5s36.5 56.167 36.5 93.5s-12.167 68.5 -36.5 93.5s-54.833 37.5 -91.5 37.5s-67.167 -12.5 -91.5 -37.5s-36.5 -56.167 -36.5 -93.5
s12.167 -68.5 36.5 -93.5s54.833 -37.5 91.5 -37.5z" />
    <glyph glyph-name="seven.tf" 
d="M64 660h453v-29l-319 -631h-115l291 565h-310v95z" />
    <glyph glyph-name="eight.tf" 
d="M377 343c94.667 -36.667 142 -93.667 142 -171c0 -55.333 -22 -99.666 -66 -132.999s-101.667 -50 -173 -50s-129 16.667 -173 50s-66 77.666 -66 132.999c0 78.667 47 136 141 172c-74 38 -111 90.667 -111 158c0 53.333 19.667 94.833 59 124.5s89.333 44.5 150 44.5
s110.667 -14.833 150 -44.5s59 -71.167 59 -124.5c0 -68 -37.333 -121 -112 -159zM280 584c-31.333 0 -57.1689 -7.66699 -77.502 -23s-30.5 -36.333 -30.5 -63c0 -24 8.83301 -43.833 26.5 -59.5s44.834 -31.5 81.501 -47.5c36.667 16 63.834 31.833 81.501 47.5
s26.5 35.5 26.5 59.5c0 26.667 -10 47.667 -30 63s-46 23 -78 23zM279.997 77c43.333 0 76.332 9.16699 98.999 27.5s34 42.166 34 71.499s-11.167 52.833 -33.5 70.5s-55.833 34.5 -100.5 50.5c-43.333 -15.333 -76.166 -32 -98.499 -50s-33.5 -41.667 -33.5 -71
s11.333 -53.166 34 -71.499s55.667 -27.5 99 -27.5z" />
    <glyph glyph-name="nine.tf" 
d="M280 671c64.667 0 119.833 -21.835 165.5 -65.502s68.5 -98.167 68.5 -163.5c0 -25.333 -4.66699 -50.666 -14 -75.999s-19 -46 -29 -62s-26.333 -39.667 -49 -71l-164 -233h-125l159 225c-9.33301 -2 -19 -3 -29 -3c-58.667 0 -109.5 21.167 -152.5 63.5
s-64.5 94.833 -64.5 157.5c0 64.667 23 118.834 69 162.501s101 65.5 165 65.5zM279.999 311.998c36.667 0 67.167 12.5 91.5 37.5s36.5 56.167 36.5 93.5s-12.167 68.5 -36.5 93.5s-54.833 37.5 -91.5 37.5s-67.167 -12.5 -91.5 -37.5s-36.5 -56.167 -36.5 -93.5
s12.167 -68.5 36.5 -93.5s54.833 -37.5 91.5 -37.5z" />
    <glyph glyph-name="zero.slash.tf" 
d="M280 671c78 0 137.002 -30.333 177.002 -91s60 -142 60 -244c0 -103.333 -19.833 -187 -59.5 -251s-98.834 -96 -177.501 -96s-137.834 32 -177.501 96s-59.5 147.667 -59.5 251c0 102 20 183.333 60 244s99 91 177 91zM280.002 580c-90 0 -135 -81.668 -135 -245.001
c0 -31.333 1.33301 -57.666 4 -78.999l242 242c-21.333 54.667 -58.333 82 -111 82zM280.002 79.999c90 0 135.001 85.001 135.001 255.001c0 23.333 -1 45.666 -3 66.999l-241 -240c23.333 -54.667 59.666 -82 108.999 -82z" />
    <glyph glyph-name="zero.tosf" 
d="M280 546c72.667 0 133.168 -26.333 181.501 -79s72.5 -119.334 72.5 -200.001s-24.333 -147.334 -73 -200.001s-109.334 -79 -182.001 -79s-133 26.333 -181 79s-72 119.334 -72 200.001s24.167 147.334 72.5 200.001s108.833 79 181.5 79zM280.001 449
c-44 0 -79.333 -16.667 -106 -50s-40 -77.333 -40 -132s13.167 -98.667 39.5 -132s61.5 -50 105.5 -50s79.333 16.667 106 50s40 77.333 40 132c0 54 -13.167 97.833 -39.5 131.5s-61.5 50.5 -105.5 50.5z" />
    <glyph glyph-name="one.tosf" 
d="M352 535v-444h171v-91h-463v91h186v348h-171v96h277z" />
    <glyph glyph-name="two.tosf" 
d="M273 91l234.001 -0.000976562v-91h-472v24l202 151c32.667 24.667 57 43.834 73 57.501s31 31.334 45 53.001s21 43.5 21 65.5c0 28.667 -9.5 52.167 -28.5 70.5s-44.5 27.5 -76.5 27.5c-33.333 0 -59.5 -10 -78.5 -30s-28.5 -44.667 -28.5 -74
c0 -8 1.33301 -23.333 4 -46h-103c-5.33301 20 -8 38.667 -8 56c0 51.333 20 96 60 134s92 57 156 57c61.333 0 111.666 -17.833 150.999 -53.5s59 -80.834 59 -135.501c0 -44 -13.167 -83 -39.5 -117s-66.5 -71.333 -120.5 -112z" />
    <glyph glyph-name="three.tosf" 
d="M322 294c48 -9.33301 88.833 -31.833 122.5 -67.5s50.5 -81.167 50.5 -136.5c0 -66 -23.5 -119.667 -70.5 -161s-103.833 -62 -170.5 -62c-52.667 0 -98.834 13.167 -138.501 39.5s-70.834 60.5 -93.501 102.5l74 53c42.667 -65.333 94.334 -98 155.001 -98
c39.333 0 71.833 11.5 97.5 34.5s38.5 53.167 38.5 90.5s-13.167 66.333 -39.5 87s-64.166 31 -113.499 31h-70v29l152 203h-247v96h412v-29z" />
    <glyph glyph-name="four.tosf" 
d="M525 91v-91h-79v-121h-105v121h-325v29l184 506h111l-163 -444h193v204h105v-204h79z" />
    <glyph glyph-name="five.tosf" 
d="M288 299c61.333 0 114 -18.332 158 -54.999s66 -87.667 66 -153c0 -66.667 -23.333 -120.667 -70 -162s-103.667 -62 -171 -62c-54.667 0 -102.334 13.167 -143.001 39.5s-72 60.5 -94 102.5l73 53c44 -65.333 97.667 -98 161 -98c39.333 0 72 11.5 98 34.5
s39 53.5 39 91.5c0 37.333 -13.167 66.166 -39.5 86.499s-64.166 30.5 -113.499 30.5h-151v328h361v-96h-259v-149c32.667 6 61 9 85 9z" />
    <glyph glyph-name="six.tosf" 
d="M297 438c58.667 0 109.5 -21.165 152.5 -63.498s64.5 -94.833 64.5 -157.5c0 -64.667 -23 -118.834 -69 -162.501s-101 -65.5 -165 -65.5c-64.667 0 -119.834 21.833 -165.501 65.5s-68.5 98.167 -68.5 163.5c0 25.333 4.66699 50.666 14 75.999s19 46 29 62
s26.333 39.667 49 71l164 233h125l-159 -225c8.66699 2 18.334 3 29.001 3zM280 86.002c36.667 0 67.167 12.5 91.5 37.5s36.5 56.167 36.5 93.5s-12.167 68.5 -36.5 93.5s-54.833 37.5 -91.5 37.5s-67.167 -12.5 -91.5 -37.5s-36.5 -56.167 -36.5 -93.5
s12.167 -68.5 36.5 -93.5s54.833 -37.5 91.5 -37.5z" />
    <glyph glyph-name="seven.tosf" 
d="M64 535h453v-29l-318 -627h-114l289 560h-310v96z" />
    <glyph glyph-name="eight.tosf" 
d="M377 343c94.667 -36.667 142 -93.667 142 -171c0 -55.333 -22 -99.666 -66 -132.999s-101.667 -50 -173 -50s-129 16.667 -173 50s-66 77.666 -66 132.999c0 78.667 47 136 141 172c-74 38 -111 90.667 -111 158c0 53.333 19.667 94.833 59 124.5s89.333 44.5 150 44.5
s110.667 -14.833 150 -44.5s59 -71.167 59 -124.5c0 -68 -37.333 -121 -112 -159zM280 584c-31.333 0 -57.1689 -7.66699 -77.502 -23s-30.5 -36.333 -30.5 -63c0 -24 8.83301 -43.833 26.5 -59.5s44.834 -31.5 81.501 -47.5c36.667 16 63.834 31.833 81.501 47.5
s26.5 35.5 26.5 59.5c0 26.667 -10 47.667 -30 63s-46 23 -78 23zM279.997 77c43.333 0 76.332 9.16699 98.999 27.5s34 42.166 34 71.499s-11.167 52.833 -33.5 70.5s-55.833 34.5 -100.5 50.5c-43.333 -15.333 -76.166 -32 -98.499 -50s-33.5 -41.667 -33.5 -71
s11.333 -53.166 34 -71.499s55.667 -27.5 99 -27.5z" />
    <glyph glyph-name="nine.tosf" 
d="M280 546c64.667 0 119.832 -21.834 165.499 -65.501s68.5 -98.167 68.5 -163.5c0 -25.333 -4.33301 -50 -13 -74s-18.167 -44.333 -28.5 -61s-27.166 -41 -50.499 -73l-161 -230h-125l156 222c-9.33301 -2 -19 -3 -29 -3c-58 0 -108.667 21.167 -152 63.5
s-65 94.5 -65 156.5c0 64.667 23 118.834 69 162.501s101 65.5 165 65.5zM279.998 186.999c36.667 0 67.167 12.501 91.5 37.501s36.5 56.167 36.5 93.5s-12.167 68.666 -36.5 93.999s-54.833 38 -91.5 38s-67.167 -12.5 -91.5 -37.5s-36.5 -56.5 -36.5 -94.5
c0 -37.333 12.167 -68.5 36.5 -93.5s54.833 -37.5 91.5 -37.5z" />
    <glyph glyph-name="zero.slash.tosf" 
d="M280 546c72.667 0 133.168 -26.333 181.501 -79s72.5 -119.334 72.5 -200.001s-24.333 -147.334 -73 -200.001s-109.334 -79 -182.001 -79s-133 26.333 -181 79s-72 119.334 -72 200.001s24.167 147.334 72.5 200.001s108.833 79 181.5 79zM280.001 456
c-46.667 0 -83.833 -17.5 -111.5 -52.5s-41.5 -80.5 -41.5 -136.5c0 -32 4.33301 -60 13 -84l237 236c-26 24.667 -58.333 37 -97 37zM280.002 77c46.667 0 83.833 17.667 111.5 53s41.5 81 41.5 137c0 31.333 -4.66699 60.333 -14 87l-237 -238c26 -26 58.667 -39 98 -39z
" />
    <glyph glyph-name="zero.dnom" horiz-adv-x="415" 
d="M208 423c53.333 0 93.666 -19.333 120.999 -58s41 -89.667 41 -153c0 -64 -13.667 -116.5 -41 -157.5s-67.666 -61.5 -120.999 -61.5s-93.666 20.5 -120.999 61.5s-41 93.5 -41 157.5c0 63.333 13.667 114.333 41 153s67.666 58 120.999 58zM208 347
c-52 0 -78 -45.333 -78 -136c0 -95.333 26 -143 78 -143s78 47.667 78 143c0 90.667 -26 136 -78 136z" />
    <glyph glyph-name="one.dnom" horiz-adv-x="361" 
d="M232 416v-341h88v-75h-275v75h104v266h-98v75h181z" />
    <glyph glyph-name="two.dnom" horiz-adv-x="376" 
d="M184 75l152.999 0.000976562v-75h-303v18l148 160c38.667 42.667 58 78 58 106c0 18 -5.33301 33 -16 45s-24.667 18 -42 18c-18 0 -32.5 -6 -43.5 -18s-16.5 -27.667 -16.5 -47c0 -4.66699 0.666992 -15 2 -31h-82c-2.66699 10.667 -4 22.667 -4 36
c0 36 13.333 67.667 40 95s61.334 41 104.001 41c41.333 0 75.5 -12.5 102.5 -37.5s40.5 -56.5 40.5 -94.5c0 -28 -7.33301 -53.833 -22 -77.5s-37 -51.834 -67 -84.501z" />
    <glyph glyph-name="three.dnom" horiz-adv-x="357" 
d="M220 263c27.333 -6.66699 50.833 -21 70.5 -43s29.5 -50 29.5 -84c0 -42 -15 -76.333 -45 -103s-66.667 -40 -110 -40c-34 0 -64 8.5 -90 25.5s-46 39.5 -60 67.5l58 41c23.333 -38.667 53 -58 89 -58c21.333 0 38.833 6 52.5 18s20.5 28.333 20.5 49
c0 40.667 -28.667 61 -86 61h-45v21l88 123h-146v75h266v-23z" />
    <glyph glyph-name="four.dnom" horiz-adv-x="365" 
d="M352 137v-68h-53v-69h-76v69h-209v22l127 325h85l-110 -279h107v120h76v-120h53z" />
    <glyph glyph-name="five.dnom" horiz-adv-x="368" 
d="M189 268c39.333 0 73.001 -11.5 101.001 -34.5s42 -54.833 42 -95.5c0 -43.333 -15.167 -78.333 -45.5 -105s-67.833 -40 -112.5 -40c-34.667 0 -65.167 8.5 -91.5 25.5s-46.5 39.5 -60.5 67.5l58 41c23.333 -38.667 53.666 -58 90.999 -58c22 0 40.167 6 54.5 18
s21.5 28 21.5 48c0 41.333 -29 62 -87 62h-95v219h238v-75h-159v-78c16.667 3.33301 31.667 5 45 5z" />
    <glyph glyph-name="six.dnom" horiz-adv-x="373" 
d="M202 282c35.333 0 66.832 -13.666 94.499 -40.999s41.5 -61 41.5 -101c0 -42 -15 -77 -45 -105s-65.667 -42 -107 -42s-76.666 14 -105.999 42s-44 63.667 -44 107c0 22.667 4.33301 43.167 13 61.5s23 41.166 43 68.499l103 144h98l-96 -134h5zM185.999 69.001
c19.333 0 35.666 6.66699 48.999 20s20 30.333 20 51s-6.66699 37.834 -20 51.501s-29.666 20.5 -48.999 20.5s-35.5 -6.83301 -48.5 -20.5s-19.5 -30.834 -19.5 -51.501s6.5 -37.667 19.5 -51s29.167 -20 48.5 -20z" />
    <glyph glyph-name="seven.dnom" horiz-adv-x="336" 
d="M30 416h288v-23l-189 -393h-89l168 341h-178v75z" />
    <glyph glyph-name="eight.dnom" horiz-adv-x="385" 
d="M265 215c54 -22.667 81 -57.668 81 -105.001c0 -35.333 -14.333 -63.666 -43 -84.999s-65.667 -32 -111 -32s-82.166 10.667 -110.499 32s-42.5 50 -42.5 86c0 47.333 27 82 81 104c-42 24.667 -63 57.667 -63 99c0 34 12.667 60.667 38 80s57.666 29 96.999 29
c40 0 72.667 -9.66699 98 -29s38 -46.333 38 -81c0 -41.333 -21 -74 -63 -98zM192 356.999c-16.667 0 -30.6689 -4.16699 -42.002 -12.5s-17 -19.833 -17 -34.5c0 -13.333 4.83301 -24.333 14.5 -33s24.5 -18 44.5 -28c20.667 10 35.834 19.333 45.501 28
s14.5 19.667 14.5 33c0 14.667 -5.66699 26.167 -17 34.5s-25.666 12.5 -42.999 12.5zM191.998 59.999c22.667 0 40.5 5 53.5 15s19.5 23 19.5 39c0 28 -24.333 50.333 -73 67c-23.333 -8.66699 -41.166 -18 -53.499 -28s-18.5 -23 -18.5 -39s6.16699 -29 18.5 -39
s30.166 -15 53.499 -15z" />
    <glyph glyph-name="nine.dnom" horiz-adv-x="373" 
d="M187 423c41.333 0 76.667 -14.001 106 -42.001s44 -63.667 44 -107c0 -22.667 -4.33301 -43.167 -13 -61.5s-23 -41.166 -43 -68.499l-103 -144h-97l95 134h-5c-34.667 0 -66 13.667 -94 41s-42 61 -42 101c0 42 15 77 45 105s65.667 42 107 42zM187.001 203.999
c19.333 0 35.5 6.83301 48.5 20.5s19.5 30.834 19.5 51.501s-6.5 37.667 -19.5 51s-29.167 20 -48.5 20s-35.666 -6.66699 -48.999 -20s-20 -30.333 -20 -51s6.66699 -37.834 20 -51.501s29.666 -20.5 48.999 -20.5z" />
    <glyph glyph-name="zero.numr" horiz-adv-x="415" 
d="M208 667c53.333 0 93.666 -19.333 120.999 -58s41 -89.667 41 -153c0 -64 -13.667 -116.5 -41 -157.5s-67.666 -61.5 -120.999 -61.5s-93.666 20.5 -120.999 61.5s-41 93.5 -41 157.5c0 63.333 13.667 114.333 41 153s67.666 58 120.999 58zM208 591
c-52 0 -78 -45.333 -78 -136c0 -95.333 26 -143 78 -143s78 47.667 78 143c0 90.667 -26 136 -78 136z" />
    <glyph glyph-name="one.numr" horiz-adv-x="361" 
d="M232 660v-341h88v-75h-275v75h104v266h-98v75h181z" />
    <glyph glyph-name="two.numr" horiz-adv-x="376" 
d="M184 319l152.999 0.000976562v-75h-303v18l148 160c38.667 42.667 58 78 58 106c0 18 -5.33301 33 -16 45s-24.667 18 -42 18c-18 0 -32.5 -6 -43.5 -18s-16.5 -27.667 -16.5 -47c0 -4.66699 0.666992 -15 2 -31h-82c-2.66699 10.667 -4 22.667 -4 36
c0 36 13.333 67.667 40 95s61.334 41 104.001 41c41.333 0 75.5 -12.5 102.5 -37.5s40.5 -56.5 40.5 -94.5c0 -28 -7.33301 -53.833 -22 -77.5s-37 -51.834 -67 -84.501z" />
    <glyph glyph-name="three.numr" horiz-adv-x="357" 
d="M220 507c27.333 -7.33301 50.833 -21.833 70.5 -43.5s29.5 -49.5 29.5 -83.5c0 -42 -15 -76.333 -45 -103s-66.667 -40 -110 -40c-34 0 -64 8.5 -90 25.5s-46 39.5 -60 67.5l58 41c23.333 -38.667 53 -58 89 -58c21.333 0 38.833 6 52.5 18s20.5 28.333 20.5 49
c0 40.667 -28.667 61 -86 61h-45v21l88 123h-146v75h266v-23z" />
    <glyph glyph-name="four.numr" horiz-adv-x="365" 
d="M352 381v-68h-53v-69h-76v69h-209v22l127 325h85l-110 -279h107v120h76v-120h53z" />
    <glyph glyph-name="five.numr" horiz-adv-x="368" 
d="M189 512c39.333 0 73.001 -11.5 101.001 -34.5s42 -54.833 42 -95.5c0 -43.333 -15.167 -78.333 -45.5 -105s-67.833 -40 -112.5 -40c-34.667 0 -65.167 8.5 -91.5 25.5s-46.5 39.5 -60.5 67.5l58 41c23.333 -38.667 53.666 -58 90.999 -58c22 0 40.167 6 54.5 18
s21.5 28 21.5 48c0 41.333 -29 62 -87 62h-95v219h238v-75h-159v-78c16.667 3.33301 31.667 5 45 5z" />
    <glyph glyph-name="six.numr" horiz-adv-x="373" 
d="M202 526c35.333 0 66.832 -13.666 94.499 -40.999s41.5 -61 41.5 -101c0 -42 -15 -77 -45 -105s-65.667 -42 -107 -42s-76.666 14 -105.999 42s-44 63.667 -44 107c0 22.667 4.33301 43.167 13 61.5s23 41.166 43 68.499l103 144h98l-96 -134h5zM185.999 313.001
c19.333 0 35.666 6.66699 48.999 20s20 30.333 20 51s-6.66699 37.834 -20 51.501s-29.666 20.5 -48.999 20.5s-35.5 -6.83301 -48.5 -20.5s-19.5 -30.834 -19.5 -51.501s6.5 -37.667 19.5 -51s29.167 -20 48.5 -20z" />
    <glyph glyph-name="seven.numr" horiz-adv-x="336" 
d="M30 660h288v-23l-189 -393h-89l168 341h-178v75z" />
    <glyph glyph-name="eight.numr" horiz-adv-x="385" 
d="M264 459c54.667 -21.333 82 -56.333 82 -105c0 -35.333 -14.333 -63.666 -43 -84.999s-65.667 -32 -111 -32s-82.166 10.667 -110.499 32s-42.5 50 -42.5 86c0 48 27 83 81 105c-42 24 -63 56.667 -63 98c0 34 12.667 60.667 38 80s57.666 29 96.999 29
c40 0 72.667 -9.66699 98 -29s38 -46.333 38 -81c0 -40.667 -21.333 -73.334 -64 -98.001zM192 601c-16.667 0 -30.668 -4.16699 -42.001 -12.5s-17 -19.833 -17 -34.5c0 -13.333 4.83301 -24.5 14.5 -33.5s24.5 -17.833 44.5 -26.5c20 8.66699 35 17.5 45 26.5
s15 20.167 15 33.5c0 14.667 -5.66699 26.167 -17 34.5s-25.666 12.5 -42.999 12.5zM191.999 304c22.667 0 40.501 5 53.501 15s19.5 23 19.5 39s-6.16699 29 -18.5 39s-30.5 19.333 -54.5 28c-24 -8.66699 -42 -18 -54 -28s-18 -23 -18 -39s6.16699 -29 18.5 -39
s30.166 -15 53.499 -15z" />
    <glyph glyph-name="nine.numr" horiz-adv-x="373" 
d="M187 667c41.333 0 76.667 -14.001 106 -42.001s44 -63.667 44 -107c0 -22.667 -4.33301 -43.167 -13 -61.5s-23 -41.166 -43 -68.499l-103 -144h-97l95 134h-5c-34.667 0 -66 13.667 -94 41s-42 61 -42 101c0 42 15 77 45 105s65.667 42 107 42zM187.001 447.999
c19.333 0 35.5 6.83301 48.5 20.5s19.5 30.834 19.5 51.501s-6.5 37.667 -19.5 51s-29.167 20 -48.5 20s-35.666 -6.66699 -48.999 -20s-20 -30.333 -20 -51s6.66699 -37.834 20 -51.501s29.666 -20.5 48.999 -20.5z" />
    <glyph glyph-name="backslash.case" horiz-adv-x="626" 
d="M5 760h117l499 -860h-117z" />
    <glyph glyph-name="periodcentered.case" horiz-adv-x="270" 
d="M136 428c22 0 40.333 -7.33301 55 -22s22 -33 22 -55s-7.5 -40.5 -22.5 -55.5s-33.167 -22.5 -54.5 -22.5c-22 0 -40.667 7.5 -56 22.5s-23 33.5 -23 55.5s7.66699 40.333 23 55s34 22 56 22z" />
    <glyph glyph-name="bullet.case" horiz-adv-x="402" 
d="M201 447c40.667 0 75.167 -13.667 103.5 -41s42.5 -61.666 42.5 -102.999c0 -40.667 -14.167 -74.667 -42.5 -102s-62.833 -41 -103.5 -41c-40 0 -74.5 13.667 -103.5 41s-43.5 61.333 -43.5 102c0 41.333 14.5 75.666 43.5 102.999s63.5 41 103.5 41z" />
    <glyph glyph-name="slash.case" horiz-adv-x="625" 
d="M621 760l-499 -860h-117l499 860h117z" />
    <glyph glyph-name="comma.subs" horiz-adv-x="207" 
d="M157 -18l-35 -220h-68l5 220h98z" />
    <glyph glyph-name="period.subs" horiz-adv-x="207" 
d="M104 -7c16.667 0 30.832 -5.83301 42.499 -17.5s17.5 -26.167 17.5 -43.5s-5.66699 -31.666 -17 -42.999s-25.666 -17 -42.999 -17s-31.833 5.66699 -43.5 17s-17.5 25.666 -17.5 42.999s5.83301 31.833 17.5 43.5s26.167 17.5 43.5 17.5z" />
    <glyph glyph-name="comma.sups" horiz-adv-x="207" 
d="M157 466l-35 -219h-68l5 219h98z" />
    <glyph glyph-name="period.sups" horiz-adv-x="207" 
d="M104 477c16.667 0 30.832 -5.83301 42.499 -17.5s17.5 -26.167 17.5 -43.5s-5.66699 -31.666 -17 -42.999s-25.666 -17 -42.999 -17s-31.833 5.66699 -43.5 17s-17.5 25.666 -17.5 42.999s5.83301 31.833 17.5 43.5s26.167 17.5 43.5 17.5z" />
    <glyph glyph-name="braceleft.case" horiz-adv-x="404" 
d="M307 672c-47.333 0 -71 -25.0059 -71 -75.0059c0 -16 4 -45.833 12 -89.5s12 -74.167 12 -91.5c0 -43.333 -21 -72 -63 -86c22 -7.33301 38 -17.666 48 -30.999s15 -31.666 15 -54.999c0 -17.333 -4 -47.833 -12 -91.5s-12 -73.5 -12 -89.5c0 -50 23.667 -75 71 -75h53
v-88h-72c-97.333 0 -146 45.667 -146 137c0 22.667 4 57.334 12 104.001s12 76.334 12 89.001c0 36.667 -19 55 -57 55h-60v90h60c38 0 57 18.333 57 55c0 12.667 -4 42.334 -12 89.001s-12 81.334 -12 104.001c0 91.333 48.667 137 146 137h72v-88h-53z" />
    <glyph glyph-name="braceright.case" horiz-adv-x="404" 
d="M296 375l59 0.00585938v-90h-59c-38.667 0 -58 -18.333 -58 -55c0 -12.667 4 -42.334 12 -89.001s12 -81.334 12 -104.001c0 -91.333 -48.667 -137 -146 -137h-72v88h54c46.667 0 70 25 70 75c0 16 -4 45.833 -12 89.5s-12 74.167 -12 91.5c0 23.333 5 41.666 15 54.999
s26 23.666 48 30.999c-22 7.33301 -38 17.5 -48 30.5s-15 31.5 -15 55.5c0 17.333 4 47.833 12 91.5s12 73.5 12 89.5c0 50 -23.333 75 -70 75h-54v88h72c97.333 0 146 -45.667 146 -137c0 -22.667 -4 -57.334 -12 -104.001s-12 -76.334 -12 -89.001
c0 -36.667 19.333 -55 58 -55z" />
    <glyph glyph-name="bracketleft.case" horiz-adv-x="350" 
d="M305 760v-88h-115v-682h115v-90h-209v860h209z" />
    <glyph glyph-name="bracketright.case" horiz-adv-x="350" 
d="M254 760v-860h-210v90h116v682h-116v88h210z" />
    <glyph glyph-name="parenleft.case" horiz-adv-x="349" 
d="M279 766l43 -67c-101.333 -66 -152 -188.667 -152 -368c0 -178.667 50.667 -301 152 -367l-43 -66c-60 27.333 -109.333 76.5 -148 147.5s-58 166.167 -58 285.5c0 120 19.333 215.5 58 286.5s88 120.5 148 148.5z" />
    <glyph glyph-name="parenright.case" horiz-adv-x="349" 
d="M71 766c59.333 -28.667 108.167 -78.333 146.5 -149s57.5 -166 57.5 -286c0 -81.333 -10.167 -152.833 -30.5 -214.5s-45 -109 -74 -142s-62.167 -58.5 -99.5 -76.5l-44 66c101.333 66 152 188.333 152 367c0 179.333 -50.667 302 -152 368z" />
    <glyph glyph-name="emdash.case" horiz-adv-x="1000" 
d="M950 396v-89h-900v89h900z" />
    <glyph glyph-name="endash.case" horiz-adv-x="504" 
d="M465 396v-89h-426v89h426z" />
    <glyph glyph-name="uni2015.case" horiz-adv-x="1000" 
d="M950 396v-89h-900v89h900z" />
    <glyph glyph-name="hyphen.case" horiz-adv-x="344" 
d="M295 396v-89h-246v89h246z" />
    <glyph glyph-name="uni00AD.case" horiz-adv-x="344" 
d="M295 396v-89h-246v89h246z" />
    <glyph glyph-name="guillemotleft.case" horiz-adv-x="550" 
d="M220 522l68 -59l-138 -154l138 -155l-68 -58l-186 198v29zM447 522l68 -60l-138 -153l138 -155l-68 -59l-186 199v29z" />
    <glyph glyph-name="guillemotright.case" horiz-adv-x="550" 
d="M103 522l186 -199v-29l-186 -198l-68 58l138 155l-138 154zM330 522l186 -199v-29l-186 -199l-68 59l138 155l-138 153z" />
    <glyph glyph-name="guilsinglleft.case" horiz-adv-x="323" 
d="M220 522l68 -59l-138 -154l138 -155l-68 -58l-186 198v29z" />
    <glyph glyph-name="guilsinglright.case" horiz-adv-x="323" 
d="M103 522l186 -199v-29l-186 -198l-68 58l138 155l-138 154z" />
    <glyph glyph-name="cent.tf" 
d="M339 170c37.333 8 71.001 31.998 101.001 71.998l73 -58c-40 -65.333 -98 -102.666 -174 -111.999v-167h-97v173c-57.333 14 -104.333 43.833 -141 89.5s-55 98.834 -55 159.501c0 60 18.333 112.833 55 158.5s83.667 75.5 141 89.5v174h97v-168
c75.333 -8.66699 133.666 -45.667 174.999 -111l-73 -58c-29.333 39.333 -63.333 63 -102 71v-313zM154.001 326.998c0 -32.667 7.83301 -62 23.5 -88s37.167 -45.333 64.5 -58v291c-27.333 -12 -48.833 -31 -64.5 -57s-23.5 -55.333 -23.5 -88z" />
    <glyph glyph-name="currency.tf" 
d="M480 331c0 -38.667 -11.001 -73.667 -33.001 -105l79 -81l-61 -63l-84 85c-30.667 -17.333 -65 -26 -103 -26c-35.333 0 -68.333 8 -99 24l-82 -83l-62 63l76 80c-22 30.667 -33 65.667 -33 105s11.667 75 35 107l-78 79l63 63l82 -83c30.667 16 63.334 24 98.001 24
s68.667 -8.33301 102 -25l84 84l62 -63l-79 -80c22 -31.333 33 -66.333 33 -105zM185.999 330c0 -26.667 8.5 -48.667 25.5 -66s39.5 -26 67.5 -26c27.333 0 49.666 8.66699 66.999 26s26 39.333 26 66c0 27.333 -8.66699 49.5 -26 66.5s-39.666 25.5 -66.999 25.5
c-28 0 -50.5 -8.5 -67.5 -25.5s-25.5 -39.167 -25.5 -66.5z" />
    <glyph glyph-name="dollar.tf" 
d="M490 193c0 -46 -15.499 -83.835 -46.499 -113.502s-71.167 -48.167 -120.5 -55.5v-119h-97v121c-80 14.667 -141 59.667 -183 135l74 54c29.333 -47.333 65.666 -78.333 108.999 -93v184c-95.333 37.333 -143 93 -143 167c0 40.667 13.167 74.834 39.5 102.501
s60.833 45.834 103.5 54.501v119h97v-117c67.333 -12 118 -49 152 -111l-71 -54c-23.333 34.667 -50.333 57 -81 67v-163l18 -7c99.333 -38.667 149 -95.667 149 -171zM187.001 473.998c0 -24.667 13 -45 39 -61v118c-26 -11.333 -39 -30.333 -39 -57zM323.001 118.998
c41.333 12 62 36.001 62 72.001c0 29.333 -20.667 54.666 -62 75.999v-148z" />
    <glyph glyph-name="Euro.tf" 
d="M519 109l25.998 -89.999c-42 -20 -88.667 -30 -140 -30c-73.333 0 -136 19.833 -188 59.5s-88.333 93.167 -109 160.5h-94v83h78c-1.33301 16 -2 28.667 -2 38c0 15.333 0.333008 26.666 1 33.999h-75v83h90c20 68 56.167 122.333 108.5 163s115.5 61 189.5 61
c50.667 0 97.334 -9.66699 140.001 -29l-26 -91c-38 15.333 -74.333 23 -109 23c-45.333 0 -84.166 -11.333 -116.499 -34s-56.5 -53.667 -72.5 -93h270l-22 -83h-268c-0.666992 -7.33301 -1 -18.666 -1 -33.999c0 -17.333 0.666992 -30 2 -38h246l-22 -83h-204
c16.667 -38.667 41 -68.834 73 -90.501s70.333 -32.5 115 -32.5c35.333 0 72 7.66699 110 23z" />
    <glyph glyph-name="florin.tf" 
d="M447 576c-32.667 0 -57.833 -6.33203 -75.5 -18.999s-28.5 -34.667 -32.5 -66l-11 -89h125v-91h-136l-34 -273c-8 -58.667 -27.833 -101.834 -59.5 -129.501s-75.5 -41.5 -131.5 -41.5c-23.333 0 -48.333 2.66699 -75 8v89c20 -2 38 -3 54 -3
c33.333 0 58.5 6.5 75.5 19.5s27.833 35.167 32.5 66.5l33 264h-103v91h114l12 98c14 114 77.667 171 191 171c30 0 55 -3 75 -9v-88c-26.667 1.33301 -44.667 2 -54 2z" />
    <glyph glyph-name="sterling.tf" 
d="M291 216c0 -48 -14.998 -89.667 -44.998 -125h271v-91h-464v24c88.667 60 133 123.667 133 191c0 10 -0.333008 17.333 -1 22h-122v91h87c-0.666992 1.33301 -3.33398 6.16602 -8.00098 14.499s-7.66699 13.666 -9 15.999s-4 7.33301 -8 15s-6.66699 13.334 -8 17.001
s-3.5 9 -6.5 16s-5 13 -6 18s-2.33301 11 -4 18s-2.83398 13.833 -3.50098 20.5s-1 13.334 -1 20.001c0 55.333 20 100.5 60 135.5s90.667 52.5 152 52.5c53.333 0 98.833 -14.667 136.5 -44s64.167 -72 79.5 -128l-91 -33c-22 72 -62 108 -120 108
c-32.667 0 -59 -10.5 -79 -31.5s-30 -46.833 -30 -77.5c0 -12 2 -24.667 6 -38s7.66699 -23.5 11 -30.5s10 -19.167 20 -36.5s16 -28 18 -32h171v-91h-140c0.666992 -4.66699 1 -11.667 1 -21z" />
    <glyph glyph-name="yen.tf" 
d="M540 660l-188 -293h159v-88h-178v-78h178v-88h-178v-113h-106v113h-177v88h177v78h-177v88h159l-189 293h117l143 -236l144 236h116z" />
    <glyph glyph-name="section.case" horiz-adv-x="590" 
d="M558 234c0 -34.667 -10.668 -63.668 -32.001 -87.001s-50.666 -39.666 -87.999 -48.999c0.666992 -3.33301 1 -9 1 -17c0 -44 -15.833 -80.333 -47.5 -109s-73.834 -43 -126.501 -43c-78 0 -139.333 32.333 -184 97l71 58c34.667 -42 73 -63 115 -63
c46 0 69 19.333 69 58c0 13.333 -4.16699 26.5 -12.5 39.5s-17.333 23.5 -27 31.5s-25.167 20 -46.5 36l-99 76c-41.333 29.333 -71.5 56.5 -90.5 81.5s-28.5 52.833 -28.5 83.5c0 34.667 10.667 63.667 32 87s50.666 39.666 87.999 48.999c-0.666992 3.33301 -1 9 -1 17
c0 44 16 80.333 48 109s74.333 43 127 43c77.333 0 138.333 -32.667 183 -98l-71 -58c-34 42 -72.333 63 -115 63c-46 0 -69 -19 -69 -57c0 -14 4.33301 -27.5 13 -40.5s17.334 -23.167 26.001 -30.5s24.334 -19.666 47.001 -36.999l99 -75
c41.333 -29.333 71.5 -56.333 90.5 -81s28.5 -52.667 28.5 -84zM407.999 172.999c32 12 48.001 32 48.001 60c0 14 -5.16699 27 -15.5 39s-30.833 29.333 -61.5 52l-102 78c-44.667 32 -76.334 60.667 -95.001 86c-31.333 -12 -47 -32 -47 -60c0 -14 5 -27 15 -39
s30.333 -29.667 61 -53l99 -75c46 -32.667 78.667 -62 98 -88z" />
    <glyph glyph-name="dieresis.case" horiz-adv-x="440" 
d="M98 877c18.667 0 34.5 -6.16699 47.5 -18.5s19.5 -27.833 19.5 -46.5c0 -17.333 -6.5 -32.5 -19.5 -45.5s-28.833 -19.5 -47.5 -19.5c-18 0 -33.833 6.5 -47.5 19.5s-20.5 28.167 -20.5 45.5c0 18 6.83301 33.333 20.5 46s29.5 19 47.5 19zM342 877
c19.333 0 35.5 -6.33203 48.5 -18.999s19.5 -28.334 19.5 -47.001c0 -17.333 -6.66699 -32.5 -20 -45.5s-29.333 -19.5 -48 -19.5c-17.333 0 -32.833 6.5 -46.5 19.5s-20.5 28.167 -20.5 45.5c0 18 6.83301 33.5 20.5 46.5s29.167 19.5 46.5 19.5z" />
    <glyph glyph-name="dieresis.i" horiz-adv-x="395" 
d="M98 740c18.667 0 34.5 -6.33301 47.5 -19s19.5 -28.334 19.5 -47.001c0 -17.333 -6.5 -32.5 -19.5 -45.5s-28.833 -19.5 -47.5 -19.5c-18 0 -33.833 6.5 -47.5 19.5s-20.5 28.167 -20.5 45.5c0 18.667 6.66699 34.334 20 47.001s29.333 19 48 19zM298 740
c19.333 0 35.5 -6.33301 48.5 -19s19.5 -28.334 19.5 -47.001c0 -17.333 -6.66699 -32.5 -20 -45.5s-29.333 -19.5 -48 -19.5c-17.333 0 -32.833 6.5 -46.5 19.5s-20.5 28.167 -20.5 45.5c0 18.667 6.66699 34.334 20 47.001s29 19 47 19z" />
    <glyph glyph-name="otatonos" horiz-adv-x="186" 
d="M156 780v-19l-47 -193h-79v212h126z" />
    </font>
</defs>
</svg>
